<?xml version="1.0" encoding="UTF-8" standalone="no"?>
<!DOCTYPE svg PUBLIC "-//W3C//DTD SVG 1.1//EN"
 "http://www.w3.org/Graphics/SVG/1.1/DTD/svg11.dtd">
<!-- Generated by graphviz version 2.40.1 (20161225.0304)
 -->
<!-- Title: 0192015_coordView Pages: 1 -->
<svg width="2096pt" height="1844pt"
 viewBox="0.00 0.00 2096.00 1844.00" xmlns="http://www.w3.org/2000/svg" xmlns:xlink="http://www.w3.org/1999/xlink">
<g id="graph0" class="graph" transform="scale(1 1) rotate(0) translate(4 1840)">
<title>0192015_coordView</title>
<polygon fill="#ffffff" stroke="transparent" points="-4,4 -4,-1840 2092.0005,-1840 2092.0005,4 -4,4"/>
<!-- ECOI01 -->
<g id="node1" class="node">
<title>ECOI01</title>
<polygon fill="#2ecc71" stroke="transparent" stroke-width=".5" points="0,-1746.0004 144,-1746.0004 144,-1818.0004 0,-1818.0004 0,-1746.0004"/>
<polygon fill="none" stroke="transparent" points="144,-1818.0004 0,-1818.0004 0,-1746.0004 144,-1746.0004 144,-1818.0004"/>
<text text-anchor="middle" x="72" y="-1778.3004" font-family="Times,serif" font-size="14.00" fill="#000000">ECOI01</text>
</g>
<!-- ECOI02 -->
<g id="node2" class="node">
<title>ECOI02</title>
<polygon fill="#2ecc71" stroke="transparent" stroke-width=".5" points="0,-1530.0003 144,-1530.0003 144,-1602.0003 0,-1602.0003 0,-1530.0003"/>
<polygon fill="none" stroke="transparent" points="144,-1602.0003 0,-1602.0003 0,-1530.0003 144,-1530.0003 144,-1602.0003"/>
<text text-anchor="middle" x="72" y="-1562.3003" font-family="Times,serif" font-size="14.00" fill="#000000">ECOI02</text>
</g>
<!-- ECOI04 -->
<g id="node10" class="node">
<title>ECOI04</title>
<polygon fill="#2ecc71" stroke="transparent" stroke-width=".5" points="216,-1746.0004 312,-1746.0004 312,-1818.0004 216,-1818.0004 216,-1746.0004"/>
<polygon fill="#e74c3c" stroke="transparent" stroke-width=".5" points="312,-1746.0004 360,-1746.0004 360,-1818.0004 312,-1818.0004 312,-1746.0004"/>
<polygon fill="none" stroke="transparent" points="360,-1818.0004 216,-1818.0004 216,-1746.0004 360,-1746.0004 360,-1818.0004"/>
<text text-anchor="middle" x="288" y="-1778.3004" font-family="Times,serif" font-size="14.00" fill="#000000">ECOI04</text>
</g>
<!-- ECOI02&#45;&gt;ECOI04 -->
<g id="edge1" class="edge">
<title>ECOI02&#45;&gt;ECOI04</title>
<path fill="none" stroke="#fa3246" d="M144.3801,-1566C176.8591,-1566 208,-1566 208,-1566 208,-1566 208,-1782 208,-1782 208,-1782 208.7963,-1782 208.7963,-1782"/>
<polygon fill="#fa3246" stroke="#fa3246" points="205.9632,-1785.5001 215.9632,-1782 205.9631,-1778.5001 205.9632,-1785.5001"/>
</g>
<!-- ECOI03 -->
<g id="node3" class="node">
<title>ECOI03</title>
<polygon fill="#2ecc71" stroke="transparent" stroke-width=".5" points="0,-1314.0003 108,-1314.0003 108,-1386.0003 0,-1386.0003 0,-1314.0003"/>
<polygon fill="#e74c3c" stroke="transparent" stroke-width=".5" points="108,-1314.0003 144,-1314.0003 144,-1386.0003 108,-1386.0003 108,-1314.0003"/>
<polygon fill="none" stroke="transparent" points="144,-1386.0003 0,-1386.0003 0,-1314.0003 144,-1314.0003 144,-1386.0003"/>
<text text-anchor="middle" x="72" y="-1346.3003" font-family="Times,serif" font-size="14.00" fill="#000000">ECOI03</text>
</g>
<!-- ECOI13 -->
<g id="node55" class="node">
<title>ECOI13</title>
<polygon fill="#2ecc71" stroke="transparent" stroke-width=".5" points="1296.0003,-882.0002 1332.0003,-882.0002 1332.0003,-954.0002 1296.0003,-954.0002 1296.0003,-882.0002"/>
<polygon fill="#e74c3c" stroke="transparent" stroke-width=".5" points="1332.0003,-882.0002 1368.0003,-882.0002 1368.0003,-954.0002 1332.0003,-954.0002 1332.0003,-882.0002"/>
<polygon fill="#9b59b6" stroke="transparent" stroke-width=".5" points="1368.0003,-882.0002 1404.0003,-882.0002 1404.0003,-954.0002 1368.0003,-954.0002 1368.0003,-882.0002"/>
<polygon fill="#bdc3c7" stroke="transparent" stroke-width=".5" points="1404.0003,-882.0002 1440.0003,-882.0002 1440.0003,-954.0002 1404.0003,-954.0002 1404.0003,-882.0002"/>
<polygon fill="none" stroke="transparent" points="1440.0003,-954.0002 1296.0003,-954.0002 1296.0003,-882.0002 1440.0003,-882.0002 1440.0003,-954.0002"/>
<text text-anchor="middle" x="1368.0003" y="-914.3002" font-family="Times,serif" font-size="14.00" fill="#000000">ECOI13</text>
</g>
<!-- ECOI03&#45;&gt;ECOI13 -->
<g id="edge58" class="edge">
<title>ECOI03&#45;&gt;ECOI13</title>
<path fill="none" stroke="#af0019" d="M144.0368,-1350C148.9482,-1350 152,-1350 152,-1350 152,-1350 152,-990 152,-990 152,-990 1368.0003,-990 1368.0003,-990 1368.0003,-990 1368.0003,-964.4219 1368.0003,-964.4219"/>
<polygon fill="#af0019" stroke="#af0019" points="1371.5004,-964.4219 1368.0003,-954.4219 1364.5004,-964.422 1371.5004,-964.4219"/>
</g>
<!-- EMEI02 -->
<g id="node4" class="node">
<title>EMEI02</title>
<polygon fill="#2ecc71" stroke="transparent" stroke-width=".5" points="0,-1098.0002 144,-1098.0002 144,-1170.0002 0,-1170.0002 0,-1098.0002"/>
<polygon fill="none" stroke="transparent" points="144,-1170.0002 0,-1170.0002 0,-1098.0002 144,-1098.0002 144,-1170.0002"/>
<text text-anchor="middle" x="72" y="-1130.3002" font-family="Times,serif" font-size="14.00" fill="#000000">EMEI02</text>
</g>
<!-- FISI01 -->
<g id="node5" class="node">
<title>FISI01</title>
<polygon fill="#2ecc71" stroke="transparent" stroke-width=".5" points="0,-882.0002 54,-882.0002 54,-954.0002 0,-954.0002 0,-882.0002"/>
<polygon fill="#e74c3c" stroke="transparent" stroke-width=".5" points="54,-882.0002 144,-882.0002 144,-954.0002 54,-954.0002 54,-882.0002"/>
<polygon fill="none" stroke="transparent" points="144,-954.0002 0,-954.0002 0,-882.0002 144,-882.0002 144,-954.0002"/>
<text text-anchor="middle" x="72" y="-914.3002" font-family="Times,serif" font-size="14.00" fill="#000000">FISI01</text>
</g>
<!-- EMEI06 -->
<g id="node13" class="node">
<title>EMEI06</title>
<polygon fill="#2ecc71" stroke="transparent" stroke-width=".5" points="216,-1098.0002 324,-1098.0002 324,-1170.0002 216,-1170.0002 216,-1098.0002"/>
<polygon fill="#9b59b6" stroke="transparent" stroke-width=".5" points="324,-1098.0002 360,-1098.0002 360,-1170.0002 324,-1170.0002 324,-1098.0002"/>
<polygon fill="none" stroke="transparent" points="360,-1170.0002 216,-1170.0002 216,-1098.0002 360,-1098.0002 360,-1170.0002"/>
<text text-anchor="middle" x="288" y="-1130.3002" font-family="Times,serif" font-size="14.00" fill="#000000">EMEI06</text>
</g>
<!-- FISI01&#45;&gt;EMEI06 -->
<g id="edge4" class="edge">
<title>FISI01&#45;&gt;EMEI06</title>
<path fill="none" stroke="#fa3246" d="M144.2315,-918C161.978,-918 176,-918 176,-918 176,-918 176,-1146 176,-1146 176,-1146 205.8024,-1146 205.8024,-1146"/>
<polygon fill="#fa3246" stroke="#fa3246" points="205.8024,-1149.5001 215.8024,-1146 205.8023,-1142.5001 205.8024,-1149.5001"/>
</g>
<!-- HUMI01 -->
<g id="node6" class="node">
<title>HUMI01</title>
<polygon fill="#2ecc71" stroke="transparent" stroke-width=".5" points="0,-666.0001 144,-666.0001 144,-738.0001 0,-738.0001 0,-666.0001"/>
<polygon fill="none" stroke="transparent" points="144,-738.0001 0,-738.0001 0,-666.0001 144,-666.0001 144,-738.0001"/>
<text text-anchor="middle" x="72" y="-698.3001" font-family="Times,serif" font-size="14.00" fill="#000000">HUMI01</text>
</g>
<!-- EPRI04 -->
<g id="node72" class="node">
<title>EPRI04</title>
<polygon fill="#2ecc71" stroke="transparent" stroke-width=".5" points="1728.0004,-450.0001 1872.0004,-450.0001 1872.0004,-522.0001 1728.0004,-522.0001 1728.0004,-450.0001"/>
<polygon fill="none" stroke="transparent" points="1872.0004,-522.0001 1728.0004,-522.0001 1728.0004,-450.0001 1872.0004,-450.0001 1872.0004,-522.0001"/>
<text text-anchor="middle" x="1800.0004" y="-482.3001" font-family="Times,serif" font-size="14.00" fill="#000000">EPRI04</text>
</g>
<!-- HUMI01&#45;&gt;EPRI04 -->
<g id="edge74" class="edge">
<title>HUMI01&#45;&gt;EPRI04</title>
<path fill="none" stroke="#840019" d="M48,-665.7136C48,-653.0779 48,-642 48,-642 48,-642 1800.0004,-642 1800.0004,-642 1800.0004,-642 1800.0004,-532.1817 1800.0004,-532.1817"/>
<polygon fill="#840019" stroke="#840019" points="1803.5005,-532.1816 1800.0004,-522.1817 1796.5005,-532.1817 1803.5005,-532.1816"/>
</g>
<!-- HUMI02 -->
<g id="node7" class="node">
<title>HUMI02</title>
<polygon fill="#2ecc71" stroke="transparent" stroke-width=".5" points="0,-450.0001 144,-450.0001 144,-522.0001 0,-522.0001 0,-450.0001"/>
<polygon fill="none" stroke="transparent" points="144,-522.0001 0,-522.0001 0,-450.0001 144,-450.0001 144,-522.0001"/>
<text text-anchor="middle" x="72" y="-482.3001" font-family="Times,serif" font-size="14.00" fill="#000000">HUMI02</text>
</g>
<!-- ECOI61 -->
<g id="node20" class="node">
<title>ECOI61</title>
<polygon fill="#2ecc71" stroke="transparent" stroke-width=".5" points="432.0001,-1530.0003 576.0001,-1530.0003 576.0001,-1602.0003 432.0001,-1602.0003 432.0001,-1530.0003"/>
<polygon fill="none" stroke="transparent" points="576.0001,-1602.0003 432.0001,-1602.0003 432.0001,-1530.0003 576.0001,-1530.0003 576.0001,-1602.0003"/>
<text text-anchor="middle" x="504.0001" y="-1562.3003" font-family="Times,serif" font-size="14.00" fill="#000000">ECOI61</text>
</g>
<!-- HUMI02&#45;&gt;ECOI61 -->
<g id="edge9" class="edge">
<title>HUMI02&#45;&gt;ECOI61</title>
<path fill="none" stroke="#fa253b" d="M144.2674,-486C153.6071,-486 160,-486 160,-486 160,-486 160,-1458 160,-1458 160,-1458 504.0001,-1458 504.0001,-1458 504.0001,-1458 504.0001,-1519.7373 504.0001,-1519.7373"/>
<polygon fill="#fa253b" stroke="#fa253b" points="500.5002,-1519.7373 504.0001,-1529.7373 507.5002,-1519.7374 500.5002,-1519.7373"/>
</g>
<!-- HUMI06 -->
<g id="node25" class="node">
<title>HUMI06</title>
<polygon fill="#2ecc71" stroke="transparent" stroke-width=".5" points="432.0001,-450.0001 576.0001,-450.0001 576.0001,-522.0001 432.0001,-522.0001 432.0001,-450.0001"/>
<polygon fill="none" stroke="transparent" points="576.0001,-522.0001 432.0001,-522.0001 432.0001,-450.0001 576.0001,-450.0001 576.0001,-522.0001"/>
<text text-anchor="middle" x="504.0001" y="-482.3001" font-family="Times,serif" font-size="14.00" fill="#000000">HUMI06</text>
</g>
<!-- HUMI02&#45;&gt;HUMI06 -->
<g id="edge13" class="edge">
<title>HUMI02&#45;&gt;HUMI06</title>
<path fill="none" stroke="#fa253b" d="M96,-522.2864C96,-534.9221 96,-546 96,-546 96,-546 504.0001,-546 504.0001,-546 504.0001,-546 504.0001,-532.2864 504.0001,-532.2864"/>
<polygon fill="#fa253b" stroke="#fa253b" points="507.5002,-532.2864 504.0001,-522.2864 500.5002,-532.2865 507.5002,-532.2864"/>
</g>
<!-- MATI01 -->
<g id="node8" class="node">
<title>MATI01</title>
<polygon fill="#2ecc71" stroke="transparent" stroke-width=".5" points="0,-234 144,-234 144,-306 0,-306 0,-234"/>
<polygon fill="none" stroke="transparent" points="144,-306 0,-306 0,-234 144,-234 144,-306"/>
<text text-anchor="middle" x="72" y="-266.3" font-family="Times,serif" font-size="14.00" fill="#000000">MATI01</text>
</g>
<!-- MATI01&#45;&gt;EMEI06 -->
<g id="edge3" class="edge">
<title>MATI01&#45;&gt;EMEI06</title>
<path fill="none" stroke="#fa3246" d="M144.1976,-287C165.8694,-287 184,-287 184,-287 184,-287 184,-1122 184,-1122 184,-1122 205.7685,-1122 205.7685,-1122"/>
<polygon fill="#fa3246" stroke="#fa3246" points="205.7686,-1125.5001 215.7685,-1122 205.7685,-1118.5001 205.7686,-1125.5001"/>
</g>
<!-- MATI03 -->
<g id="node18" class="node">
<title>MATI03</title>
<polygon fill="#2ecc71" stroke="transparent" stroke-width=".5" points="216,-18 331.2,-18 331.2,-90 216,-90 216,-18"/>
<polygon fill="#e74c3c" stroke="transparent" stroke-width=".5" points="331.2,-18 360,-18 360,-90 331.2,-90 331.2,-18"/>
<polygon fill="none" stroke="transparent" points="360,-90 216,-90 216,-18 360,-18 360,-90"/>
<text text-anchor="middle" x="288" y="-50.3" font-family="Times,serif" font-size="14.00" fill="#000000">MATI03</text>
</g>
<!-- MATI01&#45;&gt;MATI03 -->
<g id="edge7" class="edge">
<title>MATI01&#45;&gt;MATI03</title>
<path fill="none" stroke="#fa3246" d="M144.2697,-251C157.9087,-251 168,-251 168,-251 168,-251 168,-41 168,-41 168,-41 205.772,-41 205.772,-41"/>
<polygon fill="#fa3246" stroke="#fa3246" points="205.772,-44.5001 215.772,-41 205.7719,-37.5001 205.772,-44.5001"/>
</g>
<!-- MATI05 -->
<g id="node33" class="node">
<title>MATI05</title>
<polygon fill="#2ecc71" stroke="transparent" stroke-width=".5" points="648.0001,-666.0001 763.2001,-666.0001 763.2001,-738.0001 648.0001,-738.0001 648.0001,-666.0001"/>
<polygon fill="#e74c3c" stroke="transparent" stroke-width=".5" points="763.2001,-666.0001 792.0001,-666.0001 792.0001,-738.0001 763.2001,-738.0001 763.2001,-666.0001"/>
<polygon fill="none" stroke="transparent" points="792.0001,-738.0001 648.0001,-738.0001 648.0001,-666.0001 792.0001,-666.0001 792.0001,-738.0001"/>
<text text-anchor="middle" x="720.0001" y="-698.3001" font-family="Times,serif" font-size="14.00" fill="#000000">MATI05</text>
</g>
<!-- MATI01&#45;&gt;MATI05 -->
<g id="edge22" class="edge">
<title>MATI01&#45;&gt;MATI05</title>
<path fill="none" stroke="#fa142b" d="M144.2297,-269C173.2637,-269 200,-269 200,-269 200,-269 200,-570 200,-570 200,-570 720.0001,-570 720.0001,-570 720.0001,-570 720.0001,-655.9305 720.0001,-655.9305"/>
<polygon fill="#fa142b" stroke="#fa142b" points="716.5002,-655.9305 720.0001,-665.9305 723.5002,-655.9305 716.5002,-655.9305"/>
</g>
<!-- MATI08 -->
<g id="node34" class="node">
<title>MATI08</title>
<polygon fill="#2ecc71" stroke="transparent" stroke-width=".5" points="648.0001,-450.0001 744.0001,-450.0001 744.0001,-522.0001 648.0001,-522.0001 648.0001,-450.0001"/>
<polygon fill="#e74c3c" stroke="transparent" stroke-width=".5" points="744.0001,-450.0001 792.0001,-450.0001 792.0001,-522.0001 744.0001,-522.0001 744.0001,-450.0001"/>
<polygon fill="none" stroke="transparent" points="792.0001,-522.0001 648.0001,-522.0001 648.0001,-450.0001 792.0001,-450.0001 792.0001,-522.0001"/>
<text text-anchor="middle" x="720.0001" y="-482.3001" font-family="Times,serif" font-size="14.00" fill="#000000">MATI08</text>
</g>
<!-- MATI01&#45;&gt;MATI08 -->
<g id="edge23" class="edge">
<title>MATI01&#45;&gt;MATI08</title>
<path fill="none" stroke="#fa142b" d="M72,-306.1111C72,-328.8779 72,-354 72,-354 72,-354 705.6001,-354 705.6001,-354 705.6001,-354 705.6001,-439.9305 705.6001,-439.9305"/>
<polygon fill="#fa142b" stroke="#fa142b" points="702.1002,-439.9304 705.6001,-449.9305 709.1002,-439.9305 702.1002,-439.9304"/>
</g>
<!-- MATI02 -->
<g id="node9" class="node">
<title>MATI02</title>
<polygon fill="#2ecc71" stroke="transparent" stroke-width=".5" points="0,-18 108,-18 108,-90 0,-90 0,-18"/>
<polygon fill="#e74c3c" stroke="transparent" stroke-width=".5" points="108,-18 144,-18 144,-90 108,-90 108,-18"/>
<polygon fill="none" stroke="transparent" points="144,-90 0,-90 0,-18 144,-18 144,-90"/>
<text text-anchor="middle" x="72" y="-50.3" font-family="Times,serif" font-size="14.00" fill="#000000">MATI02</text>
</g>
<!-- MATI06 -->
<g id="node26" class="node">
<title>MATI06</title>
<polygon fill="#2ecc71" stroke="transparent" stroke-width=".5" points="432.0001,-234 576.0001,-234 576.0001,-306 432.0001,-306 432.0001,-234"/>
<polygon fill="none" stroke="transparent" points="576.0001,-306 432.0001,-306 432.0001,-234 576.0001,-234 576.0001,-306"/>
<text text-anchor="middle" x="504.0001" y="-266.3" font-family="Times,serif" font-size="14.00" fill="#000000">MATI06</text>
</g>
<!-- MATI02&#45;&gt;MATI06 -->
<g id="edge16" class="edge">
<title>MATI02&#45;&gt;MATI06</title>
<path fill="none" stroke="#fa253b" d="M28.8,-90.3406C28.8,-136.1539 28.8,-209 28.8,-209 28.8,-209 504.0001,-209 504.0001,-209 504.0001,-209 504.0001,-223.811 504.0001,-223.811"/>
<polygon fill="#fa253b" stroke="#fa253b" points="500.5002,-223.811 504.0001,-233.811 507.5002,-223.8111 500.5002,-223.811"/>
</g>
<!-- MATI07 -->
<g id="node27" class="node">
<title>MATI07</title>
<polygon fill="#2ecc71" stroke="transparent" stroke-width=".5" points="432.0001,-18 576.0001,-18 576.0001,-90 432.0001,-90 432.0001,-18"/>
<polygon fill="none" stroke="transparent" points="576.0001,-90 432.0001,-90 432.0001,-18 576.0001,-18 576.0001,-90"/>
<text text-anchor="middle" x="504.0001" y="-50.3" font-family="Times,serif" font-size="14.00" fill="#000000">MATI07</text>
</g>
<!-- MATI02&#45;&gt;MATI07 -->
<g id="edge18" class="edge">
<title>MATI02&#45;&gt;MATI07</title>
<path fill="none" stroke="#fa253b" d="M72,-17.9812C72,-8.0758 72,0 72,0 72,0 504.0001,0 504.0001,0 504.0001,0 504.0001,-7.9812 504.0001,-7.9812"/>
<polygon fill="#fa253b" stroke="#fa253b" points="500.5002,-7.9812 504.0001,-17.9812 507.5002,-7.9813 500.5002,-7.9812"/>
</g>
<!-- MATI04 -->
<g id="node32" class="node">
<title>MATI04</title>
<polygon fill="#2ecc71" stroke="transparent" stroke-width=".5" points="648.0001,-882.0002 792.0001,-882.0002 792.0001,-954.0002 648.0001,-954.0002 648.0001,-882.0002"/>
<polygon fill="none" stroke="transparent" points="792.0001,-954.0002 648.0001,-954.0002 648.0001,-882.0002 792.0001,-882.0002 792.0001,-954.0002"/>
<text text-anchor="middle" x="720.0001" y="-914.3002" font-family="Times,serif" font-size="14.00" fill="#000000">MATI04</text>
</g>
<!-- MATI02&#45;&gt;MATI04 -->
<g id="edge21" class="edge">
<title>MATI02&#45;&gt;MATI04</title>
<path fill="none" stroke="#fa142b" d="M144.228,-65C169.6424,-65 192,-65 192,-65 192,-65 192,-810 192,-810 192,-810 720.0001,-810 720.0001,-810 720.0001,-810 720.0001,-871.7372 720.0001,-871.7372"/>
<polygon fill="#fa142b" stroke="#fa142b" points="716.5002,-871.7372 720.0001,-881.7372 723.5002,-871.7373 716.5002,-871.7372"/>
</g>
<!-- MATI02&#45;&gt;MATI08 -->
<g id="edge24" class="edge">
<title>MATI02&#45;&gt;MATI08</title>
<path fill="none" stroke="#fa142b" d="M57.6,-90.1431C57.6,-128.9183 57.6,-185 57.6,-185 57.6,-185 676.8001,-185 676.8001,-185 676.8001,-185 676.8001,-439.9914 676.8001,-439.9914"/>
<polygon fill="#fa142b" stroke="#fa142b" points="673.3002,-439.9914 676.8001,-449.9914 680.3002,-439.9914 673.3002,-439.9914"/>
</g>
<!-- ECOI24 -->
<g id="node63" class="node">
<title>ECOI24</title>
<polygon fill="#2ecc71" stroke="transparent" stroke-width=".5" points="1512.0003,-882.0002 1548.0003,-882.0002 1548.0003,-954.0002 1512.0003,-954.0002 1512.0003,-882.0002"/>
<polygon fill="#e74c3c" stroke="transparent" stroke-width=".5" points="1548.0003,-882.0002 1584.0003,-882.0002 1584.0003,-954.0002 1548.0003,-954.0002 1548.0003,-882.0002"/>
<polygon fill="#9b59b6" stroke="transparent" stroke-width=".5" points="1584.0003,-882.0002 1620.0003,-882.0002 1620.0003,-954.0002 1584.0003,-954.0002 1584.0003,-882.0002"/>
<polygon fill="#bdc3c7" stroke="transparent" stroke-width=".5" points="1620.0003,-882.0002 1656.0003,-882.0002 1656.0003,-954.0002 1620.0003,-954.0002 1620.0003,-882.0002"/>
<polygon fill="none" stroke="transparent" points="1656.0003,-954.0002 1512.0003,-954.0002 1512.0003,-882.0002 1656.0003,-882.0002 1656.0003,-954.0002"/>
<text text-anchor="middle" x="1584.0003" y="-914.3002" font-family="Times,serif" font-size="14.00" fill="#000000">ECOI24</text>
</g>
<!-- MATI02&#45;&gt;ECOI24 -->
<g id="edge66" class="edge">
<title>MATI02&#45;&gt;ECOI24</title>
<path fill="none" stroke="#850014" d="M86.4,-90.2253C86.4,-121.2668 86.4,-161 86.4,-161 86.4,-161 1470.8574,-161 1470.8574,-161 1470.8574,-161 1470.8574,-930 1470.8574,-930 1470.8574,-930 1501.7046,-930 1501.7046,-930"/>
<polygon fill="#850014" stroke="#850014" points="1501.7046,-933.5001 1511.7046,-930 1501.7046,-926.5001 1501.7046,-933.5001"/>
</g>
<!-- EPRI30 -->
<g id="node65" class="node">
<title>EPRI30</title>
<polygon fill="#2ecc71" stroke="transparent" stroke-width=".5" points="1512.0003,-450.0001 1656.0003,-450.0001 1656.0003,-522.0001 1512.0003,-522.0001 1512.0003,-450.0001"/>
<polygon fill="none" stroke="transparent" points="1656.0003,-522.0001 1512.0003,-522.0001 1512.0003,-450.0001 1656.0003,-450.0001 1656.0003,-522.0001"/>
<text text-anchor="middle" x="1584.0003" y="-482.3001" font-family="Times,serif" font-size="14.00" fill="#000000">EPRI30</text>
</g>
<!-- MATI02&#45;&gt;EPRI30 -->
<g id="edge69" class="edge">
<title>MATI02&#45;&gt;EPRI30</title>
<path fill="none" stroke="#850014" d="M115.2,-90.1636C115.2,-112.5303 115.2,-137 115.2,-137 115.2,-137 1584.0003,-137 1584.0003,-137 1584.0003,-137 1584.0003,-439.9654 1584.0003,-439.9654"/>
<polygon fill="#850014" stroke="#850014" points="1580.5004,-439.9654 1584.0003,-449.9654 1587.5004,-439.9654 1580.5004,-439.9654"/>
</g>
<!-- ECOI08 -->
<g id="node19" class="node">
<title>ECOI08</title>
<polygon fill="#2ecc71" stroke="transparent" stroke-width=".5" points="432.0001,-1746.0004 528.0001,-1746.0004 528.0001,-1818.0004 432.0001,-1818.0004 432.0001,-1746.0004"/>
<polygon fill="#9b59b6" stroke="transparent" stroke-width=".5" points="528.0001,-1746.0004 576.0001,-1746.0004 576.0001,-1818.0004 528.0001,-1818.0004 528.0001,-1746.0004"/>
<polygon fill="none" stroke="transparent" points="576.0001,-1818.0004 432.0001,-1818.0004 432.0001,-1746.0004 576.0001,-1746.0004 576.0001,-1818.0004"/>
<text text-anchor="middle" x="504.0001" y="-1778.3004" font-family="Times,serif" font-size="14.00" fill="#000000">ECOI08</text>
</g>
<!-- ECOI04&#45;&gt;ECOI08 -->
<g id="edge8" class="edge">
<title>ECOI04&#45;&gt;ECOI08</title>
<path fill="none" stroke="#fa253b" d="M360.2252,-1803C360.2252,-1803 421.8429,-1803 421.8429,-1803"/>
<polygon fill="#fa253b" stroke="#fa253b" points="421.843,-1806.5001 431.8429,-1803 421.8429,-1799.5001 421.843,-1806.5001"/>
</g>
<!-- ECOI09 -->
<g id="node28" class="node">
<title>ECOI09</title>
<polygon fill="#2ecc71" stroke="transparent" stroke-width=".5" points="648.0001,-1746.0004 792.0001,-1746.0004 792.0001,-1818.0004 648.0001,-1818.0004 648.0001,-1746.0004"/>
<polygon fill="none" stroke="transparent" points="792.0001,-1818.0004 648.0001,-1818.0004 648.0001,-1746.0004 792.0001,-1746.0004 792.0001,-1818.0004"/>
<text text-anchor="middle" x="720.0001" y="-1778.3004" font-family="Times,serif" font-size="14.00" fill="#000000">ECOI09</text>
</g>
<!-- ECOI04&#45;&gt;ECOI09 -->
<g id="edge19" class="edge">
<title>ECOI04&#45;&gt;ECOI09</title>
<path fill="none" stroke="#fa142b" d="M288,-1818.0189C288,-1827.9243 288,-1836 288,-1836 288,-1836 720.0001,-1836 720.0001,-1836 720.0001,-1836 720.0001,-1828.0189 720.0001,-1828.0189"/>
<polygon fill="#fa142b" stroke="#fa142b" points="723.5002,-1828.0189 720.0001,-1818.0189 716.5002,-1828.0189 723.5002,-1828.0189"/>
</g>
<!-- ECOI11 -->
<g id="node37" class="node">
<title>ECOI11</title>
<polygon fill="#9b59b6" stroke="transparent" stroke-width=".5" points="864.0002,-1314.0003 1008.0002,-1314.0003 1008.0002,-1386.0003 864.0002,-1386.0003 864.0002,-1314.0003"/>
<polygon fill="none" stroke="transparent" points="1008.0002,-1386.0003 864.0002,-1386.0003 864.0002,-1314.0003 1008.0002,-1314.0003 1008.0002,-1386.0003"/>
<text text-anchor="middle" x="936.0002" y="-1346.3003" font-family="Times,serif" font-size="14.00" fill="#000000">ECOI11</text>
</g>
<!-- ECOI04&#45;&gt;ECOI11 -->
<g id="edge29" class="edge">
<title>ECOI04&#45;&gt;ECOI11</title>
<path fill="none" stroke="#bd1c32" d="M360.1977,-1774C381.8694,-1774 400,-1774 400,-1774 400,-1774 400,-1434 400,-1434 400,-1434 936.0002,-1434 936.0002,-1434 936.0002,-1434 936.0002,-1396.1112 936.0002,-1396.1112"/>
<polygon fill="#bd1c32" stroke="#bd1c32" points="939.5003,-1396.1112 936.0002,-1386.1112 932.5003,-1396.1112 939.5003,-1396.1112"/>
</g>
<!-- ECAI11 -->
<g id="node52" class="node">
<title>ECAI11</title>
<polygon fill="#2ecc71" stroke="transparent" stroke-width=".5" points="1296.0003,-1530.0003 1332.0003,-1530.0003 1332.0003,-1602.0003 1296.0003,-1602.0003 1296.0003,-1530.0003"/>
<polygon fill="#e74c3c" stroke="transparent" stroke-width=".5" points="1332.0003,-1530.0003 1368.0003,-1530.0003 1368.0003,-1602.0003 1332.0003,-1602.0003 1332.0003,-1530.0003"/>
<polygon fill="#9b59b6" stroke="transparent" stroke-width=".5" points="1368.0003,-1530.0003 1404.0003,-1530.0003 1404.0003,-1602.0003 1368.0003,-1602.0003 1368.0003,-1530.0003"/>
<polygon fill="#bdc3c7" stroke="transparent" stroke-width=".5" points="1404.0003,-1530.0003 1440.0003,-1530.0003 1440.0003,-1602.0003 1404.0003,-1602.0003 1404.0003,-1530.0003"/>
<polygon fill="none" stroke="transparent" points="1440.0003,-1602.0003 1296.0003,-1602.0003 1296.0003,-1530.0003 1440.0003,-1530.0003 1440.0003,-1602.0003"/>
<text text-anchor="middle" x="1368.0003" y="-1562.3003" font-family="Times,serif" font-size="14.00" fill="#000000">ECAI11</text>
</g>
<!-- ECOI04&#45;&gt;ECAI11 -->
<g id="edge51" class="edge">
<title>ECOI04&#45;&gt;ECAI11</title>
<path fill="none" stroke="#af0019" d="M288,-1745.7615C288,-1709.4794 288,-1659 288,-1659 288,-1659 1344.0003,-1659 1344.0003,-1659 1344.0003,-1659 1344.0003,-1612.2227 1344.0003,-1612.2227"/>
<polygon fill="#af0019" stroke="#af0019" points="1347.5004,-1612.2227 1344.0003,-1602.2227 1340.5004,-1612.2228 1347.5004,-1612.2227"/>
</g>
<!-- ECOI04&#45;&gt;ECOI24 -->
<g id="edge65" class="edge">
<title>ECOI04&#45;&gt;ECOI24</title>
<path fill="none" stroke="#850014" d="M360.2697,-1760C373.9087,-1760 384,-1760 384,-1760 384,-1760 384,-1026 384,-1026 384,-1026 1584.0003,-1026 1584.0003,-1026 1584.0003,-1026 1584.0003,-964.263 1584.0003,-964.263"/>
<polygon fill="#850014" stroke="#850014" points="1587.5004,-964.2629 1584.0003,-954.263 1580.5004,-964.263 1587.5004,-964.2629"/>
</g>
<!-- ECOI22 -->
<g id="node68" class="node">
<title>ECOI22</title>
<polygon fill="#2ecc71" stroke="transparent" stroke-width=".5" points="1728.0004,-1314.0003 1764.0004,-1314.0003 1764.0004,-1386.0003 1728.0004,-1386.0003 1728.0004,-1314.0003"/>
<polygon fill="#e74c3c" stroke="transparent" stroke-width=".5" points="1764.0004,-1314.0003 1800.0004,-1314.0003 1800.0004,-1386.0003 1764.0004,-1386.0003 1764.0004,-1314.0003"/>
<polygon fill="#9b59b6" stroke="transparent" stroke-width=".5" points="1800.0004,-1314.0003 1836.0004,-1314.0003 1836.0004,-1386.0003 1800.0004,-1386.0003 1800.0004,-1314.0003"/>
<polygon fill="#bdc3c7" stroke="transparent" stroke-width=".5" points="1836.0004,-1314.0003 1872.0004,-1314.0003 1872.0004,-1386.0003 1836.0004,-1386.0003 1836.0004,-1314.0003"/>
<polygon fill="none" stroke="transparent" points="1872.0004,-1386.0003 1728.0004,-1386.0003 1728.0004,-1314.0003 1872.0004,-1314.0003 1872.0004,-1386.0003"/>
<text text-anchor="middle" x="1800.0004" y="-1346.3003" font-family="Times,serif" font-size="14.00" fill="#000000">ECOI22</text>
</g>
<!-- ECOI04&#45;&gt;ECOI22 -->
<g id="edge70" class="edge">
<title>ECOI04&#45;&gt;ECOI22</title>
<path fill="none" stroke="#840019" d="M360.2315,-1789C377.978,-1789 392,-1789 392,-1789 392,-1789 392,-1506 392,-1506 392,-1506 1800.0004,-1506 1800.0004,-1506 1800.0004,-1506 1800.0004,-1396.1818 1800.0004,-1396.1818"/>
<polygon fill="#840019" stroke="#840019" points="1803.5005,-1396.1818 1800.0004,-1386.1818 1796.5005,-1396.1819 1803.5005,-1396.1818"/>
</g>
<!-- EELI02 -->
<g id="node11" class="node">
<title>EELI02</title>
<polygon fill="#2ecc71" stroke="transparent" stroke-width=".5" points="216,-1530.0003 302.4,-1530.0003 302.4,-1602.0003 216,-1602.0003 216,-1530.0003"/>
<polygon fill="#e74c3c" stroke="transparent" stroke-width=".5" points="302.4,-1530.0003 360,-1530.0003 360,-1602.0003 302.4,-1602.0003 302.4,-1530.0003"/>
<polygon fill="none" stroke="transparent" points="360,-1602.0003 216,-1602.0003 216,-1530.0003 360,-1530.0003 360,-1602.0003"/>
<text text-anchor="middle" x="288" y="-1562.3003" font-family="Times,serif" font-size="14.00" fill="#000000">EELI02</text>
</g>
<!-- EELI03 -->
<g id="node12" class="node">
<title>EELI03</title>
<polygon fill="#2ecc71" stroke="transparent" stroke-width=".5" points="216,-1314.0003 360,-1314.0003 360,-1386.0003 216,-1386.0003 216,-1314.0003"/>
<polygon fill="none" stroke="transparent" points="360,-1386.0003 216,-1386.0003 216,-1314.0003 360,-1314.0003 360,-1386.0003"/>
<text text-anchor="middle" x="288" y="-1346.3003" font-family="Times,serif" font-size="14.00" fill="#000000">EELI03</text>
</g>
<!-- EELI02&#45;&gt;EELI03 -->
<g id="edge2" class="edge">
<title>EELI02&#45;&gt;EELI03</title>
<path fill="none" stroke="#000000" d="M252,-1529.8468C252,-1529.8468 252,-1396.2718 252,-1396.2718"/>
<polygon fill="#000000" stroke="#000000" points="255.5001,-1396.2717 252,-1386.2718 248.5001,-1396.2718 255.5001,-1396.2717"/>
</g>
<!-- ECOI12 -->
<g id="node38" class="node">
<title>ECOI12</title>
<polygon fill="#2ecc71" stroke="transparent" stroke-width=".5" points="864.0002,-1098.0002 912.0002,-1098.0002 912.0002,-1170.0002 864.0002,-1170.0002 864.0002,-1098.0002"/>
<polygon fill="#9b59b6" stroke="transparent" stroke-width=".5" points="912.0002,-1098.0002 1008.0002,-1098.0002 1008.0002,-1170.0002 912.0002,-1170.0002 912.0002,-1098.0002"/>
<polygon fill="none" stroke="transparent" points="1008.0002,-1170.0002 864.0002,-1170.0002 864.0002,-1098.0002 1008.0002,-1098.0002 1008.0002,-1170.0002"/>
<text text-anchor="middle" x="936.0002" y="-1130.3002" font-family="Times,serif" font-size="14.00" fill="#000000">ECOI12</text>
</g>
<!-- EELI02&#45;&gt;ECOI12 -->
<g id="edge30" class="edge">
<title>EELI02&#45;&gt;ECOI12</title>
<path fill="none" stroke="#bd1c32" d="M288,-1529.8186C288,-1483.7345 288,-1410 288,-1410 288,-1410 852.0002,-1410 852.0002,-1410 852.0002,-1410 852.0002,-1134 852.0002,-1134 852.0002,-1134 853.68,-1134 853.68,-1134"/>
<polygon fill="#bd1c32" stroke="#bd1c32" points="853.68,-1137.5001 863.68,-1134 853.68,-1130.5001 853.68,-1137.5001"/>
</g>
<!-- EELI14 -->
<g id="node49" class="node">
<title>EELI14</title>
<polygon fill="#2ecc71" stroke="transparent" stroke-width=".5" points="1080.0002,-450.0001 1116.0002,-450.0001 1116.0002,-522.0001 1080.0002,-522.0001 1080.0002,-450.0001"/>
<polygon fill="#e74c3c" stroke="transparent" stroke-width=".5" points="1116.0002,-450.0001 1152.0002,-450.0001 1152.0002,-522.0001 1116.0002,-522.0001 1116.0002,-450.0001"/>
<polygon fill="#9b59b6" stroke="transparent" stroke-width=".5" points="1152.0002,-450.0001 1188.0002,-450.0001 1188.0002,-522.0001 1152.0002,-522.0001 1152.0002,-450.0001"/>
<polygon fill="#bdc3c7" stroke="transparent" stroke-width=".5" points="1188.0002,-450.0001 1224.0002,-450.0001 1224.0002,-522.0001 1188.0002,-522.0001 1188.0002,-450.0001"/>
<polygon fill="none" stroke="transparent" points="1224.0002,-522.0001 1080.0002,-522.0001 1080.0002,-450.0001 1224.0002,-450.0001 1224.0002,-522.0001"/>
<text text-anchor="middle" x="1152.0002" y="-482.3001" font-family="Times,serif" font-size="14.00" fill="#000000">EELI14</text>
</g>
<!-- EELI02&#45;&gt;EELI14 -->
<g id="edge45" class="edge">
<title>EELI02&#45;&gt;EELI14</title>
<path fill="none" stroke="#bd0d25" d="M360.2674,-1554C369.6071,-1554 376,-1554 376,-1554 376,-1554 376,-618 376,-618 376,-618 1128.0002,-618 1128.0002,-618 1128.0002,-618 1128.0002,-532.0696 1128.0002,-532.0696"/>
<polygon fill="#bd0d25" stroke="#bd0d25" points="1131.5003,-532.0696 1128.0002,-522.0696 1124.5003,-532.0697 1131.5003,-532.0696"/>
</g>
<!-- EELI15 -->
<g id="node50" class="node">
<title>EELI15</title>
<polygon fill="#2ecc71" stroke="transparent" stroke-width=".5" points="1080.0002,-234 1116.0002,-234 1116.0002,-306 1080.0002,-306 1080.0002,-234"/>
<polygon fill="#e74c3c" stroke="transparent" stroke-width=".5" points="1116.0002,-234 1152.0002,-234 1152.0002,-306 1116.0002,-306 1116.0002,-234"/>
<polygon fill="#9b59b6" stroke="transparent" stroke-width=".5" points="1152.0002,-234 1188.0002,-234 1188.0002,-306 1152.0002,-306 1152.0002,-234"/>
<polygon fill="#bdc3c7" stroke="transparent" stroke-width=".5" points="1188.0002,-234 1224.0002,-234 1224.0002,-306 1188.0002,-306 1188.0002,-234"/>
<polygon fill="none" stroke="transparent" points="1224.0002,-306 1080.0002,-306 1080.0002,-234 1224.0002,-234 1224.0002,-306"/>
<text text-anchor="middle" x="1152.0002" y="-266.3" font-family="Times,serif" font-size="14.00" fill="#000000">EELI15</text>
</g>
<!-- EELI02&#45;&gt;EELI15 -->
<g id="edge47" class="edge">
<title>EELI02&#45;&gt;EELI15</title>
<path fill="none" stroke="#bd0d25" d="M324,-1529.8891C324,-1507.1222 324,-1482 324,-1482 324,-1482 1022.4002,-1482 1022.4002,-1482 1022.4002,-1482 1022.4002,-281 1022.4002,-281 1022.4002,-281 1069.9994,-281 1069.9994,-281"/>
<polygon fill="#bd0d25" stroke="#bd0d25" points="1069.9994,-284.5001 1079.9994,-281 1069.9993,-277.5001 1069.9994,-284.5001"/>
</g>
<!-- EMBI02 -->
<g id="node21" class="node">
<title>EMBI02</title>
<polygon fill="#2ecc71" stroke="transparent" stroke-width=".5" points="432.0001,-1314.0003 504.0001,-1314.0003 504.0001,-1386.0003 432.0001,-1386.0003 432.0001,-1314.0003"/>
<polygon fill="#9b59b6" stroke="transparent" stroke-width=".5" points="504.0001,-1314.0003 576.0001,-1314.0003 576.0001,-1386.0003 504.0001,-1386.0003 504.0001,-1314.0003"/>
<polygon fill="none" stroke="transparent" points="576.0001,-1386.0003 432.0001,-1386.0003 432.0001,-1314.0003 576.0001,-1314.0003 576.0001,-1386.0003"/>
<text text-anchor="middle" x="504.0001" y="-1346.3003" font-family="Times,serif" font-size="14.00" fill="#000000">EMBI02</text>
</g>
<!-- EMEI06&#45;&gt;EMBI02 -->
<g id="edge10" class="edge">
<title>EMEI06&#45;&gt;EMBI02</title>
<path fill="none" stroke="#fa253b" d="M360.3801,-1134C392.8591,-1134 424,-1134 424,-1134 424,-1134 424,-1350 424,-1350 424,-1350 424.7964,-1350 424.7964,-1350"/>
<polygon fill="#fa253b" stroke="#fa253b" points="421.9633,-1353.5001 431.9632,-1350 421.9632,-1346.5001 421.9633,-1353.5001"/>
</g>
<!-- EMTI02 -->
<g id="node14" class="node">
<title>EMTI02</title>
<polygon fill="#2ecc71" stroke="transparent" stroke-width=".5" points="216,-882.0002 331.2,-882.0002 331.2,-954.0002 216,-954.0002 216,-882.0002"/>
<polygon fill="#e74c3c" stroke="transparent" stroke-width=".5" points="331.2,-882.0002 360,-882.0002 360,-954.0002 331.2,-954.0002 331.2,-882.0002"/>
<polygon fill="none" stroke="transparent" points="360,-954.0002 216,-954.0002 216,-882.0002 360,-882.0002 360,-954.0002"/>
<text text-anchor="middle" x="288" y="-914.3002" font-family="Times,serif" font-size="14.00" fill="#000000">EMTI02</text>
</g>
<!-- EMTI03 -->
<g id="node15" class="node">
<title>EMTI03</title>
<polygon fill="#2ecc71" stroke="transparent" stroke-width=".5" points="216,-666.0001 360,-666.0001 360,-738.0001 216,-738.0001 216,-666.0001"/>
<polygon fill="none" stroke="transparent" points="360,-738.0001 216,-738.0001 216,-666.0001 360,-666.0001 360,-738.0001"/>
<text text-anchor="middle" x="288" y="-698.3001" font-family="Times,serif" font-size="14.00" fill="#000000">EMTI03</text>
</g>
<!-- EMTI02&#45;&gt;EMTI03 -->
<g id="edge5" class="edge">
<title>EMTI02&#45;&gt;EMTI03</title>
<path fill="none" stroke="#000000" d="M288,-881.8466C288,-881.8466 288,-748.2716 288,-748.2716"/>
<polygon fill="#000000" stroke="#000000" points="291.5001,-748.2716 288,-738.2716 284.5001,-748.2716 291.5001,-748.2716"/>
</g>
<!-- FISI02 -->
<g id="node16" class="node">
<title>FISI02</title>
<polygon fill="#2ecc71" stroke="transparent" stroke-width=".5" points="216,-450.0001 312,-450.0001 312,-522.0001 216,-522.0001 216,-450.0001"/>
<polygon fill="#e74c3c" stroke="transparent" stroke-width=".5" points="312,-450.0001 360,-450.0001 360,-522.0001 312,-522.0001 312,-450.0001"/>
<polygon fill="none" stroke="transparent" points="360,-522.0001 216,-522.0001 216,-450.0001 360,-450.0001 360,-522.0001"/>
<text text-anchor="middle" x="288" y="-482.3001" font-family="Times,serif" font-size="14.00" fill="#000000">FISI02</text>
</g>
<!-- FISI03 -->
<g id="node17" class="node">
<title>FISI03</title>
<polygon fill="#2ecc71" stroke="transparent" stroke-width=".5" points="216,-234 360,-234 360,-306 216,-306 216,-234"/>
<polygon fill="none" stroke="transparent" points="360,-306 216,-306 216,-234 360,-234 360,-306"/>
<text text-anchor="middle" x="288" y="-266.3" font-family="Times,serif" font-size="14.00" fill="#000000">FISI03</text>
</g>
<!-- FISI02&#45;&gt;FISI03 -->
<g id="edge6" class="edge">
<title>FISI02&#45;&gt;FISI03</title>
<path fill="none" stroke="#000000" d="M288,-449.8465C288,-449.8465 288,-316.2715 288,-316.2715"/>
<polygon fill="#000000" stroke="#000000" points="291.5001,-316.2715 288,-306.2715 284.5001,-316.2715 291.5001,-316.2715"/>
</g>
<!-- FISI04 -->
<g id="node24" class="node">
<title>FISI04</title>
<polygon fill="#2ecc71" stroke="transparent" stroke-width=".5" points="432.0001,-666.0001 547.2001,-666.0001 547.2001,-738.0001 432.0001,-738.0001 432.0001,-666.0001"/>
<polygon fill="#e74c3c" stroke="transparent" stroke-width=".5" points="547.2001,-666.0001 576.0001,-666.0001 576.0001,-738.0001 547.2001,-738.0001 547.2001,-666.0001"/>
<polygon fill="none" stroke="transparent" points="576.0001,-738.0001 432.0001,-738.0001 432.0001,-666.0001 576.0001,-666.0001 576.0001,-738.0001"/>
<text text-anchor="middle" x="504.0001" y="-698.3001" font-family="Times,serif" font-size="14.00" fill="#000000">FISI04</text>
</g>
<!-- MATI03&#45;&gt;FISI04 -->
<g id="edge12" class="edge">
<title>MATI03&#45;&gt;FISI04</title>
<path fill="none" stroke="#fa253b" d="M360.228,-71C385.6424,-71 408,-71 408,-71 408,-71 408,-702 408,-702 408,-702 421.7304,-702 421.7304,-702"/>
<polygon fill="#fa253b" stroke="#fa253b" points="421.7304,-705.5001 431.7304,-702 421.7303,-698.5001 421.7304,-705.5001"/>
</g>
<!-- MATI03&#45;&gt;MATI06 -->
<g id="edge15" class="edge">
<title>MATI03&#45;&gt;MATI06</title>
<path fill="none" stroke="#fa253b" d="M360.2297,-53C389.2637,-53 416,-53 416,-53 416,-53 416,-269 416,-269 416,-269 421.7327,-269 421.7327,-269"/>
<polygon fill="#fa253b" stroke="#fa253b" points="421.7327,-272.5001 431.7327,-269 421.7326,-265.5001 421.7327,-272.5001"/>
</g>
<!-- MATI03&#45;&gt;MATI07 -->
<g id="edge17" class="edge">
<title>MATI03&#45;&gt;MATI07</title>
<path fill="none" stroke="#fa253b" d="M360.2252,-35C360.2252,-35 421.8429,-35 421.8429,-35"/>
<polygon fill="#fa253b" stroke="#fa253b" points="421.843,-38.5001 431.8429,-35 421.8429,-31.5001 421.843,-38.5001"/>
</g>
<!-- MATI03&#45;&gt;MATI08 -->
<g id="edge25" class="edge">
<title>MATI03&#45;&gt;MATI08</title>
<path fill="none" stroke="#fa142b" d="M288,-90.0201C288,-102.3039 288,-113 288,-113 288,-113 734.4001,-113 734.4001,-113 734.4001,-113 734.4001,-439.8963 734.4001,-439.8963"/>
<polygon fill="#fa142b" stroke="#fa142b" points="730.9002,-439.8963 734.4001,-449.8963 737.9002,-439.8964 730.9002,-439.8963"/>
</g>
<!-- ECOI61&#45;&gt;HUMI06 -->
<g id="edge14" class="edge">
<title>ECOI61&#45;&gt;HUMI06</title>
<path fill="none" stroke="#000000" d="M431.6199,-1578C399.1409,-1578 368,-1578 368,-1578 368,-1578 368,-486 368,-486 368,-486 421.6199,-486 421.6199,-486"/>
<polygon fill="#000000" stroke="#000000" points="421.6199,-489.5001 431.6199,-486 421.6199,-482.5001 421.6199,-489.5001"/>
</g>
<!-- EMEI07 -->
<g id="node22" class="node">
<title>EMEI07</title>
<polygon fill="#2ecc71" stroke="transparent" stroke-width=".5" points="432.0001,-1098.0002 489.6001,-1098.0002 489.6001,-1170.0002 432.0001,-1170.0002 432.0001,-1098.0002"/>
<polygon fill="#e74c3c" stroke="transparent" stroke-width=".5" points="489.6001,-1098.0002 547.2001,-1098.0002 547.2001,-1170.0002 489.6001,-1170.0002 489.6001,-1098.0002"/>
<polygon fill="#9b59b6" stroke="transparent" stroke-width=".5" points="547.2001,-1098.0002 576.0001,-1098.0002 576.0001,-1170.0002 547.2001,-1170.0002 547.2001,-1098.0002"/>
<polygon fill="none" stroke="transparent" points="576.0001,-1170.0002 432.0001,-1170.0002 432.0001,-1098.0002 576.0001,-1098.0002 576.0001,-1170.0002"/>
<text text-anchor="middle" x="504.0001" y="-1130.3002" font-family="Times,serif" font-size="14.00" fill="#000000">EMEI07</text>
</g>
<!-- EMEI08 -->
<g id="node23" class="node">
<title>EMEI08</title>
<polygon fill="#2ecc71" stroke="transparent" stroke-width=".5" points="432.0001,-882.0002 528.0001,-882.0002 528.0001,-954.0002 432.0001,-954.0002 432.0001,-882.0002"/>
<polygon fill="#9b59b6" stroke="transparent" stroke-width=".5" points="528.0001,-882.0002 576.0001,-882.0002 576.0001,-954.0002 528.0001,-954.0002 528.0001,-882.0002"/>
<polygon fill="none" stroke="transparent" points="576.0001,-954.0002 432.0001,-954.0002 432.0001,-882.0002 576.0001,-882.0002 576.0001,-954.0002"/>
<text text-anchor="middle" x="504.0001" y="-914.3002" font-family="Times,serif" font-size="14.00" fill="#000000">EMEI08</text>
</g>
<!-- EMEI07&#45;&gt;EMEI08 -->
<g id="edge11" class="edge">
<title>EMEI07&#45;&gt;EMEI08</title>
<path fill="none" stroke="#000000" d="M504.0001,-1097.8467C504.0001,-1097.8467 504.0001,-964.2717 504.0001,-964.2717"/>
<polygon fill="#000000" stroke="#000000" points="507.5002,-964.2716 504.0001,-954.2717 500.5002,-964.2717 507.5002,-964.2716"/>
</g>
<!-- FISI07 -->
<g id="node31" class="node">
<title>FISI07</title>
<polygon fill="#2ecc71" stroke="transparent" stroke-width=".5" points="648.0001,-1098.0002 684.0001,-1098.0002 684.0001,-1170.0002 648.0001,-1170.0002 648.0001,-1098.0002"/>
<polygon fill="#e74c3c" stroke="transparent" stroke-width=".5" points="684.0001,-1098.0002 720.0001,-1098.0002 720.0001,-1170.0002 684.0001,-1170.0002 684.0001,-1098.0002"/>
<polygon fill="#9b59b6" stroke="transparent" stroke-width=".5" points="720.0001,-1098.0002 756.0001,-1098.0002 756.0001,-1170.0002 720.0001,-1170.0002 720.0001,-1098.0002"/>
<polygon fill="#bdc3c7" stroke="transparent" stroke-width=".5" points="756.0001,-1098.0002 792.0001,-1098.0002 792.0001,-1170.0002 756.0001,-1170.0002 756.0001,-1098.0002"/>
<polygon fill="none" stroke="transparent" points="792.0001,-1170.0002 648.0001,-1170.0002 648.0001,-1098.0002 792.0001,-1098.0002 792.0001,-1170.0002"/>
<text text-anchor="middle" x="720.0001" y="-1130.3002" font-family="Times,serif" font-size="14.00" fill="#000000">FISI07</text>
</g>
<!-- FISI04&#45;&gt;FISI07 -->
<g id="edge20" class="edge">
<title>FISI04&#45;&gt;FISI07</title>
<path fill="none" stroke="#fa142b" d="M576.0376,-702C595.8485,-702 612.0001,-702 612.0001,-702 612.0001,-702 612.0001,-1134 612.0001,-1134 612.0001,-1134 637.9625,-1134 637.9625,-1134"/>
<polygon fill="#fa142b" stroke="#fa142b" points="637.9626,-1137.5001 647.9625,-1134 637.9625,-1130.5001 637.9626,-1137.5001"/>
</g>
<!-- MATI07&#45;&gt;MATI08 -->
<g id="edge26" class="edge">
<title>MATI07&#45;&gt;MATI08</title>
<path fill="none" stroke="#fa142b" d="M576.2017,-65C652.8969,-65 763.2001,-65 763.2001,-65 763.2001,-65 763.2001,-439.7414 763.2001,-439.7414"/>
<polygon fill="#fa142b" stroke="#fa142b" points="759.7002,-439.7414 763.2001,-449.7414 766.7002,-439.7415 759.7002,-439.7414"/>
</g>
<!-- ECAI26 -->
<g id="node35" class="node">
<title>ECAI26</title>
<polygon fill="#2ecc71" stroke="transparent" stroke-width=".5" points="864.0002,-1746.0004 936.0002,-1746.0004 936.0002,-1818.0004 864.0002,-1818.0004 864.0002,-1746.0004"/>
<polygon fill="#9b59b6" stroke="transparent" stroke-width=".5" points="936.0002,-1746.0004 1008.0002,-1746.0004 1008.0002,-1818.0004 936.0002,-1818.0004 936.0002,-1746.0004"/>
<polygon fill="none" stroke="transparent" points="1008.0002,-1818.0004 864.0002,-1818.0004 864.0002,-1746.0004 1008.0002,-1746.0004 1008.0002,-1818.0004"/>
<text text-anchor="middle" x="936.0002" y="-1778.3004" font-family="Times,serif" font-size="14.00" fill="#000000">ECAI26</text>
</g>
<!-- MATI07&#45;&gt;ECAI26 -->
<g id="edge27" class="edge">
<title>MATI07&#45;&gt;ECAI26</title>
<path fill="none" stroke="#bd1c32" d="M576.2393,-41C665.009,-41 804.0001,-41 804.0001,-41 804.0001,-41 804.0001,-1782 804.0001,-1782 804.0001,-1782 853.8207,-1782 853.8207,-1782"/>
<polygon fill="#bd1c32" stroke="#bd1c32" points="853.8207,-1785.5001 863.8207,-1782 853.8207,-1778.5001 853.8207,-1785.5001"/>
</g>
<!-- ECOI26 -->
<g id="node64" class="node">
<title>ECOI26</title>
<polygon fill="#2ecc71" stroke="transparent" stroke-width=".5" points="1512.0003,-666.0001 1548.0003,-666.0001 1548.0003,-738.0001 1512.0003,-738.0001 1512.0003,-666.0001"/>
<polygon fill="#e74c3c" stroke="transparent" stroke-width=".5" points="1548.0003,-666.0001 1584.0003,-666.0001 1584.0003,-738.0001 1548.0003,-738.0001 1548.0003,-666.0001"/>
<polygon fill="#9b59b6" stroke="transparent" stroke-width=".5" points="1584.0003,-666.0001 1620.0003,-666.0001 1620.0003,-738.0001 1584.0003,-738.0001 1584.0003,-666.0001"/>
<polygon fill="#bdc3c7" stroke="transparent" stroke-width=".5" points="1620.0003,-666.0001 1656.0003,-666.0001 1656.0003,-738.0001 1620.0003,-738.0001 1620.0003,-666.0001"/>
<polygon fill="none" stroke="transparent" points="1656.0003,-738.0001 1512.0003,-738.0001 1512.0003,-666.0001 1656.0003,-666.0001 1656.0003,-738.0001"/>
<text text-anchor="middle" x="1584.0003" y="-698.3001" font-family="Times,serif" font-size="14.00" fill="#000000">ECOI26</text>
</g>
<!-- ECOI09&#45;&gt;ECOI26 -->
<g id="edge67" class="edge">
<title>ECOI09&#45;&gt;ECOI26</title>
<path fill="none" stroke="#850014" d="M744.0001,-1745.9262C744.0001,-1719.4176 744.0001,-1688 744.0001,-1688 744.0001,-1688 1491.4289,-1688 1491.4289,-1688 1491.4289,-1688 1491.4289,-714 1491.4289,-714 1491.4289,-714 1501.9735,-714 1501.9735,-714"/>
<polygon fill="#850014" stroke="#850014" points="1501.9735,-717.5001 1511.9735,-714 1501.9734,-710.5001 1501.9735,-717.5001"/>
</g>
<!-- EELI07 -->
<g id="node29" class="node">
<title>EELI07</title>
<polygon fill="#2ecc71" stroke="transparent" stroke-width=".5" points="648.0001,-1530.0003 705.6001,-1530.0003 705.6001,-1602.0003 648.0001,-1602.0003 648.0001,-1530.0003"/>
<polygon fill="#e74c3c" stroke="transparent" stroke-width=".5" points="705.6001,-1530.0003 792.0001,-1530.0003 792.0001,-1602.0003 705.6001,-1602.0003 705.6001,-1530.0003"/>
<polygon fill="none" stroke="transparent" points="792.0001,-1602.0003 648.0001,-1602.0003 648.0001,-1530.0003 792.0001,-1530.0003 792.0001,-1602.0003"/>
<text text-anchor="middle" x="720.0001" y="-1562.3003" font-family="Times,serif" font-size="14.00" fill="#000000">EELI07</text>
</g>
<!-- ECOI10 -->
<g id="node36" class="node">
<title>ECOI10</title>
<polygon fill="#2ecc71" stroke="transparent" stroke-width=".5" points="864.0002,-1530.0003 900.0002,-1530.0003 900.0002,-1602.0003 864.0002,-1602.0003 864.0002,-1530.0003"/>
<polygon fill="#e74c3c" stroke="transparent" stroke-width=".5" points="900.0002,-1530.0003 936.0002,-1530.0003 936.0002,-1602.0003 900.0002,-1602.0003 900.0002,-1530.0003"/>
<polygon fill="#9b59b6" stroke="transparent" stroke-width=".5" points="936.0002,-1530.0003 972.0002,-1530.0003 972.0002,-1602.0003 936.0002,-1602.0003 936.0002,-1530.0003"/>
<polygon fill="#bdc3c7" stroke="transparent" stroke-width=".5" points="972.0002,-1530.0003 1008.0002,-1530.0003 1008.0002,-1602.0003 972.0002,-1602.0003 972.0002,-1530.0003"/>
<polygon fill="none" stroke="transparent" points="1008.0002,-1602.0003 864.0002,-1602.0003 864.0002,-1530.0003 1008.0002,-1530.0003 1008.0002,-1602.0003"/>
<text text-anchor="middle" x="936.0002" y="-1562.3003" font-family="Times,serif" font-size="14.00" fill="#000000">ECOI10</text>
</g>
<!-- EELI07&#45;&gt;ECOI10 -->
<g id="edge28" class="edge">
<title>EELI07&#45;&gt;ECOI10</title>
<path fill="none" stroke="#bd1c32" d="M792.2253,-1584C792.2253,-1584 853.843,-1584 853.843,-1584"/>
<polygon fill="#bd1c32" stroke="#bd1c32" points="853.8431,-1587.5001 863.843,-1584 853.843,-1580.5001 853.8431,-1587.5001"/>
</g>
<!-- EELI10 -->
<g id="node40" class="node">
<title>EELI10</title>
<polygon fill="#2ecc71" stroke="transparent" stroke-width=".5" points="864.0002,-666.0001 1008.0002,-666.0001 1008.0002,-738.0001 864.0002,-738.0001 864.0002,-666.0001"/>
<polygon fill="none" stroke="transparent" points="1008.0002,-738.0001 864.0002,-738.0001 864.0002,-666.0001 1008.0002,-666.0001 1008.0002,-738.0001"/>
<text text-anchor="middle" x="936.0002" y="-698.3001" font-family="Times,serif" font-size="14.00" fill="#000000">EELI10</text>
</g>
<!-- EELI07&#45;&gt;EELI10 -->
<g id="edge31" class="edge">
<title>EELI07&#45;&gt;EELI10</title>
<path fill="none" stroke="#bd1c32" d="M792.2282,-1566C817.6425,-1566 840.0002,-1566 840.0002,-1566 840.0002,-1566 840.0002,-702 840.0002,-702 840.0002,-702 853.7305,-702 853.7305,-702"/>
<polygon fill="#bd1c32" stroke="#bd1c32" points="853.7305,-705.5001 863.7305,-702 853.7305,-698.5001 853.7305,-705.5001"/>
</g>
<!-- EELI11 -->
<g id="node41" class="node">
<title>EELI11</title>
<polygon fill="#2ecc71" stroke="transparent" stroke-width=".5" points="864.0002,-450.0001 1008.0002,-450.0001 1008.0002,-522.0001 864.0002,-522.0001 864.0002,-450.0001"/>
<polygon fill="none" stroke="transparent" points="1008.0002,-522.0001 864.0002,-522.0001 864.0002,-450.0001 1008.0002,-450.0001 1008.0002,-522.0001"/>
<text text-anchor="middle" x="936.0002" y="-482.3001" font-family="Times,serif" font-size="14.00" fill="#000000">EELI11</text>
</g>
<!-- EELI07&#45;&gt;EELI11 -->
<g id="edge32" class="edge">
<title>EELI07&#45;&gt;EELI11</title>
<path fill="none" stroke="#bd1c32" d="M792.2698,-1548C805.9088,-1548 816.0001,-1548 816.0001,-1548 816.0001,-1548 816.0001,-486 816.0001,-486 816.0001,-486 853.7721,-486 853.7721,-486"/>
<polygon fill="#bd1c32" stroke="#bd1c32" points="853.7722,-489.5001 863.7721,-486 853.7721,-482.5001 853.7722,-489.5001"/>
</g>
<!-- ECAI29 -->
<g id="node43" class="node">
<title>ECAI29</title>
<polygon fill="#2ecc71" stroke="transparent" stroke-width=".5" points="1080.0002,-1746.0004 1116.0002,-1746.0004 1116.0002,-1818.0004 1080.0002,-1818.0004 1080.0002,-1746.0004"/>
<polygon fill="#e74c3c" stroke="transparent" stroke-width=".5" points="1116.0002,-1746.0004 1152.0002,-1746.0004 1152.0002,-1818.0004 1116.0002,-1818.0004 1116.0002,-1746.0004"/>
<polygon fill="#9b59b6" stroke="transparent" stroke-width=".5" points="1152.0002,-1746.0004 1188.0002,-1746.0004 1188.0002,-1818.0004 1152.0002,-1818.0004 1152.0002,-1746.0004"/>
<polygon fill="#bdc3c7" stroke="transparent" stroke-width=".5" points="1188.0002,-1746.0004 1224.0002,-1746.0004 1224.0002,-1818.0004 1188.0002,-1818.0004 1188.0002,-1746.0004"/>
<polygon fill="none" stroke="transparent" points="1224.0002,-1818.0004 1080.0002,-1818.0004 1080.0002,-1746.0004 1224.0002,-1746.0004 1224.0002,-1818.0004"/>
<text text-anchor="middle" x="1152.0002" y="-1778.3004" font-family="Times,serif" font-size="14.00" fill="#000000">ECAI29</text>
</g>
<!-- EELI07&#45;&gt;ECAI29 -->
<g id="edge35" class="edge">
<title>EELI07&#45;&gt;ECAI29</title>
<path fill="none" stroke="#bd0d25" d="M696.0001,-1602.1685C696.0001,-1646.8404 696.0001,-1717 696.0001,-1717 696.0001,-1717 1152.0002,-1717 1152.0002,-1717 1152.0002,-1717 1152.0002,-1735.6993 1152.0002,-1735.6993"/>
<polygon fill="#bd0d25" stroke="#bd0d25" points="1148.5003,-1735.6993 1152.0002,-1745.6993 1155.5003,-1735.6993 1148.5003,-1735.6993"/>
</g>
<!-- FISI05 -->
<g id="node30" class="node">
<title>FISI05</title>
<polygon fill="#2ecc71" stroke="transparent" stroke-width=".5" points="648.0001,-1314.0003 792.0001,-1314.0003 792.0001,-1386.0003 648.0001,-1386.0003 648.0001,-1314.0003"/>
<polygon fill="none" stroke="transparent" points="792.0001,-1386.0003 648.0001,-1386.0003 648.0001,-1314.0003 792.0001,-1314.0003 792.0001,-1386.0003"/>
<text text-anchor="middle" x="720.0001" y="-1346.3003" font-family="Times,serif" font-size="14.00" fill="#000000">FISI05</text>
</g>
<!-- ECAI04 -->
<g id="node51" class="node">
<title>ECAI04</title>
<polygon fill="#2ecc71" stroke="transparent" stroke-width=".5" points="1296.0003,-1746.0004 1332.0003,-1746.0004 1332.0003,-1818.0004 1296.0003,-1818.0004 1296.0003,-1746.0004"/>
<polygon fill="#e74c3c" stroke="transparent" stroke-width=".5" points="1332.0003,-1746.0004 1368.0003,-1746.0004 1368.0003,-1818.0004 1332.0003,-1818.0004 1332.0003,-1746.0004"/>
<polygon fill="#9b59b6" stroke="transparent" stroke-width=".5" points="1368.0003,-1746.0004 1404.0003,-1746.0004 1404.0003,-1818.0004 1368.0003,-1818.0004 1368.0003,-1746.0004"/>
<polygon fill="#bdc3c7" stroke="transparent" stroke-width=".5" points="1404.0003,-1746.0004 1440.0003,-1746.0004 1440.0003,-1818.0004 1404.0003,-1818.0004 1404.0003,-1746.0004"/>
<polygon fill="none" stroke="transparent" points="1440.0003,-1818.0004 1296.0003,-1818.0004 1296.0003,-1746.0004 1440.0003,-1746.0004 1440.0003,-1818.0004"/>
<text text-anchor="middle" x="1368.0003" y="-1778.3004" font-family="Times,serif" font-size="14.00" fill="#000000">ECAI04</text>
</g>
<!-- MATI04&#45;&gt;ECAI04 -->
<g id="edge50" class="edge">
<title>MATI04&#45;&gt;ECAI04</title>
<path fill="none" stroke="#af0019" d="M792.0377,-918C811.8486,-918 828.0002,-918 828.0002,-918 828.0002,-918 828.0002,-1630 828.0002,-1630 828.0002,-1630 1392.0003,-1630 1392.0003,-1630 1392.0003,-1630 1392.0003,-1735.9784 1392.0003,-1735.9784"/>
<polygon fill="#af0019" stroke="#af0019" points="1388.5004,-1735.9784 1392.0003,-1745.9784 1395.5004,-1735.9784 1388.5004,-1735.9784"/>
</g>
<!-- ECAI26&#45;&gt;ECAI29 -->
<g id="edge34" class="edge">
<title>ECAI26&#45;&gt;ECAI29</title>
<path fill="none" stroke="#bd0d25" d="M1008.2254,-1800C1008.2254,-1800 1069.8431,-1800 1069.8431,-1800"/>
<polygon fill="#bd0d25" stroke="#bd0d25" points="1069.8431,-1803.5001 1079.8431,-1800 1069.8431,-1796.5001 1069.8431,-1803.5001"/>
</g>
<!-- EELI12 -->
<g id="node47" class="node">
<title>EELI12</title>
<polygon fill="#2ecc71" stroke="transparent" stroke-width=".5" points="1080.0002,-882.0002 1116.0002,-882.0002 1116.0002,-954.0002 1080.0002,-954.0002 1080.0002,-882.0002"/>
<polygon fill="#e74c3c" stroke="transparent" stroke-width=".5" points="1116.0002,-882.0002 1152.0002,-882.0002 1152.0002,-954.0002 1116.0002,-954.0002 1116.0002,-882.0002"/>
<polygon fill="#9b59b6" stroke="transparent" stroke-width=".5" points="1152.0002,-882.0002 1188.0002,-882.0002 1188.0002,-954.0002 1152.0002,-954.0002 1152.0002,-882.0002"/>
<polygon fill="#bdc3c7" stroke="transparent" stroke-width=".5" points="1188.0002,-882.0002 1224.0002,-882.0002 1224.0002,-954.0002 1188.0002,-954.0002 1188.0002,-882.0002"/>
<polygon fill="none" stroke="transparent" points="1224.0002,-954.0002 1080.0002,-954.0002 1080.0002,-882.0002 1224.0002,-882.0002 1224.0002,-954.0002"/>
<text text-anchor="middle" x="1152.0002" y="-914.3002" font-family="Times,serif" font-size="14.00" fill="#000000">EELI12</text>
</g>
<!-- ECAI26&#45;&gt;EELI12 -->
<g id="edge40" class="edge">
<title>ECAI26&#45;&gt;EELI12</title>
<path fill="none" stroke="#bd0d25" d="M1008.0378,-1782C1027.8486,-1782 1044.0002,-1782 1044.0002,-1782 1044.0002,-1782 1044.0002,-936 1044.0002,-936 1044.0002,-936 1069.9626,-936 1069.9626,-936"/>
<polygon fill="#bd0d25" stroke="#bd0d25" points="1069.9627,-939.5001 1079.9626,-936 1069.9626,-932.5001 1069.9627,-939.5001"/>
</g>
<!-- EELI13 -->
<g id="node48" class="node">
<title>EELI13</title>
<polygon fill="#2ecc71" stroke="transparent" stroke-width=".5" points="1080.0002,-666.0001 1116.0002,-666.0001 1116.0002,-738.0001 1080.0002,-738.0001 1080.0002,-666.0001"/>
<polygon fill="#e74c3c" stroke="transparent" stroke-width=".5" points="1116.0002,-666.0001 1152.0002,-666.0001 1152.0002,-738.0001 1116.0002,-738.0001 1116.0002,-666.0001"/>
<polygon fill="#9b59b6" stroke="transparent" stroke-width=".5" points="1152.0002,-666.0001 1188.0002,-666.0001 1188.0002,-738.0001 1152.0002,-738.0001 1152.0002,-666.0001"/>
<polygon fill="#bdc3c7" stroke="transparent" stroke-width=".5" points="1188.0002,-666.0001 1224.0002,-666.0001 1224.0002,-738.0001 1188.0002,-738.0001 1188.0002,-666.0001"/>
<polygon fill="none" stroke="transparent" points="1224.0002,-738.0001 1080.0002,-738.0001 1080.0002,-666.0001 1224.0002,-666.0001 1224.0002,-738.0001"/>
<text text-anchor="middle" x="1152.0002" y="-698.3001" font-family="Times,serif" font-size="14.00" fill="#000000">EELI13</text>
</g>
<!-- ECAI26&#45;&gt;EELI13 -->
<g id="edge41" class="edge">
<title>ECAI26&#45;&gt;EELI13</title>
<path fill="none" stroke="#bd0d25" d="M1008.1846,-1764C1024.3417,-1764 1036.8002,-1764 1036.8002,-1764 1036.8002,-1764 1036.8002,-727 1036.8002,-727 1036.8002,-727 1069.6964,-727 1069.6964,-727"/>
<polygon fill="#bd0d25" stroke="#bd0d25" points="1069.6965,-730.5001 1079.6964,-727 1069.6964,-723.5001 1069.6965,-730.5001"/>
</g>
<!-- ECOI23 -->
<g id="node69" class="node">
<title>ECOI23</title>
<polygon fill="#2ecc71" stroke="transparent" stroke-width=".5" points="1728.0004,-1098.0002 1764.0004,-1098.0002 1764.0004,-1170.0002 1728.0004,-1170.0002 1728.0004,-1098.0002"/>
<polygon fill="#e74c3c" stroke="transparent" stroke-width=".5" points="1764.0004,-1098.0002 1800.0004,-1098.0002 1800.0004,-1170.0002 1764.0004,-1170.0002 1764.0004,-1098.0002"/>
<polygon fill="#9b59b6" stroke="transparent" stroke-width=".5" points="1800.0004,-1098.0002 1836.0004,-1098.0002 1836.0004,-1170.0002 1800.0004,-1170.0002 1800.0004,-1098.0002"/>
<polygon fill="#bdc3c7" stroke="transparent" stroke-width=".5" points="1836.0004,-1098.0002 1872.0004,-1098.0002 1872.0004,-1170.0002 1836.0004,-1170.0002 1836.0004,-1098.0002"/>
<polygon fill="none" stroke="transparent" points="1872.0004,-1170.0002 1728.0004,-1170.0002 1728.0004,-1098.0002 1872.0004,-1098.0002 1872.0004,-1170.0002"/>
<text text-anchor="middle" x="1800.0004" y="-1130.3002" font-family="Times,serif" font-size="14.00" fill="#000000">ECOI23</text>
</g>
<!-- ECOI12&#45;&gt;ECOI23 -->
<g id="edge73" class="edge">
<title>ECOI12&#45;&gt;ECOI23</title>
<path fill="none" stroke="#840019" d="M936.0002,-1098.0001C936.0002,-1080.0001 936.0002,-1062 936.0002,-1062 936.0002,-1062 1800.0004,-1062 1800.0004,-1062 1800.0004,-1062 1800.0004,-1088.0001 1800.0004,-1088.0001"/>
<polygon fill="#840019" stroke="#840019" points="1796.5005,-1088.0001 1800.0004,-1098.0001 1803.5005,-1088.0001 1796.5005,-1088.0001"/>
</g>
<!-- ECOI14 -->
<g id="node39" class="node">
<title>ECOI14</title>
<polygon fill="#2ecc71" stroke="transparent" stroke-width=".5" points="864.0002,-882.0002 921.6002,-882.0002 921.6002,-954.0002 864.0002,-954.0002 864.0002,-882.0002"/>
<polygon fill="#e74c3c" stroke="transparent" stroke-width=".5" points="921.6002,-882.0002 950.4002,-882.0002 950.4002,-954.0002 921.6002,-954.0002 921.6002,-882.0002"/>
<polygon fill="#9b59b6" stroke="transparent" stroke-width=".5" points="950.4002,-882.0002 1008.0002,-882.0002 1008.0002,-954.0002 950.4002,-954.0002 950.4002,-882.0002"/>
<polygon fill="none" stroke="transparent" points="1008.0002,-954.0002 864.0002,-954.0002 864.0002,-882.0002 1008.0002,-882.0002 1008.0002,-954.0002"/>
<text text-anchor="middle" x="936.0002" y="-914.3002" font-family="Times,serif" font-size="14.00" fill="#000000">ECOI14</text>
</g>
<!-- ECOI16 -->
<g id="node45" class="node">
<title>ECOI16</title>
<polygon fill="#2ecc71" stroke="transparent" stroke-width=".5" points="1080.0002,-1314.0003 1224.0002,-1314.0003 1224.0002,-1386.0003 1080.0002,-1386.0003 1080.0002,-1314.0003"/>
<polygon fill="none" stroke="transparent" points="1224.0002,-1386.0003 1080.0002,-1386.0003 1080.0002,-1314.0003 1224.0002,-1314.0003 1224.0002,-1386.0003"/>
<text text-anchor="middle" x="1152.0002" y="-1346.3003" font-family="Times,serif" font-size="14.00" fill="#000000">ECOI16</text>
</g>
<!-- ECOI14&#45;&gt;ECOI16 -->
<g id="edge36" class="edge">
<title>ECOI14&#45;&gt;ECOI16</title>
<path fill="none" stroke="#bd0d25" d="M1008.304,-918C1031.4494,-918 1051.2002,-918 1051.2002,-918 1051.2002,-918 1051.2002,-1350 1051.2002,-1350 1051.2002,-1350 1069.8158,-1350 1069.8158,-1350"/>
<polygon fill="#bd0d25" stroke="#bd0d25" points="1069.8158,-1353.5001 1079.8158,-1350 1069.8158,-1346.5001 1069.8158,-1353.5001"/>
</g>
<!-- EELI10&#45;&gt;EELI11 -->
<g id="edge33" class="edge">
<title>EELI10&#45;&gt;EELI11</title>
<path fill="none" stroke="#000000" d="M936.0002,-665.8466C936.0002,-665.8466 936.0002,-532.2716 936.0002,-532.2716"/>
<polygon fill="#000000" stroke="#000000" points="939.5003,-532.2715 936.0002,-522.2716 932.5003,-532.2716 939.5003,-532.2715"/>
</g>
<!-- ECOI32 -->
<g id="node46" class="node">
<title>ECOI32</title>
<polygon fill="#2ecc71" stroke="transparent" stroke-width=".5" points="1080.0002,-1098.0002 1116.0002,-1098.0002 1116.0002,-1170.0002 1080.0002,-1170.0002 1080.0002,-1098.0002"/>
<polygon fill="#e74c3c" stroke="transparent" stroke-width=".5" points="1116.0002,-1098.0002 1152.0002,-1098.0002 1152.0002,-1170.0002 1116.0002,-1170.0002 1116.0002,-1098.0002"/>
<polygon fill="#9b59b6" stroke="transparent" stroke-width=".5" points="1152.0002,-1098.0002 1188.0002,-1098.0002 1188.0002,-1170.0002 1152.0002,-1170.0002 1152.0002,-1098.0002"/>
<polygon fill="#bdc3c7" stroke="transparent" stroke-width=".5" points="1188.0002,-1098.0002 1224.0002,-1098.0002 1224.0002,-1170.0002 1188.0002,-1170.0002 1188.0002,-1098.0002"/>
<polygon fill="none" stroke="transparent" points="1224.0002,-1170.0002 1080.0002,-1170.0002 1080.0002,-1098.0002 1224.0002,-1098.0002 1224.0002,-1170.0002"/>
<text text-anchor="middle" x="1152.0002" y="-1130.3002" font-family="Times,serif" font-size="14.00" fill="#000000">ECOI32</text>
</g>
<!-- EELI10&#45;&gt;ECOI32 -->
<g id="edge37" class="edge">
<title>EELI10&#45;&gt;ECOI32</title>
<path fill="none" stroke="#bd0d25" d="M1008.2623,-717C1034.7624,-717 1058.4002,-717 1058.4002,-717 1058.4002,-717 1058.4002,-1146 1058.4002,-1146 1058.4002,-1146 1069.6395,-1146 1069.6395,-1146"/>
<polygon fill="#bd0d25" stroke="#bd0d25" points="1069.6395,-1149.5001 1079.6395,-1146 1069.6395,-1142.5001 1069.6395,-1149.5001"/>
</g>
<!-- EELI10&#45;&gt;EELI12 -->
<g id="edge39" class="edge">
<title>EELI10&#45;&gt;EELI12</title>
<path fill="none" stroke="#bd0d25" d="M1008.0057,-707C1040.9626,-707 1072.8002,-707 1072.8002,-707 1072.8002,-707 1072.8002,-900 1072.8002,-900 1072.8002,-900 1073.5031,-900 1073.5031,-900"/>
<polygon fill="#bd0d25" stroke="#bd0d25" points="1069.8287,-903.5002 1079.8287,-900 1069.8286,-896.5002 1069.8287,-903.5002"/>
</g>
<!-- EELI10&#45;&gt;EELI13 -->
<g id="edge42" class="edge">
<title>EELI10&#45;&gt;EELI13</title>
<path fill="none" stroke="#bd0d25" d="M1008.2254,-696C1008.2254,-696 1069.8431,-696 1069.8431,-696"/>
<polygon fill="#bd0d25" stroke="#bd0d25" points="1069.8431,-699.5001 1079.8431,-696 1069.8431,-692.5001 1069.8431,-699.5001"/>
</g>
<!-- EELI10&#45;&gt;EELI14 -->
<g id="edge44" class="edge">
<title>EELI10&#45;&gt;EELI14</title>
<path fill="none" stroke="#bd0d25" d="M1008.3609,-686C1020.6866,-686 1029.6002,-686 1029.6002,-686 1029.6002,-686 1029.6002,-474 1029.6002,-474 1029.6002,-474 1069.7381,-474 1069.7381,-474"/>
<polygon fill="#bd0d25" stroke="#bd0d25" points="1069.7382,-477.5001 1079.7381,-474 1069.7381,-470.5001 1069.7382,-477.5001"/>
</g>
<!-- EELI10&#45;&gt;EELI15 -->
<g id="edge46" class="edge">
<title>EELI10&#45;&gt;EELI15</title>
<path fill="none" stroke="#bd0d25" d="M1008.1717,-676C1012.5306,-676 1015.2002,-676 1015.2002,-676 1015.2002,-676 1015.2002,-257 1015.2002,-257 1015.2002,-257 1069.9947,-257 1069.9947,-257"/>
<polygon fill="#bd0d25" stroke="#bd0d25" points="1069.9947,-260.5001 1079.9947,-257 1069.9946,-253.5001 1069.9947,-260.5001"/>
</g>
<!-- EELI11&#45;&gt;ECOI32 -->
<g id="edge38" class="edge">
<title>EELI11&#45;&gt;ECOI32</title>
<path fill="none" stroke="#bd0d25" d="M1008.001,-498C1037.8311,-498 1065.6002,-498 1065.6002,-498 1065.6002,-498 1065.6002,-1122 1065.6002,-1122 1065.6002,-1122 1069.8674,-1122 1069.8674,-1122"/>
<polygon fill="#bd0d25" stroke="#bd0d25" points="1069.8674,-1125.5001 1079.8674,-1122 1069.8674,-1118.5001 1069.8674,-1125.5001"/>
</g>
<!-- FISI06 -->
<g id="node42" class="node">
<title>FISI06</title>
<polygon fill="#9b59b6" stroke="transparent" stroke-width=".5" points="864.0002,-234 1008.0002,-234 1008.0002,-306 864.0002,-306 864.0002,-234"/>
<polygon fill="none" stroke="transparent" points="1008.0002,-306 864.0002,-306 864.0002,-234 1008.0002,-234 1008.0002,-306"/>
<text text-anchor="middle" x="936.0002" y="-266.3" font-family="Times,serif" font-size="14.00" fill="#000000">FISI06</text>
</g>
<!-- ECAI29&#45;&gt;ECAI04 -->
<g id="edge49" class="edge">
<title>ECAI29&#45;&gt;ECAI04</title>
<path fill="none" stroke="#af0019" d="M1224.2254,-1800C1224.2254,-1800 1285.8431,-1800 1285.8431,-1800"/>
<polygon fill="#af0019" stroke="#af0019" points="1285.8432,-1803.5001 1295.8431,-1800 1285.8431,-1796.5001 1285.8432,-1803.5001"/>
</g>
<!-- ECAI13 -->
<g id="node53" class="node">
<title>ECAI13</title>
<polygon fill="#2ecc71" stroke="transparent" stroke-width=".5" points="1296.0003,-1314.0003 1332.0003,-1314.0003 1332.0003,-1386.0003 1296.0003,-1386.0003 1296.0003,-1314.0003"/>
<polygon fill="#e74c3c" stroke="transparent" stroke-width=".5" points="1332.0003,-1314.0003 1368.0003,-1314.0003 1368.0003,-1386.0003 1332.0003,-1386.0003 1332.0003,-1314.0003"/>
<polygon fill="#9b59b6" stroke="transparent" stroke-width=".5" points="1368.0003,-1314.0003 1404.0003,-1314.0003 1404.0003,-1386.0003 1368.0003,-1386.0003 1368.0003,-1314.0003"/>
<polygon fill="#bdc3c7" stroke="transparent" stroke-width=".5" points="1404.0003,-1314.0003 1440.0003,-1314.0003 1440.0003,-1386.0003 1404.0003,-1386.0003 1404.0003,-1314.0003"/>
<polygon fill="none" stroke="transparent" points="1440.0003,-1386.0003 1296.0003,-1386.0003 1296.0003,-1314.0003 1440.0003,-1314.0003 1440.0003,-1386.0003"/>
<text text-anchor="middle" x="1368.0003" y="-1346.3003" font-family="Times,serif" font-size="14.00" fill="#000000">ECAI13</text>
</g>
<!-- ECAI29&#45;&gt;ECAI13 -->
<g id="edge53" class="edge">
<title>ECAI29&#45;&gt;ECAI13</title>
<path fill="none" stroke="#af0019" d="M1224.0996,-1782C1248.1768,-1782 1269.0003,-1782 1269.0003,-1782 1269.0003,-1782 1269.0003,-1362 1269.0003,-1362 1269.0003,-1362 1285.7911,-1362 1285.7911,-1362"/>
<polygon fill="#af0019" stroke="#af0019" points="1285.7911,-1365.5001 1295.7911,-1362 1285.7911,-1358.5001 1285.7911,-1365.5001"/>
</g>
<!-- ECAI44 -->
<g id="node54" class="node">
<title>ECAI44</title>
<polygon fill="#2ecc71" stroke="transparent" stroke-width=".5" points="1296.0003,-1098.0002 1332.0003,-1098.0002 1332.0003,-1170.0002 1296.0003,-1170.0002 1296.0003,-1098.0002"/>
<polygon fill="#e74c3c" stroke="transparent" stroke-width=".5" points="1332.0003,-1098.0002 1368.0003,-1098.0002 1368.0003,-1170.0002 1332.0003,-1170.0002 1332.0003,-1098.0002"/>
<polygon fill="#9b59b6" stroke="transparent" stroke-width=".5" points="1368.0003,-1098.0002 1404.0003,-1098.0002 1404.0003,-1170.0002 1368.0003,-1170.0002 1368.0003,-1098.0002"/>
<polygon fill="#bdc3c7" stroke="transparent" stroke-width=".5" points="1404.0003,-1098.0002 1440.0003,-1098.0002 1440.0003,-1170.0002 1404.0003,-1170.0002 1404.0003,-1098.0002"/>
<polygon fill="none" stroke="transparent" points="1440.0003,-1170.0002 1296.0003,-1170.0002 1296.0003,-1098.0002 1440.0003,-1098.0002 1440.0003,-1170.0002"/>
<text text-anchor="middle" x="1368.0003" y="-1130.3002" font-family="Times,serif" font-size="14.00" fill="#000000">ECAI44</text>
</g>
<!-- ECAI29&#45;&gt;ECAI44 -->
<g id="edge55" class="edge">
<title>ECAI29&#45;&gt;ECAI44</title>
<path fill="none" stroke="#af0019" d="M1224.2094,-1764C1239.4346,-1764 1251.0002,-1764 1251.0002,-1764 1251.0002,-1764 1251.0002,-1146 1251.0002,-1146 1251.0002,-1146 1285.9009,-1146 1285.9009,-1146"/>
<polygon fill="#af0019" stroke="#af0019" points="1285.9009,-1149.5001 1295.9009,-1146 1285.9009,-1142.5001 1285.9009,-1149.5001"/>
</g>
<!-- ECOI15 -->
<g id="node44" class="node">
<title>ECOI15</title>
<polygon fill="#2ecc71" stroke="transparent" stroke-width=".5" points="1080.0002,-1530.0003 1224.0002,-1530.0003 1224.0002,-1602.0003 1080.0002,-1602.0003 1080.0002,-1530.0003"/>
<polygon fill="none" stroke="transparent" points="1224.0002,-1602.0003 1080.0002,-1602.0003 1080.0002,-1530.0003 1224.0002,-1530.0003 1224.0002,-1602.0003"/>
<text text-anchor="middle" x="1152.0002" y="-1562.3003" font-family="Times,serif" font-size="14.00" fill="#000000">ECOI15</text>
</g>
<!-- ECOI15&#45;&gt;ECOI23 -->
<g id="edge72" class="edge">
<title>ECOI15&#45;&gt;ECOI23</title>
<path fill="none" stroke="#840019" d="M1224.2191,-1554C1234.682,-1554 1242.0002,-1554 1242.0002,-1554 1242.0002,-1554 1242.0002,-1242 1242.0002,-1242 1242.0002,-1242 1800.0004,-1242 1800.0004,-1242 1800.0004,-1242 1800.0004,-1180.263 1800.0004,-1180.263"/>
<polygon fill="#840019" stroke="#840019" points="1803.5005,-1180.263 1800.0004,-1170.263 1796.5005,-1180.2631 1803.5005,-1180.263"/>
</g>
<!-- EELI12&#45;&gt;EELI13 -->
<g id="edge43" class="edge">
<title>EELI12&#45;&gt;EELI13</title>
<path fill="none" stroke="#000000" d="M1152.0002,-881.8466C1152.0002,-881.8466 1152.0002,-748.2716 1152.0002,-748.2716"/>
<polygon fill="#000000" stroke="#000000" points="1155.5003,-748.2716 1152.0002,-738.2716 1148.5003,-748.2716 1155.5003,-748.2716"/>
</g>
<!-- EELI12&#45;&gt;ECAI13 -->
<g id="edge54" class="edge">
<title>EELI12&#45;&gt;ECAI13</title>
<path fill="none" stroke="#af0019" d="M1224.0378,-930C1243.8487,-930 1260.0003,-930 1260.0003,-930 1260.0003,-930 1260.0003,-1338 1260.0003,-1338 1260.0003,-1338 1285.9627,-1338 1285.9627,-1338"/>
<polygon fill="#af0019" stroke="#af0019" points="1285.9627,-1341.5001 1295.9627,-1338 1285.9627,-1334.5001 1285.9627,-1341.5001"/>
</g>
<!-- EELI12&#45;&gt;ECAI44 -->
<g id="edge56" class="edge">
<title>EELI12&#45;&gt;ECAI44</title>
<path fill="none" stroke="#af0019" d="M1224.2429,-906C1256.3402,-906 1287.0003,-906 1287.0003,-906 1287.0003,-906 1287.0003,-1122 1287.0003,-1122 1287.0003,-1122 1287.8981,-1122 1287.8981,-1122"/>
<polygon fill="#af0019" stroke="#af0019" points="1285.9782,-1125.5001 1295.9782,-1122 1285.9781,-1118.5001 1285.9782,-1125.5001"/>
</g>
<!-- EELI14&#45;&gt;EELI15 -->
<g id="edge48" class="edge">
<title>EELI14&#45;&gt;EELI15</title>
<path fill="none" stroke="#000000" d="M1128.0002,-449.8465C1128.0002,-449.8465 1128.0002,-316.2715 1128.0002,-316.2715"/>
<polygon fill="#000000" stroke="#000000" points="1131.5003,-316.2715 1128.0002,-306.2715 1124.5003,-316.2715 1131.5003,-316.2715"/>
</g>
<!-- EELI14&#45;&gt;ECAI11 -->
<g id="edge52" class="edge">
<title>EELI14&#45;&gt;ECAI11</title>
<path fill="none" stroke="#af0019" d="M1224.0223,-498C1229.5284,-498 1233.0002,-498 1233.0002,-498 1233.0002,-498 1233.0002,-1578 1233.0002,-1578 1233.0002,-1578 1285.7576,-1578 1285.7576,-1578"/>
<polygon fill="#af0019" stroke="#af0019" points="1285.7577,-1581.5001 1295.7576,-1578 1285.7576,-1574.5001 1285.7577,-1581.5001"/>
</g>
<!-- ECOI33 -->
<g id="node58" class="node">
<title>ECOI33</title>
<polygon fill="#2ecc71" stroke="transparent" stroke-width=".5" points="1296.0003,-234 1332.0003,-234 1332.0003,-306 1296.0003,-306 1296.0003,-234"/>
<polygon fill="#e74c3c" stroke="transparent" stroke-width=".5" points="1332.0003,-234 1368.0003,-234 1368.0003,-306 1332.0003,-306 1332.0003,-234"/>
<polygon fill="#9b59b6" stroke="transparent" stroke-width=".5" points="1368.0003,-234 1404.0003,-234 1404.0003,-306 1368.0003,-306 1368.0003,-234"/>
<polygon fill="#bdc3c7" stroke="transparent" stroke-width=".5" points="1404.0003,-234 1440.0003,-234 1440.0003,-306 1404.0003,-306 1404.0003,-234"/>
<polygon fill="none" stroke="transparent" points="1440.0003,-306 1296.0003,-306 1296.0003,-234 1440.0003,-234 1440.0003,-306"/>
<text text-anchor="middle" x="1368.0003" y="-266.3" font-family="Times,serif" font-size="14.00" fill="#000000">ECOI33</text>
</g>
<!-- EELI14&#45;&gt;ECOI33 -->
<g id="edge60" class="edge">
<title>EELI14&#45;&gt;ECOI33</title>
<path fill="none" stroke="#af0019" d="M1224.1994,-474C1252.3522,-474 1278.0003,-474 1278.0003,-474 1278.0003,-474 1278.0003,-281 1278.0003,-281 1278.0003,-281 1285.7814,-281 1285.7814,-281"/>
<polygon fill="#af0019" stroke="#af0019" points="1285.7814,-284.5001 1295.7814,-281 1285.7813,-277.5001 1285.7814,-284.5001"/>
</g>
<!-- ECAI07 -->
<g id="node60" class="node">
<title>ECAI07</title>
<polygon fill="#2ecc71" stroke="transparent" stroke-width=".5" points="1512.0003,-1530.0003 1548.0003,-1530.0003 1548.0003,-1602.0003 1512.0003,-1602.0003 1512.0003,-1530.0003"/>
<polygon fill="#e74c3c" stroke="transparent" stroke-width=".5" points="1548.0003,-1530.0003 1584.0003,-1530.0003 1584.0003,-1602.0003 1548.0003,-1602.0003 1548.0003,-1530.0003"/>
<polygon fill="#9b59b6" stroke="transparent" stroke-width=".5" points="1584.0003,-1530.0003 1620.0003,-1530.0003 1620.0003,-1602.0003 1584.0003,-1602.0003 1584.0003,-1530.0003"/>
<polygon fill="#bdc3c7" stroke="transparent" stroke-width=".5" points="1620.0003,-1530.0003 1656.0003,-1530.0003 1656.0003,-1602.0003 1620.0003,-1602.0003 1620.0003,-1530.0003"/>
<polygon fill="none" stroke="transparent" points="1656.0003,-1602.0003 1512.0003,-1602.0003 1512.0003,-1530.0003 1656.0003,-1530.0003 1656.0003,-1602.0003"/>
<text text-anchor="middle" x="1584.0003" y="-1562.3003" font-family="Times,serif" font-size="14.00" fill="#000000">ECAI07</text>
</g>
<!-- EELI14&#45;&gt;ECAI07 -->
<g id="edge63" class="edge">
<title>EELI14&#45;&gt;ECAI07</title>
<path fill="none" stroke="#850014" d="M1176.0002,-522.2629C1176.0002,-553.638 1176.0002,-594 1176.0002,-594 1176.0002,-594 1450.286,-594 1450.286,-594 1450.286,-594 1450.286,-1584 1450.286,-1584 1450.286,-1584 1501.6642,-1584 1501.6642,-1584"/>
<polygon fill="#850014" stroke="#850014" points="1501.6643,-1587.5001 1511.6642,-1584 1501.6642,-1580.5001 1501.6643,-1587.5001"/>
</g>
<!-- EELI15&#45;&gt;ECOI33 -->
<g id="edge59" class="edge">
<title>EELI15&#45;&gt;ECOI33</title>
<path fill="none" stroke="#af0019" d="M1224.2254,-257C1224.2254,-257 1285.8431,-257 1285.8431,-257"/>
<polygon fill="#af0019" stroke="#af0019" points="1285.8432,-260.5001 1295.8431,-257 1285.8431,-253.5001 1285.8432,-260.5001"/>
</g>
<!-- EELI15&#45;&gt;ECAI07 -->
<g id="edge62" class="edge">
<title>EELI15&#45;&gt;ECAI07</title>
<path fill="none" stroke="#850014" d="M1176.0002,-306.0696C1176.0002,-345.1523 1176.0002,-402 1176.0002,-402 1176.0002,-402 1460.5717,-402 1460.5717,-402 1460.5717,-402 1460.5717,-1566 1460.5717,-1566 1460.5717,-1566 1501.8443,-1566 1501.8443,-1566"/>
<polygon fill="#850014" stroke="#850014" points="1501.8443,-1569.5001 1511.8443,-1566 1501.8442,-1562.5001 1501.8443,-1569.5001"/>
</g>
<!-- ECAI05 -->
<g id="node59" class="node">
<title>ECAI05</title>
<polygon fill="#2ecc71" stroke="transparent" stroke-width=".5" points="1512.0003,-1746.0004 1548.0003,-1746.0004 1548.0003,-1818.0004 1512.0003,-1818.0004 1512.0003,-1746.0004"/>
<polygon fill="#e74c3c" stroke="transparent" stroke-width=".5" points="1548.0003,-1746.0004 1584.0003,-1746.0004 1584.0003,-1818.0004 1548.0003,-1818.0004 1548.0003,-1746.0004"/>
<polygon fill="#9b59b6" stroke="transparent" stroke-width=".5" points="1584.0003,-1746.0004 1620.0003,-1746.0004 1620.0003,-1818.0004 1584.0003,-1818.0004 1584.0003,-1746.0004"/>
<polygon fill="#bdc3c7" stroke="transparent" stroke-width=".5" points="1620.0003,-1746.0004 1656.0003,-1746.0004 1656.0003,-1818.0004 1620.0003,-1818.0004 1620.0003,-1746.0004"/>
<polygon fill="none" stroke="transparent" points="1656.0003,-1818.0004 1512.0003,-1818.0004 1512.0003,-1746.0004 1656.0003,-1746.0004 1656.0003,-1818.0004"/>
<text text-anchor="middle" x="1584.0003" y="-1778.3004" font-family="Times,serif" font-size="14.00" fill="#000000">ECAI05</text>
</g>
<!-- ECAI04&#45;&gt;ECAI05 -->
<g id="edge61" class="edge">
<title>ECAI04&#45;&gt;ECAI05</title>
<path fill="none" stroke="#850014" d="M1440.2255,-1782C1440.2255,-1782 1501.8432,-1782 1501.8432,-1782"/>
<polygon fill="#850014" stroke="#850014" points="1501.8432,-1785.5001 1511.8432,-1782 1501.8432,-1778.5001 1501.8432,-1785.5001"/>
</g>
<!-- ECOI07 -->
<g id="node61" class="node">
<title>ECOI07</title>
<polygon fill="#2ecc71" stroke="transparent" stroke-width=".5" points="1512.0003,-1314.0003 1548.0003,-1314.0003 1548.0003,-1386.0003 1512.0003,-1386.0003 1512.0003,-1314.0003"/>
<polygon fill="#e74c3c" stroke="transparent" stroke-width=".5" points="1548.0003,-1314.0003 1584.0003,-1314.0003 1584.0003,-1386.0003 1548.0003,-1386.0003 1548.0003,-1314.0003"/>
<polygon fill="#9b59b6" stroke="transparent" stroke-width=".5" points="1584.0003,-1314.0003 1620.0003,-1314.0003 1620.0003,-1386.0003 1584.0003,-1386.0003 1584.0003,-1314.0003"/>
<polygon fill="#bdc3c7" stroke="transparent" stroke-width=".5" points="1620.0003,-1314.0003 1656.0003,-1314.0003 1656.0003,-1386.0003 1620.0003,-1386.0003 1620.0003,-1314.0003"/>
<polygon fill="none" stroke="transparent" points="1656.0003,-1386.0003 1512.0003,-1386.0003 1512.0003,-1314.0003 1656.0003,-1314.0003 1656.0003,-1386.0003"/>
<text text-anchor="middle" x="1584.0003" y="-1346.3003" font-family="Times,serif" font-size="14.00" fill="#000000">ECOI07</text>
</g>
<!-- ECAI11&#45;&gt;ECOI07 -->
<g id="edge64" class="edge">
<title>ECAI11&#45;&gt;ECOI07</title>
<path fill="none" stroke="#850014" d="M1440.3363,-1548C1471.8423,-1548 1501.7146,-1548 1501.7146,-1548 1501.7146,-1548 1501.7146,-1350 1501.7146,-1350 1501.7146,-1350 1502.7236,-1350 1502.7236,-1350"/>
<polygon fill="#850014" stroke="#850014" points="1501.8045,-1353.5001 1511.8044,-1350 1501.8044,-1346.5001 1501.8045,-1353.5001"/>
</g>
<!-- ECAI13&#45;&gt;ECAI44 -->
<g id="edge57" class="edge">
<title>ECAI13&#45;&gt;ECAI44</title>
<path fill="none" stroke="#000000" d="M1368.0003,-1313.8467C1368.0003,-1313.8467 1368.0003,-1180.2717 1368.0003,-1180.2717"/>
<polygon fill="#000000" stroke="#000000" points="1371.5004,-1180.2717 1368.0003,-1170.2717 1364.5004,-1180.2717 1371.5004,-1180.2717"/>
</g>
<!-- ECOI13&#45;&gt;ECOI26 -->
<g id="edge68" class="edge">
<title>ECOI13&#45;&gt;ECOI26</title>
<path fill="none" stroke="#850014" d="M1440.296,-906C1462.4702,-906 1481.1432,-906 1481.1432,-906 1481.1432,-906 1481.1432,-690 1481.1432,-690 1481.1432,-690 1501.7252,-690 1501.7252,-690"/>
<polygon fill="#850014" stroke="#850014" points="1501.7252,-693.5001 1511.7252,-690 1501.7252,-686.5001 1501.7252,-693.5001"/>
</g>
<!-- ECOI18 -->
<g id="node56" class="node">
<title>ECOI18</title>
<polygon fill="#2ecc71" stroke="transparent" stroke-width=".5" points="1296.0003,-666.0001 1332.0003,-666.0001 1332.0003,-738.0001 1296.0003,-738.0001 1296.0003,-666.0001"/>
<polygon fill="#e74c3c" stroke="transparent" stroke-width=".5" points="1332.0003,-666.0001 1368.0003,-666.0001 1368.0003,-738.0001 1332.0003,-738.0001 1332.0003,-666.0001"/>
<polygon fill="#9b59b6" stroke="transparent" stroke-width=".5" points="1368.0003,-666.0001 1404.0003,-666.0001 1404.0003,-738.0001 1368.0003,-738.0001 1368.0003,-666.0001"/>
<polygon fill="#bdc3c7" stroke="transparent" stroke-width=".5" points="1404.0003,-666.0001 1440.0003,-666.0001 1440.0003,-738.0001 1404.0003,-738.0001 1404.0003,-666.0001"/>
<polygon fill="none" stroke="transparent" points="1440.0003,-738.0001 1296.0003,-738.0001 1296.0003,-666.0001 1440.0003,-666.0001 1440.0003,-738.0001"/>
<text text-anchor="middle" x="1368.0003" y="-698.3001" font-family="Times,serif" font-size="14.00" fill="#000000">ECOI18</text>
</g>
<!-- ECOI19 -->
<g id="node57" class="node">
<title>ECOI19</title>
<polygon fill="#2ecc71" stroke="transparent" stroke-width=".5" points="1296.0003,-450.0001 1332.0003,-450.0001 1332.0003,-522.0001 1296.0003,-522.0001 1296.0003,-450.0001"/>
<polygon fill="#e74c3c" stroke="transparent" stroke-width=".5" points="1332.0003,-450.0001 1368.0003,-450.0001 1368.0003,-522.0001 1332.0003,-522.0001 1332.0003,-450.0001"/>
<polygon fill="#9b59b6" stroke="transparent" stroke-width=".5" points="1368.0003,-450.0001 1404.0003,-450.0001 1404.0003,-522.0001 1368.0003,-522.0001 1368.0003,-450.0001"/>
<polygon fill="#bdc3c7" stroke="transparent" stroke-width=".5" points="1404.0003,-450.0001 1440.0003,-450.0001 1440.0003,-522.0001 1404.0003,-522.0001 1404.0003,-450.0001"/>
<polygon fill="none" stroke="transparent" points="1440.0003,-522.0001 1296.0003,-522.0001 1296.0003,-450.0001 1440.0003,-450.0001 1440.0003,-522.0001"/>
<text text-anchor="middle" x="1368.0003" y="-482.3001" font-family="Times,serif" font-size="14.00" fill="#000000">ECOI19</text>
</g>
<!-- ECOI21 -->
<g id="node62" class="node">
<title>ECOI21</title>
<polygon fill="#2ecc71" stroke="transparent" stroke-width=".5" points="1512.0003,-1098.0002 1548.0003,-1098.0002 1548.0003,-1170.0002 1512.0003,-1170.0002 1512.0003,-1098.0002"/>
<polygon fill="#e74c3c" stroke="transparent" stroke-width=".5" points="1548.0003,-1098.0002 1584.0003,-1098.0002 1584.0003,-1170.0002 1548.0003,-1170.0002 1548.0003,-1098.0002"/>
<polygon fill="#9b59b6" stroke="transparent" stroke-width=".5" points="1584.0003,-1098.0002 1620.0003,-1098.0002 1620.0003,-1170.0002 1584.0003,-1170.0002 1584.0003,-1098.0002"/>
<polygon fill="#bdc3c7" stroke="transparent" stroke-width=".5" points="1620.0003,-1098.0002 1656.0003,-1098.0002 1656.0003,-1170.0002 1620.0003,-1170.0002 1620.0003,-1098.0002"/>
<polygon fill="none" stroke="transparent" points="1656.0003,-1170.0002 1512.0003,-1170.0002 1512.0003,-1098.0002 1656.0003,-1098.0002 1656.0003,-1170.0002"/>
<text text-anchor="middle" x="1584.0003" y="-1130.3002" font-family="Times,serif" font-size="14.00" fill="#000000">ECOI21</text>
</g>
<!-- ECOI21&#45;&gt;ECOI23 -->
<g id="edge71" class="edge">
<title>ECOI21&#45;&gt;ECOI23</title>
<path fill="none" stroke="#840019" d="M1656.2255,-1134C1656.2255,-1134 1717.8432,-1134 1717.8432,-1134"/>
<polygon fill="#840019" stroke="#840019" points="1717.8433,-1137.5001 1727.8432,-1134 1717.8432,-1130.5001 1717.8433,-1137.5001"/>
</g>
<!-- EAMI30 -->
<g id="node66" class="node">
<title>EAMI30</title>
<polygon fill="#2ecc71" stroke="transparent" stroke-width=".5" points="1728.0004,-1746.0004 1872.0004,-1746.0004 1872.0004,-1818.0004 1728.0004,-1818.0004 1728.0004,-1746.0004"/>
<polygon fill="none" stroke="transparent" points="1872.0004,-1818.0004 1728.0004,-1818.0004 1728.0004,-1746.0004 1872.0004,-1746.0004 1872.0004,-1818.0004"/>
<text text-anchor="middle" x="1800.0004" y="-1778.3004" font-family="Times,serif" font-size="14.00" fill="#000000">EAMI30</text>
</g>
<!-- ECOI20 -->
<g id="node67" class="node">
<title>ECOI20</title>
<polygon fill="#2ecc71" stroke="transparent" stroke-width=".5" points="1728.0004,-1530.0003 1764.0004,-1530.0003 1764.0004,-1602.0003 1728.0004,-1602.0003 1728.0004,-1530.0003"/>
<polygon fill="#e74c3c" stroke="transparent" stroke-width=".5" points="1764.0004,-1530.0003 1800.0004,-1530.0003 1800.0004,-1602.0003 1764.0004,-1602.0003 1764.0004,-1530.0003"/>
<polygon fill="#9b59b6" stroke="transparent" stroke-width=".5" points="1800.0004,-1530.0003 1836.0004,-1530.0003 1836.0004,-1602.0003 1800.0004,-1602.0003 1800.0004,-1530.0003"/>
<polygon fill="#bdc3c7" stroke="transparent" stroke-width=".5" points="1836.0004,-1530.0003 1872.0004,-1530.0003 1872.0004,-1602.0003 1836.0004,-1602.0003 1836.0004,-1530.0003"/>
<polygon fill="none" stroke="transparent" points="1872.0004,-1602.0003 1728.0004,-1602.0003 1728.0004,-1530.0003 1872.0004,-1530.0003 1872.0004,-1602.0003"/>
<text text-anchor="middle" x="1800.0004" y="-1562.3003" font-family="Times,serif" font-size="14.00" fill="#000000">ECOI20</text>
</g>
<!-- ECOI25 -->
<g id="node70" class="node">
<title>ECOI25</title>
<polygon fill="#2ecc71" stroke="transparent" stroke-width=".5" points="1728.0004,-882.0002 1764.0004,-882.0002 1764.0004,-954.0002 1728.0004,-954.0002 1728.0004,-882.0002"/>
<polygon fill="#e74c3c" stroke="transparent" stroke-width=".5" points="1764.0004,-882.0002 1800.0004,-882.0002 1800.0004,-954.0002 1764.0004,-954.0002 1764.0004,-882.0002"/>
<polygon fill="#9b59b6" stroke="transparent" stroke-width=".5" points="1800.0004,-882.0002 1836.0004,-882.0002 1836.0004,-954.0002 1800.0004,-954.0002 1800.0004,-882.0002"/>
<polygon fill="#bdc3c7" stroke="transparent" stroke-width=".5" points="1836.0004,-882.0002 1872.0004,-882.0002 1872.0004,-954.0002 1836.0004,-954.0002 1836.0004,-882.0002"/>
<polygon fill="none" stroke="transparent" points="1872.0004,-954.0002 1728.0004,-954.0002 1728.0004,-882.0002 1872.0004,-882.0002 1872.0004,-954.0002"/>
<text text-anchor="middle" x="1800.0004" y="-914.3002" font-family="Times,serif" font-size="14.00" fill="#000000">ECOI25</text>
</g>
<!-- EPRI02 -->
<g id="node71" class="node">
<title>EPRI02</title>
<polygon fill="#2ecc71" stroke="transparent" stroke-width=".5" points="1728.0004,-666.0001 1872.0004,-666.0001 1872.0004,-738.0001 1728.0004,-738.0001 1728.0004,-666.0001"/>
<polygon fill="none" stroke="transparent" points="1872.0004,-738.0001 1728.0004,-738.0001 1728.0004,-666.0001 1872.0004,-666.0001 1872.0004,-738.0001"/>
<text text-anchor="middle" x="1800.0004" y="-698.3001" font-family="Times,serif" font-size="14.00" fill="#000000">EPRI02</text>
</g>
<!-- HUMI04 -->
<g id="node73" class="node">
<title>HUMI04</title>
<polygon fill="#2ecc71" stroke="transparent" stroke-width=".5" points="1728.0004,-234 1872.0004,-234 1872.0004,-306 1728.0004,-306 1728.0004,-234"/>
<polygon fill="none" stroke="transparent" points="1872.0004,-306 1728.0004,-306 1728.0004,-234 1872.0004,-234 1872.0004,-306"/>
<text text-anchor="middle" x="1800.0004" y="-266.3" font-family="Times,serif" font-size="14.00" fill="#000000">HUMI04</text>
</g>
<!-- TCCI01 -->
<g id="node74" class="node">
<title>TCCI01</title>
<polygon fill="#2ecc71" stroke="transparent" stroke-width=".5" points="1728.0004,-18 1764.0004,-18 1764.0004,-90 1728.0004,-90 1728.0004,-18"/>
<polygon fill="#e74c3c" stroke="transparent" stroke-width=".5" points="1764.0004,-18 1800.0004,-18 1800.0004,-90 1764.0004,-90 1764.0004,-18"/>
<polygon fill="#9b59b6" stroke="transparent" stroke-width=".5" points="1800.0004,-18 1836.0004,-18 1836.0004,-90 1800.0004,-90 1800.0004,-18"/>
<polygon fill="#bdc3c7" stroke="transparent" stroke-width=".5" points="1836.0004,-18 1872.0004,-18 1872.0004,-90 1836.0004,-90 1836.0004,-18"/>
<polygon fill="none" stroke="transparent" points="1872.0004,-90 1728.0004,-90 1728.0004,-18 1872.0004,-18 1872.0004,-90"/>
<text text-anchor="middle" x="1800.0004" y="-50.3" font-family="Times,serif" font-size="14.00" fill="#000000">TCCI01</text>
</g>
<!-- TCCI02 -->
<g id="node76" class="node">
<title>TCCI02</title>
<polygon fill="#2ecc71" stroke="transparent" stroke-width=".5" points="1944.0005,-1530.0003 1980.0005,-1530.0003 1980.0005,-1602.0003 1944.0005,-1602.0003 1944.0005,-1530.0003"/>
<polygon fill="#e74c3c" stroke="transparent" stroke-width=".5" points="1980.0005,-1530.0003 2016.0005,-1530.0003 2016.0005,-1602.0003 1980.0005,-1602.0003 1980.0005,-1530.0003"/>
<polygon fill="#9b59b6" stroke="transparent" stroke-width=".5" points="2016.0005,-1530.0003 2052.0005,-1530.0003 2052.0005,-1602.0003 2016.0005,-1602.0003 2016.0005,-1530.0003"/>
<polygon fill="#bdc3c7" stroke="transparent" stroke-width=".5" points="2052.0005,-1530.0003 2088.0005,-1530.0003 2088.0005,-1602.0003 2052.0005,-1602.0003 2052.0005,-1530.0003"/>
<polygon fill="none" stroke="transparent" points="2088.0005,-1602.0003 1944.0005,-1602.0003 1944.0005,-1530.0003 2088.0005,-1530.0003 2088.0005,-1602.0003"/>
<text text-anchor="middle" x="2016.0005" y="-1562.3003" font-family="Times,serif" font-size="14.00" fill="#000000">TCCI02</text>
</g>
<!-- TCCI01&#45;&gt;TCCI02 -->
<g id="edge75" class="edge">
<title>TCCI01&#45;&gt;TCCI02</title>
<path fill="none" stroke="#bb0019" d="M1872.2256,-53C1935.0183,-53 2016.0005,-53 2016.0005,-53 2016.0005,-53 2016.0005,-1519.722 2016.0005,-1519.722"/>
<polygon fill="#bb0019" stroke="#bb0019" points="2012.5006,-1519.7219 2016.0005,-1529.722 2019.5006,-1519.722 2012.5006,-1519.7219"/>
</g>
<!-- ESTSUPERV_019_160 -->
<g id="node75" class="node">
<title>ESTSUPERV_019_160</title>
<polygon fill="#2ecc71" stroke="transparent" stroke-width=".5" points="1944.0005,-1746.0004 1980.0005,-1746.0004 1980.0005,-1818.0004 1944.0005,-1818.0004 1944.0005,-1746.0004"/>
<polygon fill="#e74c3c" stroke="transparent" stroke-width=".5" points="1980.0005,-1746.0004 2016.0005,-1746.0004 2016.0005,-1818.0004 1980.0005,-1818.0004 1980.0005,-1746.0004"/>
<polygon fill="#9b59b6" stroke="transparent" stroke-width=".5" points="2016.0005,-1746.0004 2052.0005,-1746.0004 2052.0005,-1818.0004 2016.0005,-1818.0004 2016.0005,-1746.0004"/>
<polygon fill="#bdc3c7" stroke="transparent" stroke-width=".5" points="2052.0005,-1746.0004 2088.0005,-1746.0004 2088.0005,-1818.0004 2052.0005,-1818.0004 2052.0005,-1746.0004"/>
<polygon fill="none" stroke="transparent" points="2088.0005,-1818.0004 1944.0005,-1818.0004 1944.0005,-1746.0004 2088.0005,-1746.0004 2088.0005,-1818.0004"/>
<text text-anchor="middle" x="2016.0005" y="-1778.3004" font-family="Times,serif" font-size="14.00" fill="#000000">ESTSUPERV_019_160</text>
</g>
</g>
</svg>
