<?xml version="1.0" encoding="UTF-8" standalone="no"?>
<!DOCTYPE svg PUBLIC "-//W3C//DTD SVG 1.1//EN"
 "http://www.w3.org/Graphics/SVG/1.1/DTD/svg11.dtd">
<!-- Generated by graphviz version 2.44.1 (20200629.0846)
 -->
<!-- Title: ConhecimentoEmSistemasDeAutomação.dot Pages: 1 -->
<svg width="1880pt" height="1814pt"
 viewBox="0.00 0.00 1880.00 1814.00" xmlns="http://www.w3.org/2000/svg" xmlns:xlink="http://www.w3.org/1999/xlink">
<g id="graph0" class="graph" transform="scale(1 1) rotate(0) translate(4 1810)">
<title>ConhecimentoEmSistemasDeAutomação.dot</title>
<polygon fill="white" stroke="transparent" points="-4,4 -4,-1810 1876,-1810 1876,4 -4,4"/>
<!-- ECOI01 -->
<g id="node1" class="node">
<title>ECOI01</title>
<polygon fill="#bdc3c7" stroke="transparent" points="144,-1800 0,-1800 0,-1728 144,-1728 144,-1800"/>
<text text-anchor="middle" x="72" y="-1760.3" font-family="Times New Roman,serif" font-size="14.00">ECOI01</text>
</g>
<!-- ECOI02 -->
<g id="node2" class="node">
<title>ECOI02</title>
<polygon fill="#bdc3c7" stroke="transparent" points="144,-1584 0,-1584 0,-1512 144,-1512 144,-1584"/>
<text text-anchor="middle" x="72" y="-1544.3" font-family="Times New Roman,serif" font-size="14.00">ECOI02</text>
</g>
<!-- ECOI03 -->
<g id="node3" class="node">
<title>ECOI03</title>
<polygon fill="#bdc3c7" stroke="transparent" points="144,-1368 0,-1368 0,-1296 144,-1296 144,-1368"/>
<text text-anchor="middle" x="72" y="-1328.3" font-family="Times New Roman,serif" font-size="14.00">ECOI03</text>
</g>
<!-- EMEI02 -->
<g id="node4" class="node">
<title>EMEI02</title>
<polygon fill="#bdc3c7" stroke="transparent" points="144,-1152 0,-1152 0,-1080 144,-1080 144,-1152"/>
<text text-anchor="middle" x="72" y="-1112.3" font-family="Times New Roman,serif" font-size="14.00">EMEI02</text>
</g>
<!-- FISI01 -->
<g id="node5" class="node">
<title>FISI01</title>
<polygon fill="#bdc3c7" stroke="transparent" points="144,-936 0,-936 0,-864 144,-864 144,-936"/>
<text text-anchor="middle" x="72" y="-896.3" font-family="Times New Roman,serif" font-size="14.00">FISI01</text>
</g>
<!-- HUMI01 -->
<g id="node6" class="node">
<title>HUMI01</title>
<polygon fill="#bdc3c7" stroke="transparent" points="144,-720 0,-720 0,-648 144,-648 144,-720"/>
<text text-anchor="middle" x="72" y="-680.3" font-family="Times New Roman,serif" font-size="14.00">HUMI01</text>
</g>
<!-- HUMI02 -->
<g id="node7" class="node">
<title>HUMI02</title>
<polygon fill="#bdc3c7" stroke="transparent" points="144,-504 0,-504 0,-432 144,-432 144,-504"/>
<text text-anchor="middle" x="72" y="-464.3" font-family="Times New Roman,serif" font-size="14.00">HUMI02</text>
</g>
<!-- MATI01 -->
<g id="node8" class="node">
<title>MATI01</title>
<polygon fill="#bdc3c7" stroke="transparent" points="144,-288 0,-288 0,-216 144,-216 144,-288"/>
<text text-anchor="middle" x="72" y="-248.3" font-family="Times New Roman,serif" font-size="14.00">MATI01</text>
</g>
<!-- MATI02 -->
<g id="node9" class="node">
<title>MATI02</title>
<polygon fill="#bdc3c7" stroke="transparent" points="144,-72 0,-72 0,0 144,0 144,-72"/>
<text text-anchor="middle" x="72" y="-32.3" font-family="Times New Roman,serif" font-size="14.00">MATI02</text>
</g>
<!-- ECOI04 -->
<g id="node10" class="node">
<title>ECOI04</title>
<polygon fill="#bdc3c7" stroke="transparent" points="360,-1800 216,-1800 216,-1728 360,-1728 360,-1800"/>
<text text-anchor="middle" x="288" y="-1760.3" font-family="Times New Roman,serif" font-size="14.00">ECOI04</text>
</g>
<!-- EELI02 -->
<g id="node11" class="node">
<title>EELI02</title>
<polygon fill="#bdc3c7" stroke="transparent" points="360,-1584 216,-1584 216,-1512 360,-1512 360,-1584"/>
<text text-anchor="middle" x="288" y="-1544.3" font-family="Times New Roman,serif" font-size="14.00">EELI02</text>
</g>
<!-- EELI03 -->
<g id="node12" class="node">
<title>EELI03</title>
<polygon fill="#bdc3c7" stroke="transparent" points="360,-1368 216,-1368 216,-1296 360,-1296 360,-1368"/>
<text text-anchor="middle" x="288" y="-1328.3" font-family="Times New Roman,serif" font-size="14.00">EELI03</text>
</g>
<!-- EMEI06 -->
<g id="node13" class="node">
<title>EMEI06</title>
<polygon fill="#bdc3c7" stroke="transparent" points="360,-1152 216,-1152 216,-1080 360,-1080 360,-1152"/>
<text text-anchor="middle" x="288" y="-1112.3" font-family="Times New Roman,serif" font-size="14.00">EMEI06</text>
</g>
<!-- EMTI02 -->
<g id="node14" class="node">
<title>EMTI02</title>
<polygon fill="#bdc3c7" stroke="transparent" points="360,-936 216,-936 216,-864 360,-864 360,-936"/>
<text text-anchor="middle" x="288" y="-896.3" font-family="Times New Roman,serif" font-size="14.00">EMTI02</text>
</g>
<!-- EMTI03 -->
<g id="node15" class="node">
<title>EMTI03</title>
<polygon fill="#bdc3c7" stroke="transparent" points="360,-720 216,-720 216,-648 360,-648 360,-720"/>
<text text-anchor="middle" x="288" y="-680.3" font-family="Times New Roman,serif" font-size="14.00">EMTI03</text>
</g>
<!-- FISI02 -->
<g id="node16" class="node">
<title>FISI02</title>
<polygon fill="#bdc3c7" stroke="transparent" points="360,-504 216,-504 216,-432 360,-432 360,-504"/>
<text text-anchor="middle" x="288" y="-464.3" font-family="Times New Roman,serif" font-size="14.00">FISI02</text>
</g>
<!-- FISI03 -->
<g id="node17" class="node">
<title>FISI03</title>
<polygon fill="#bdc3c7" stroke="transparent" points="360,-288 216,-288 216,-216 360,-216 360,-288"/>
<text text-anchor="middle" x="288" y="-248.3" font-family="Times New Roman,serif" font-size="14.00">FISI03</text>
</g>
<!-- MATI03 -->
<g id="node18" class="node">
<title>MATI03</title>
<polygon fill="#bdc3c7" stroke="transparent" points="360,-72 216,-72 216,0 360,0 360,-72"/>
<text text-anchor="middle" x="288" y="-32.3" font-family="Times New Roman,serif" font-size="14.00">MATI03</text>
</g>
<!-- ECOI08 -->
<g id="node19" class="node">
<title>ECOI08</title>
<polygon fill="#bdc3c7" stroke="transparent" points="576,-1800 432,-1800 432,-1728 576,-1728 576,-1800"/>
<text text-anchor="middle" x="504" y="-1760.3" font-family="Times New Roman,serif" font-size="14.00">ECOI08</text>
</g>
<!-- ECOI61 -->
<g id="node20" class="node">
<title>ECOI61</title>
<polygon fill="#bdc3c7" stroke="transparent" points="576,-1584 432,-1584 432,-1512 576,-1512 576,-1584"/>
<text text-anchor="middle" x="504" y="-1544.3" font-family="Times New Roman,serif" font-size="14.00">ECOI61</text>
</g>
<!-- EMBI02 -->
<g id="node21" class="node">
<title>EMBI02</title>
<polygon fill="#bdc3c7" stroke="transparent" points="576,-1368 432,-1368 432,-1296 576,-1296 576,-1368"/>
<text text-anchor="middle" x="504" y="-1328.3" font-family="Times New Roman,serif" font-size="14.00">EMBI02</text>
</g>
<!-- EMEI07 -->
<g id="node22" class="node">
<title>EMEI07</title>
<polygon fill="#bdc3c7" stroke="transparent" points="576,-1152 432,-1152 432,-1080 576,-1080 576,-1152"/>
<text text-anchor="middle" x="504" y="-1112.3" font-family="Times New Roman,serif" font-size="14.00">EMEI07</text>
</g>
<!-- EMEI08 -->
<g id="node23" class="node">
<title>EMEI08</title>
<polygon fill="#bdc3c7" stroke="transparent" points="576,-936 432,-936 432,-864 576,-864 576,-936"/>
<text text-anchor="middle" x="504" y="-896.3" font-family="Times New Roman,serif" font-size="14.00">EMEI08</text>
</g>
<!-- FISI04 -->
<g id="node24" class="node">
<title>FISI04</title>
<polygon fill="#bdc3c7" stroke="transparent" points="576,-720 432,-720 432,-648 576,-648 576,-720"/>
<text text-anchor="middle" x="504" y="-680.3" font-family="Times New Roman,serif" font-size="14.00">FISI04</text>
</g>
<!-- HUMI06 -->
<g id="node25" class="node">
<title>HUMI06</title>
<polygon fill="#bdc3c7" stroke="transparent" points="576,-504 432,-504 432,-432 576,-432 576,-504"/>
<text text-anchor="middle" x="504" y="-464.3" font-family="Times New Roman,serif" font-size="14.00">HUMI06</text>
</g>
<!-- MATI06 -->
<g id="node26" class="node">
<title>MATI06</title>
<polygon fill="#bdc3c7" stroke="transparent" points="576,-288 432,-288 432,-216 576,-216 576,-288"/>
<text text-anchor="middle" x="504" y="-248.3" font-family="Times New Roman,serif" font-size="14.00">MATI06</text>
</g>
<!-- MATI07 -->
<g id="node27" class="node">
<title>MATI07</title>
<polygon fill="#bdc3c7" stroke="transparent" points="576,-72 432,-72 432,0 576,0 576,-72"/>
<text text-anchor="middle" x="504" y="-32.3" font-family="Times New Roman,serif" font-size="14.00">MATI07</text>
</g>
<!-- ECOI09 -->
<g id="node28" class="node">
<title>ECOI09</title>
<polygon fill="#bdc3c7" stroke="transparent" points="792,-1800 648,-1800 648,-1728 792,-1728 792,-1800"/>
<text text-anchor="middle" x="720" y="-1760.3" font-family="Times New Roman,serif" font-size="14.00">ECOI09</text>
</g>
<!-- EELI07 -->
<g id="node29" class="node">
<title>EELI07</title>
<polygon fill="#bdc3c7" stroke="transparent" points="792,-1584 648,-1584 648,-1512 792,-1512 792,-1584"/>
<text text-anchor="middle" x="720" y="-1544.3" font-family="Times New Roman,serif" font-size="14.00">EELI07</text>
</g>
<!-- ECOI10 -->
<g id="node36" class="node">
<title>ECOI10</title>
<polygon fill="#bdc3c7" stroke="transparent" points="1008,-1584 864,-1584 864,-1512 1008,-1512 1008,-1584"/>
<text text-anchor="middle" x="936" y="-1544.3" font-family="Times New Roman,serif" font-size="14.00">ECOI10</text>
</g>
<!-- EELI07&#45;&gt;ECOI10 -->
<g id="edge1" class="edge">
<title>EELI07&#45;&gt;ECOI10</title>
<path fill="none" stroke="#bd1c32" d="M792.23,-1548C792.23,-1548 853.84,-1548 853.84,-1548"/>
<polygon fill="#bd1c32" stroke="#bd1c32" points="853.84,-1551.5 863.84,-1548 853.84,-1544.5 853.84,-1551.5"/>
<text text-anchor="middle" x="814.03" y="-1551.8" font-family="Times New Roman,serif" font-size="14.00">1.0</text>
</g>
<!-- FISI05 -->
<g id="node30" class="node">
<title>FISI05</title>
<polygon fill="#bdc3c7" stroke="transparent" points="792,-1368 648,-1368 648,-1296 792,-1296 792,-1368"/>
<text text-anchor="middle" x="720" y="-1328.3" font-family="Times New Roman,serif" font-size="14.00">FISI05</text>
</g>
<!-- FISI07 -->
<g id="node31" class="node">
<title>FISI07</title>
<polygon fill="#bdc3c7" stroke="transparent" points="792,-1152 648,-1152 648,-1080 792,-1080 792,-1152"/>
<text text-anchor="middle" x="720" y="-1112.3" font-family="Times New Roman,serif" font-size="14.00">FISI07</text>
</g>
<!-- MATI04 -->
<g id="node32" class="node">
<title>MATI04</title>
<polygon fill="#bdc3c7" stroke="transparent" points="792,-936 648,-936 648,-864 792,-864 792,-936"/>
<text text-anchor="middle" x="720" y="-896.3" font-family="Times New Roman,serif" font-size="14.00">MATI04</text>
</g>
<!-- MATI05 -->
<g id="node33" class="node">
<title>MATI05</title>
<polygon fill="#bdc3c7" stroke="transparent" points="792,-720 648,-720 648,-648 792,-648 792,-720"/>
<text text-anchor="middle" x="720" y="-680.3" font-family="Times New Roman,serif" font-size="14.00">MATI05</text>
</g>
<!-- MATI08 -->
<g id="node34" class="node">
<title>MATI08</title>
<polygon fill="#bdc3c7" stroke="transparent" points="792,-504 648,-504 648,-432 792,-432 792,-504"/>
<text text-anchor="middle" x="720" y="-464.3" font-family="Times New Roman,serif" font-size="14.00">MATI08</text>
</g>
<!-- ECAI26 -->
<g id="node35" class="node">
<title>ECAI26</title>
<polygon fill="#bdc3c7" stroke="transparent" points="1008,-1800 864,-1800 864,-1728 1008,-1728 1008,-1800"/>
<text text-anchor="middle" x="936" y="-1760.3" font-family="Times New Roman,serif" font-size="14.00">ECAI26</text>
</g>
<!-- ECOI32 -->
<g id="node46" class="node">
<title>ECOI32</title>
<polygon fill="#bdc3c7" stroke="transparent" points="1224,-1152 1080,-1152 1080,-1080 1224,-1080 1224,-1152"/>
<text text-anchor="middle" x="1152" y="-1112.3" font-family="Times New Roman,serif" font-size="14.00">ECOI32</text>
</g>
<!-- ECOI10&#45;&gt;ECOI32 -->
<g id="edge2" class="edge">
<title>ECOI10&#45;&gt;ECOI32</title>
<path fill="none" stroke="#bd1c32" d="M1008.18,-1572C1039,-1572 1068,-1572 1068,-1572 1068,-1572 1068,-1116 1068,-1116 1068,-1116 1069.68,-1116 1069.68,-1116"/>
<polygon fill="#bd1c32" stroke="#bd1c32" points="1069.68,-1119.5 1079.68,-1116 1069.68,-1112.5 1069.68,-1119.5"/>
<text text-anchor="middle" x="1059" y="-1376.87" font-family="Times New Roman,serif" font-size="14.00">1.0</text>
</g>
<!-- EELI12 -->
<g id="node47" class="node">
<title>EELI12</title>
<polygon fill="#bdc3c7" stroke="transparent" points="1224,-936 1080,-936 1080,-864 1224,-864 1224,-936"/>
<text text-anchor="middle" x="1152" y="-896.3" font-family="Times New Roman,serif" font-size="14.00">EELI12</text>
</g>
<!-- ECOI10&#45;&gt;EELI12 -->
<g id="edge3" class="edge">
<title>ECOI10&#45;&gt;EELI12</title>
<path fill="none" stroke="#bd1c32" d="M1008.23,-1560C1033.64,-1560 1056,-1560 1056,-1560 1056,-1560 1056,-900 1056,-900 1056,-900 1069.73,-900 1069.73,-900"/>
<polygon fill="#bd1c32" stroke="#bd1c32" points="1069.73,-903.5 1079.73,-900 1069.73,-896.5 1069.73,-903.5"/>
<text text-anchor="middle" x="1047" y="-1250.82" font-family="Times New Roman,serif" font-size="14.00">1.0</text>
</g>
<!-- EELI13 -->
<g id="node48" class="node">
<title>EELI13</title>
<polygon fill="#bdc3c7" stroke="transparent" points="1224,-720 1080,-720 1080,-648 1224,-648 1224,-720"/>
<text text-anchor="middle" x="1152" y="-680.3" font-family="Times New Roman,serif" font-size="14.00">EELI13</text>
</g>
<!-- ECOI10&#45;&gt;EELI13 -->
<g id="edge4" class="edge">
<title>ECOI10&#45;&gt;EELI13</title>
<path fill="none" stroke="#bd1c32" d="M1008.04,-1548C1027.85,-1548 1044,-1548 1044,-1548 1044,-1548 1044,-684 1044,-684 1044,-684 1069.96,-684 1069.96,-684"/>
<polygon fill="#bd1c32" stroke="#bd1c32" points="1069.96,-687.5 1079.96,-684 1069.96,-680.5 1069.96,-687.5"/>
<text text-anchor="middle" x="1035" y="-1124.8" font-family="Times New Roman,serif" font-size="14.00">1.0</text>
</g>
<!-- EELI14 -->
<g id="node49" class="node">
<title>EELI14</title>
<polygon fill="#bdc3c7" stroke="transparent" points="1224,-504 1080,-504 1080,-432 1224,-432 1224,-504"/>
<text text-anchor="middle" x="1152" y="-464.3" font-family="Times New Roman,serif" font-size="14.00">EELI14</text>
</g>
<!-- ECOI10&#45;&gt;EELI14 -->
<g id="edge5" class="edge">
<title>ECOI10&#45;&gt;EELI14</title>
<path fill="none" stroke="#bd1c32" d="M1008.27,-1536C1021.91,-1536 1032,-1536 1032,-1536 1032,-1536 1032,-468 1032,-468 1032,-468 1069.77,-468 1069.77,-468"/>
<polygon fill="#bd1c32" stroke="#bd1c32" points="1069.77,-471.5 1079.77,-468 1069.77,-464.5 1069.77,-471.5"/>
<text text-anchor="middle" x="1023" y="-998.78" font-family="Times New Roman,serif" font-size="14.00">1.0</text>
</g>
<!-- EELI15 -->
<g id="node50" class="node">
<title>EELI15</title>
<polygon fill="#bdc3c7" stroke="transparent" points="1224,-288 1080,-288 1080,-216 1224,-216 1224,-288"/>
<text text-anchor="middle" x="1152" y="-248.3" font-family="Times New Roman,serif" font-size="14.00">EELI15</text>
</g>
<!-- ECOI10&#45;&gt;EELI15 -->
<g id="edge6" class="edge">
<title>ECOI10&#45;&gt;EELI15</title>
<path fill="none" stroke="#bd1c32" d="M1008.32,-1524C1015.39,-1524 1020,-1524 1020,-1524 1020,-1524 1020,-251 1020,-251 1020,-251 1069.82,-251 1069.82,-251"/>
<polygon fill="#bd1c32" stroke="#bd1c32" points="1069.82,-254.5 1079.82,-251 1069.82,-247.5 1069.82,-254.5"/>
<text text-anchor="middle" x="1029" y="-872.23" font-family="Times New Roman,serif" font-size="14.00">1.0</text>
</g>
<!-- ECOI11 -->
<g id="node37" class="node">
<title>ECOI11</title>
<polygon fill="#bdc3c7" stroke="transparent" points="1008,-1368 864,-1368 864,-1296 1008,-1296 1008,-1368"/>
<text text-anchor="middle" x="936" y="-1328.3" font-family="Times New Roman,serif" font-size="14.00">ECOI11</text>
</g>
<!-- ECOI12 -->
<g id="node38" class="node">
<title>ECOI12</title>
<polygon fill="#bdc3c7" stroke="transparent" points="1008,-1152 864,-1152 864,-1080 1008,-1080 1008,-1152"/>
<text text-anchor="middle" x="936" y="-1112.3" font-family="Times New Roman,serif" font-size="14.00">ECOI12</text>
</g>
<!-- ECOI14 -->
<g id="node39" class="node">
<title>ECOI14</title>
<polygon fill="#bdc3c7" stroke="transparent" points="1008,-936 864,-936 864,-864 1008,-864 1008,-936"/>
<text text-anchor="middle" x="936" y="-896.3" font-family="Times New Roman,serif" font-size="14.00">ECOI14</text>
</g>
<!-- EELI10 -->
<g id="node40" class="node">
<title>EELI10</title>
<polygon fill="#bdc3c7" stroke="transparent" points="1008,-720 864,-720 864,-648 1008,-648 1008,-720"/>
<text text-anchor="middle" x="936" y="-680.3" font-family="Times New Roman,serif" font-size="14.00">EELI10</text>
</g>
<!-- EELI11 -->
<g id="node41" class="node">
<title>EELI11</title>
<polygon fill="#bdc3c7" stroke="transparent" points="1008,-504 864,-504 864,-432 1008,-432 1008,-504"/>
<text text-anchor="middle" x="936" y="-464.3" font-family="Times New Roman,serif" font-size="14.00">EELI11</text>
</g>
<!-- FISI06 -->
<g id="node42" class="node">
<title>FISI06</title>
<polygon fill="#bdc3c7" stroke="transparent" points="1008,-288 864,-288 864,-216 1008,-216 1008,-288"/>
<text text-anchor="middle" x="936" y="-248.3" font-family="Times New Roman,serif" font-size="14.00">FISI06</text>
</g>
<!-- ECAI29 -->
<g id="node43" class="node">
<title>ECAI29</title>
<polygon fill="#bdc3c7" stroke="transparent" points="1224,-1800 1080,-1800 1080,-1728 1224,-1728 1224,-1800"/>
<text text-anchor="middle" x="1152" y="-1760.3" font-family="Times New Roman,serif" font-size="14.00">ECAI29</text>
</g>
<!-- ECOI15 -->
<g id="node44" class="node">
<title>ECOI15</title>
<polygon fill="#bdc3c7" stroke="transparent" points="1224,-1584 1080,-1584 1080,-1512 1224,-1512 1224,-1584"/>
<text text-anchor="middle" x="1152" y="-1544.3" font-family="Times New Roman,serif" font-size="14.00">ECOI15</text>
</g>
<!-- ECOI16 -->
<g id="node45" class="node">
<title>ECOI16</title>
<polygon fill="#bdc3c7" stroke="transparent" points="1224,-1368 1080,-1368 1080,-1296 1224,-1296 1224,-1368"/>
<text text-anchor="middle" x="1152" y="-1328.3" font-family="Times New Roman,serif" font-size="14.00">ECOI16</text>
</g>
<!-- ECAI04 -->
<g id="node51" class="node">
<title>ECAI04</title>
<polygon fill="#bdc3c7" stroke="transparent" points="1440,-1800 1296,-1800 1296,-1728 1440,-1728 1440,-1800"/>
<text text-anchor="middle" x="1368" y="-1760.3" font-family="Times New Roman,serif" font-size="14.00">ECAI04</text>
</g>
<!-- ECOI32&#45;&gt;ECAI04 -->
<g id="edge7" class="edge">
<title>ECOI32&#45;&gt;ECAI04</title>
<path fill="none" stroke="#bd1c32" d="M1224.15,-1144C1225.97,-1144 1227,-1144 1227,-1144 1227,-1144 1227,-1788 1227,-1788 1227,-1788 1285.85,-1788 1285.85,-1788"/>
<polygon fill="#bd1c32" stroke="#bd1c32" points="1285.85,-1791.5 1295.85,-1788 1285.85,-1784.5 1285.85,-1791.5"/>
<text text-anchor="middle" x="1214.5" y="-1497.8" font-family="Times New Roman,serif" font-size="14.00">0.26</text>
</g>
<!-- ECAI11 -->
<g id="node52" class="node">
<title>ECAI11</title>
<polygon fill="#bdc3c7" stroke="transparent" points="1440,-1584 1296,-1584 1296,-1512 1440,-1512 1440,-1584"/>
<text text-anchor="middle" x="1368" y="-1544.3" font-family="Times New Roman,serif" font-size="14.00">ECAI11</text>
</g>
<!-- ECOI32&#45;&gt;ECAI11 -->
<g id="edge8" class="edge">
<title>ECOI32&#45;&gt;ECAI11</title>
<path fill="none" stroke="#bd1c32" d="M1224.24,-1137C1233.04,-1137 1239,-1137 1239,-1137 1239,-1137 1239,-1572 1239,-1572 1239,-1572 1285.96,-1572 1285.96,-1572"/>
<polygon fill="#bd1c32" stroke="#bd1c32" points="1285.96,-1575.5 1295.96,-1572 1285.96,-1568.5 1285.96,-1575.5"/>
<text text-anchor="middle" x="1251.5" y="-1374.4" font-family="Times New Roman,serif" font-size="14.00">0.26</text>
</g>
<!-- ECAI13 -->
<g id="node53" class="node">
<title>ECAI13</title>
<polygon fill="#bdc3c7" stroke="transparent" points="1440,-1368 1296,-1368 1296,-1296 1440,-1296 1440,-1368"/>
<text text-anchor="middle" x="1368" y="-1328.3" font-family="Times New Roman,serif" font-size="14.00">ECAI13</text>
</g>
<!-- ECOI32&#45;&gt;ECAI13 -->
<g id="edge9" class="edge">
<title>ECOI32&#45;&gt;ECAI13</title>
<path fill="none" stroke="#bd1c32" d="M1224.21,-1130C1239.43,-1130 1251,-1130 1251,-1130 1251,-1130 1251,-1356 1251,-1356 1251,-1356 1285.9,-1356 1285.9,-1356"/>
<polygon fill="#bd1c32" stroke="#bd1c32" points="1285.9,-1359.5 1295.9,-1356 1285.9,-1352.5 1285.9,-1359.5"/>
<text text-anchor="middle" x="1238.5" y="-1235.85" font-family="Times New Roman,serif" font-size="14.00">0.26</text>
</g>
<!-- ECAI44 -->
<g id="node54" class="node">
<title>ECAI44</title>
<polygon fill="#bdc3c7" stroke="transparent" points="1440,-1152 1296,-1152 1296,-1080 1440,-1080 1440,-1152"/>
<text text-anchor="middle" x="1368" y="-1112.3" font-family="Times New Roman,serif" font-size="14.00">ECAI44</text>
</g>
<!-- ECOI32&#45;&gt;ECAI44 -->
<g id="edge10" class="edge">
<title>ECOI32&#45;&gt;ECAI44</title>
<path fill="none" stroke="#bd1c32" d="M1224.23,-1123C1224.23,-1123 1285.84,-1123 1285.84,-1123"/>
<polygon fill="#bd1c32" stroke="#bd1c32" points="1285.84,-1126.5 1295.84,-1123 1285.84,-1119.5 1285.84,-1126.5"/>
<text text-anchor="middle" x="1242.53" y="-1111.8" font-family="Times New Roman,serif" font-size="14.00">0.26</text>
</g>
<!-- ECOI33 -->
<g id="node58" class="node">
<title>ECOI33</title>
<polygon fill="#bdc3c7" stroke="transparent" points="1440,-288 1296,-288 1296,-216 1440,-216 1440,-288"/>
<text text-anchor="middle" x="1368" y="-248.3" font-family="Times New Roman,serif" font-size="14.00">ECOI33</text>
</g>
<!-- ECOI32&#45;&gt;ECOI33 -->
<g id="edge11" class="edge">
<title>ECOI32&#45;&gt;ECOI33</title>
<path fill="none" stroke="#bd1c32" d="M1224.04,-1116C1253.59,-1116 1281,-1116 1281,-1116 1281,-1116 1281,-251 1281,-251 1281,-251 1285.76,-251 1285.76,-251"/>
<polygon fill="#bd1c32" stroke="#bd1c32" points="1285.76,-254.5 1295.76,-251 1285.76,-247.5 1285.76,-254.5"/>
<text text-anchor="middle" x="1268.5" y="-713.4" font-family="Times New Roman,serif" font-size="14.00">0.26</text>
</g>
<!-- EELI12&#45;&gt;ECAI04 -->
<g id="edge12" class="edge">
<title>EELI12&#45;&gt;ECAI04</title>
<path fill="none" stroke="#bd1c32" d="M1224.14,-924C1227.8,-924 1230,-924 1230,-924 1230,-924 1230,-1776 1230,-1776 1230,-1776 1285.77,-1776 1285.77,-1776"/>
<polygon fill="#bd1c32" stroke="#bd1c32" points="1285.77,-1779.5 1295.77,-1776 1285.77,-1772.5 1285.77,-1779.5"/>
<text text-anchor="middle" x="1217.5" y="-1378.75" font-family="Times New Roman,serif" font-size="14.00">0.19</text>
</g>
<!-- EELI12&#45;&gt;ECAI11 -->
<g id="edge13" class="edge">
<title>EELI12&#45;&gt;ECAI11</title>
<path fill="none" stroke="#bd1c32" d="M1224.22,-912C1234.68,-912 1242,-912 1242,-912 1242,-912 1242,-1560 1242,-1560 1242,-1560 1285.8,-1560 1285.8,-1560"/>
<polygon fill="#bd1c32" stroke="#bd1c32" points="1285.8,-1563.5 1295.8,-1560 1285.8,-1556.5 1285.8,-1563.5"/>
<text text-anchor="middle" x="1254.5" y="-1252.81" font-family="Times New Roman,serif" font-size="14.00">0.19</text>
</g>
<!-- EELI12&#45;&gt;ECAI13 -->
<g id="edge14" class="edge">
<title>EELI12&#45;&gt;ECAI13</title>
<path fill="none" stroke="#bd1c32" d="M1224.22,-900C1240.97,-900 1254,-900 1254,-900 1254,-900 1254,-1344 1254,-1344 1254,-1344 1285.8,-1344 1285.8,-1344"/>
<polygon fill="#bd1c32" stroke="#bd1c32" points="1285.8,-1347.5 1295.8,-1344 1285.8,-1340.5 1285.8,-1347.5"/>
<text text-anchor="middle" x="1266.5" y="-1126.81" font-family="Times New Roman,serif" font-size="14.00">0.19</text>
</g>
<!-- EELI12&#45;&gt;ECAI44 -->
<g id="edge15" class="edge">
<title>EELI12&#45;&gt;ECAI44</title>
<path fill="none" stroke="#bd1c32" d="M1224.18,-888C1245.38,-888 1263,-888 1263,-888 1263,-888 1263,-1108 1263,-1108 1263,-1108 1285.93,-1108 1285.93,-1108"/>
<polygon fill="#bd1c32" stroke="#bd1c32" points="1285.93,-1111.5 1295.93,-1108 1285.93,-1104.5 1285.93,-1111.5"/>
<text text-anchor="middle" x="1250.5" y="-993.86" font-family="Times New Roman,serif" font-size="14.00">0.19</text>
</g>
<!-- EELI12&#45;&gt;ECOI33 -->
<g id="edge16" class="edge">
<title>EELI12&#45;&gt;ECOI33</title>
<path fill="none" stroke="#bd1c32" d="M1224.2,-876C1252.35,-876 1278,-876 1278,-876 1278,-876 1278,-244 1278,-244 1278,-244 1285.78,-244 1285.78,-244"/>
<polygon fill="#bd1c32" stroke="#bd1c32" points="1285.78,-247.5 1295.78,-244 1285.78,-240.5 1285.78,-247.5"/>
<text text-anchor="middle" x="1265.5" y="-586.81" font-family="Times New Roman,serif" font-size="14.00">0.19</text>
</g>
<!-- EELI13&#45;&gt;ECAI04 -->
<g id="edge17" class="edge">
<title>EELI13&#45;&gt;ECAI04</title>
<path fill="none" stroke="#bd1c32" d="M1224.02,-708C1229.53,-708 1233,-708 1233,-708 1233,-708 1233,-1764 1233,-1764 1233,-1764 1285.76,-1764 1285.76,-1764"/>
<polygon fill="#bd1c32" stroke="#bd1c32" points="1285.76,-1767.5 1295.76,-1764 1285.76,-1760.5 1285.76,-1767.5"/>
<text text-anchor="middle" x="1220.5" y="-1261.69" font-family="Times New Roman,serif" font-size="14.00">0.19</text>
</g>
<!-- EELI13&#45;&gt;ECAI11 -->
<g id="edge18" class="edge">
<title>EELI13&#45;&gt;ECAI11</title>
<path fill="none" stroke="#bd1c32" d="M1224.36,-696C1236.37,-696 1245,-696 1245,-696 1245,-696 1245,-1548 1245,-1548 1245,-1548 1285.74,-1548 1285.74,-1548"/>
<polygon fill="#bd1c32" stroke="#bd1c32" points="1285.74,-1551.5 1295.74,-1548 1285.74,-1544.5 1285.74,-1551.5"/>
<text text-anchor="middle" x="1232.5" y="-1135.85" font-family="Times New Roman,serif" font-size="14.00">0.19</text>
</g>
<!-- EELI13&#45;&gt;ECAI13 -->
<g id="edge19" class="edge">
<title>EELI13&#45;&gt;ECAI13</title>
<path fill="none" stroke="#bd1c32" d="M1224.07,-684C1242.39,-684 1257,-684 1257,-684 1257,-684 1257,-1332 1257,-1332 1257,-1332 1285.82,-1332 1285.82,-1332"/>
<polygon fill="#bd1c32" stroke="#bd1c32" points="1285.82,-1335.5 1295.82,-1332 1285.82,-1328.5 1285.82,-1335.5"/>
<text text-anchor="middle" x="1269.5" y="-1009.74" font-family="Times New Roman,serif" font-size="14.00">0.19</text>
</g>
<!-- EELI13&#45;&gt;ECAI44 -->
<g id="edge20" class="edge">
<title>EELI13&#45;&gt;ECAI44</title>
<path fill="none" stroke="#bd1c32" d="M1224.2,-672C1246.82,-672 1266,-672 1266,-672 1266,-672 1266,-1101 1266,-1101 1266,-1101 1285.78,-1101 1285.78,-1101"/>
<polygon fill="#bd1c32" stroke="#bd1c32" points="1285.78,-1104.5 1295.78,-1101 1285.78,-1097.5 1285.78,-1104.5"/>
<text text-anchor="middle" x="1253.5" y="-864.29" font-family="Times New Roman,serif" font-size="14.00">0.19</text>
</g>
<!-- EELI13&#45;&gt;ECOI33 -->
<g id="edge21" class="edge">
<title>EELI13&#45;&gt;ECOI33</title>
<path fill="none" stroke="#bd1c32" d="M1224.26,-660C1251.03,-660 1275,-660 1275,-660 1275,-660 1275,-237 1275,-237 1275,-237 1285.64,-237 1285.64,-237"/>
<polygon fill="#bd1c32" stroke="#bd1c32" points="1285.64,-240.5 1295.64,-237 1285.64,-233.5 1285.64,-240.5"/>
<text text-anchor="middle" x="1262.5" y="-472.35" font-family="Times New Roman,serif" font-size="14.00">0.19</text>
</g>
<!-- EELI14&#45;&gt;ECAI04 -->
<g id="edge22" class="edge">
<title>EELI14&#45;&gt;ECAI04</title>
<path fill="none" stroke="#bd1c32" d="M1224.32,-492C1231.39,-492 1236,-492 1236,-492 1236,-492 1236,-1752 1236,-1752 1236,-1752 1285.82,-1752 1285.82,-1752"/>
<polygon fill="#bd1c32" stroke="#bd1c32" points="1285.82,-1755.5 1295.82,-1752 1285.82,-1748.5 1285.82,-1755.5"/>
<text text-anchor="middle" x="1248.5" y="-1144.87" font-family="Times New Roman,serif" font-size="14.00">0.19</text>
</g>
<!-- EELI14&#45;&gt;ECAI11 -->
<g id="edge23" class="edge">
<title>EELI14&#45;&gt;ECAI11</title>
<path fill="none" stroke="#bd1c32" d="M1224.27,-480C1237.91,-480 1248,-480 1248,-480 1248,-480 1248,-1536 1248,-1536 1248,-1536 1285.77,-1536 1285.77,-1536"/>
<polygon fill="#bd1c32" stroke="#bd1c32" points="1285.77,-1539.5 1295.77,-1536 1285.77,-1532.5 1285.77,-1539.5"/>
<text text-anchor="middle" x="1235.5" y="-1018.82" font-family="Times New Roman,serif" font-size="14.00">0.19</text>
</g>
<!-- EELI14&#45;&gt;ECAI13 -->
<g id="edge24" class="edge">
<title>EELI14&#45;&gt;ECAI13</title>
<path fill="none" stroke="#bd1c32" d="M1224.04,-468C1243.85,-468 1260,-468 1260,-468 1260,-468 1260,-1320 1260,-1320 1260,-1320 1285.96,-1320 1285.96,-1320"/>
<polygon fill="#bd1c32" stroke="#bd1c32" points="1285.96,-1323.5 1295.96,-1320 1285.96,-1316.5 1285.96,-1323.5"/>
<text text-anchor="middle" x="1247.5" y="-892.8" font-family="Times New Roman,serif" font-size="14.00">0.19</text>
</g>
<!-- EELI14&#45;&gt;ECAI44 -->
<g id="edge25" class="edge">
<title>EELI14&#45;&gt;ECAI44</title>
<path fill="none" stroke="#bd1c32" d="M1224.1,-456C1248.18,-456 1269,-456 1269,-456 1269,-456 1269,-1094 1269,-1094 1269,-1094 1285.79,-1094 1285.79,-1094"/>
<polygon fill="#bd1c32" stroke="#bd1c32" points="1285.79,-1097.5 1295.79,-1094 1285.79,-1090.5 1285.79,-1097.5"/>
<text text-anchor="middle" x="1256.5" y="-764.75" font-family="Times New Roman,serif" font-size="14.00">0.19</text>
</g>
<!-- EELI14&#45;&gt;ECOI33 -->
<g id="edge26" class="edge">
<title>EELI14&#45;&gt;ECOI33</title>
<path fill="none" stroke="#bd1c32" d="M1224.23,-444C1249.64,-444 1272,-444 1272,-444 1272,-444 1272,-230 1272,-230 1272,-230 1285.73,-230 1285.73,-230"/>
<polygon fill="#bd1c32" stroke="#bd1c32" points="1285.73,-233.5 1295.73,-230 1285.73,-226.5 1285.73,-233.5"/>
<text text-anchor="middle" x="1259.5" y="-357.82" font-family="Times New Roman,serif" font-size="14.00">0.19</text>
</g>
<!-- EELI15&#45;&gt;ECAI04 -->
<g id="edge27" class="edge">
<title>EELI15&#45;&gt;ECAI04</title>
<path fill="none" stroke="#bd1c32" d="M1224.18,-280C1255,-280 1284,-280 1284,-280 1284,-280 1284,-1740 1284,-1740 1284,-1740 1285.68,-1740 1285.68,-1740"/>
<polygon fill="#bd1c32" stroke="#bd1c32" points="1285.68,-1743.5 1295.68,-1740 1285.68,-1736.5 1285.68,-1743.5"/>
<text text-anchor="middle" x="1271.5" y="-969.73" font-family="Times New Roman,serif" font-size="14.00">0.19</text>
</g>
<!-- EELI15&#45;&gt;ECAI11 -->
<g id="edge28" class="edge">
<title>EELI15&#45;&gt;ECAI11</title>
<path fill="none" stroke="#bd1c32" d="M1224.24,-273C1256.34,-273 1287,-273 1287,-273 1287,-273 1287,-1524 1287,-1524 1287,-1524 1287.9,-1524 1287.9,-1524"/>
<polygon fill="#bd1c32" stroke="#bd1c32" points="1285.98,-1527.5 1295.98,-1524 1285.98,-1520.5 1285.98,-1527.5"/>
<text text-anchor="middle" x="1280.75" y="-856.37" font-family="Times New Roman,serif" font-size="14.00">0.19</text>
</g>
<!-- EELI15&#45;&gt;ECAI13 -->
<g id="edge29" class="edge">
<title>EELI15&#45;&gt;ECAI13</title>
<path fill="none" stroke="#bd1c32" d="M1224.23,-266C1257.62,-266 1290,-266 1290,-266 1290,-266 1290,-1308 1290,-1308 1290,-1308 1290.59,-1308 1290.59,-1308"/>
<polygon fill="#bd1c32" stroke="#bd1c32" points="1285.86,-1311.5 1295.86,-1308 1285.86,-1304.5 1285.86,-1311.5"/>
<text text-anchor="middle" x="1277.5" y="-743.21" font-family="Times New Roman,serif" font-size="14.00">0.19</text>
</g>
<!-- EELI15&#45;&gt;ECAI44 -->
<g id="edge30" class="edge">
<title>EELI15&#45;&gt;ECAI44</title>
<path fill="none" stroke="#bd1c32" d="M1224.15,-259C1258.84,-259 1293,-259 1293,-259 1293,-259 1293,-1087 1293,-1087 1293,-1087 1293.29,-1087 1293.29,-1087"/>
<polygon fill="#bd1c32" stroke="#bd1c32" points="1285.85,-1090.5 1295.85,-1087 1285.85,-1083.5 1285.85,-1090.5"/>
<text text-anchor="middle" x="1280.5" y="-642.52" font-family="Times New Roman,serif" font-size="14.00">0.19</text>
</g>
<!-- EELI15&#45;&gt;ECOI33 -->
<g id="edge31" class="edge">
<title>EELI15&#45;&gt;ECOI33</title>
<path fill="none" stroke="#bd1c32" d="M1224.23,-223C1224.23,-223 1285.84,-223 1285.84,-223"/>
<polygon fill="#bd1c32" stroke="#bd1c32" points="1285.84,-226.5 1295.84,-223 1285.84,-219.5 1285.84,-226.5"/>
<text text-anchor="middle" x="1242.53" y="-226.8" font-family="Times New Roman,serif" font-size="14.00">0.19</text>
</g>
<!-- ECAI05 -->
<g id="node59" class="node">
<title>ECAI05</title>
<polygon fill="#bdc3c7" stroke="transparent" points="1656,-1800 1512,-1800 1512,-1728 1656,-1728 1656,-1800"/>
<text text-anchor="middle" x="1584" y="-1760.3" font-family="Times New Roman,serif" font-size="14.00">ECAI05</text>
</g>
<!-- ECAI04&#45;&gt;ECAI05 -->
<g id="edge32" class="edge">
<title>ECAI04&#45;&gt;ECAI05</title>
<path fill="none" stroke="#bd1c32" d="M1440.23,-1791C1440.23,-1791 1501.84,-1791 1501.84,-1791"/>
<polygon fill="#bd1c32" stroke="#bd1c32" points="1501.84,-1794.5 1511.84,-1791 1501.84,-1787.5 1501.84,-1794.5"/>
<text text-anchor="middle" x="1458.53" y="-1794.8" font-family="Times New Roman,serif" font-size="14.00">0.18</text>
</g>
<!-- ECAI07 -->
<g id="node60" class="node">
<title>ECAI07</title>
<polygon fill="#bdc3c7" stroke="transparent" points="1656,-1584 1512,-1584 1512,-1512 1656,-1512 1656,-1584"/>
<text text-anchor="middle" x="1584" y="-1544.3" font-family="Times New Roman,serif" font-size="14.00">ECAI07</text>
</g>
<!-- ECAI04&#45;&gt;ECAI07 -->
<g id="edge33" class="edge">
<title>ECAI04&#45;&gt;ECAI07</title>
<path fill="none" stroke="#bd1c32" d="M1440.07,-1746C1473.71,-1746 1506.46,-1746 1506.46,-1746 1506.46,-1746 1506.46,-1566 1506.46,-1566 1506.46,-1566 1506.99,-1566 1506.99,-1566"/>
<polygon fill="#bd1c32" stroke="#bd1c32" points="1501.79,-1569.5 1511.79,-1566 1501.79,-1562.5 1501.79,-1569.5"/>
<text text-anchor="middle" x="1493.96" y="-1692.73" font-family="Times New Roman,serif" font-size="14.00">0.18</text>
</g>
<!-- ECOI07 -->
<g id="node61" class="node">
<title>ECOI07</title>
<polygon fill="#bdc3c7" stroke="transparent" points="1656,-1368 1512,-1368 1512,-1296 1656,-1296 1656,-1368"/>
<text text-anchor="middle" x="1584" y="-1328.3" font-family="Times New Roman,serif" font-size="14.00">ECOI07</text>
</g>
<!-- ECAI04&#45;&gt;ECOI07 -->
<g id="edge34" class="edge">
<title>ECAI04&#45;&gt;ECOI07</title>
<path fill="none" stroke="#bd1c32" d="M1440.29,-1737C1466.52,-1737 1489.85,-1737 1489.85,-1737 1489.85,-1737 1489.85,-1359 1489.85,-1359 1489.85,-1359 1501.68,-1359 1501.68,-1359"/>
<polygon fill="#bd1c32" stroke="#bd1c32" points="1501.68,-1362.5 1511.68,-1359 1501.68,-1355.5 1501.68,-1362.5"/>
<text text-anchor="middle" x="1477.35" y="-1570.66" font-family="Times New Roman,serif" font-size="14.00">0.18</text>
</g>
<!-- ECAI11&#45;&gt;ECAI05 -->
<g id="edge35" class="edge">
<title>ECAI11&#45;&gt;ECAI05</title>
<path fill="none" stroke="#bd1c32" d="M1440.21,-1575C1443.55,-1575 1445.54,-1575 1445.54,-1575 1445.54,-1575 1445.54,-1782 1445.54,-1782 1445.54,-1782 1501.93,-1782 1501.93,-1782"/>
<polygon fill="#bd1c32" stroke="#bd1c32" points="1501.93,-1785.5 1511.93,-1782 1501.93,-1778.5 1501.93,-1785.5"/>
<text text-anchor="middle" x="1433.04" y="-1707.83" font-family="Times New Roman,serif" font-size="14.00">0.21</text>
</g>
<!-- ECAI11&#45;&gt;ECAI07 -->
<g id="edge36" class="edge">
<title>ECAI11&#45;&gt;ECAI07</title>
<path fill="none" stroke="#bd1c32" d="M1440.23,-1557C1440.23,-1557 1501.84,-1557 1501.84,-1557"/>
<polygon fill="#bd1c32" stroke="#bd1c32" points="1501.84,-1560.5 1511.84,-1557 1501.84,-1553.5 1501.84,-1560.5"/>
<text text-anchor="middle" x="1458.53" y="-1545.8" font-family="Times New Roman,serif" font-size="14.00">0.21</text>
</g>
<!-- ECAI11&#45;&gt;ECOI07 -->
<g id="edge37" class="edge">
<title>ECAI11&#45;&gt;ECOI07</title>
<path fill="none" stroke="#bd1c32" d="M1440.32,-1548C1452.96,-1548 1462.15,-1548 1462.15,-1548 1462.15,-1548 1462.15,-1341 1462.15,-1341 1462.15,-1341 1501.71,-1341 1501.71,-1341"/>
<polygon fill="#bd1c32" stroke="#bd1c32" points="1501.71,-1344.5 1511.71,-1341 1501.71,-1337.5 1501.71,-1344.5"/>
<text text-anchor="middle" x="1449.65" y="-1439.44" font-family="Times New Roman,serif" font-size="14.00">0.21</text>
</g>
<!-- ECAI13&#45;&gt;ECAI05 -->
<g id="edge38" class="edge">
<title>ECAI13&#45;&gt;ECAI05</title>
<path fill="none" stroke="#bd1c32" d="M1440.19,-1350C1455.78,-1350 1467.69,-1350 1467.69,-1350 1467.69,-1350 1467.69,-1773 1467.69,-1773 1467.69,-1773 1502,-1773 1502,-1773"/>
<polygon fill="#bd1c32" stroke="#bd1c32" points="1502,-1776.5 1512,-1773 1502,-1769.5 1502,-1776.5"/>
<text text-anchor="middle" x="1480.19" y="-1553.7" font-family="Times New Roman,serif" font-size="14.00">0.18</text>
</g>
<!-- ECAI13&#45;&gt;ECAI07 -->
<g id="edge39" class="edge">
<title>ECAI13&#45;&gt;ECAI07</title>
<path fill="none" stroke="#bd1c32" d="M1440.22,-1332C1446.81,-1332 1451.08,-1332 1451.08,-1332 1451.08,-1332 1451.08,-1539 1451.08,-1539 1451.08,-1539 1501.7,-1539 1501.7,-1539"/>
<polygon fill="#bd1c32" stroke="#bd1c32" points="1501.7,-1542.5 1511.7,-1539 1501.7,-1535.5 1501.7,-1542.5"/>
<text text-anchor="middle" x="1438.58" y="-1459.18" font-family="Times New Roman,serif" font-size="14.00">0.18</text>
</g>
<!-- ECAI13&#45;&gt;ECOI07 -->
<g id="edge40" class="edge">
<title>ECAI13&#45;&gt;ECOI07</title>
<path fill="none" stroke="#bd1c32" d="M1440.23,-1323C1440.23,-1323 1501.84,-1323 1501.84,-1323"/>
<polygon fill="#bd1c32" stroke="#bd1c32" points="1501.84,-1326.5 1511.84,-1323 1501.84,-1319.5 1501.84,-1326.5"/>
<text text-anchor="middle" x="1458.53" y="-1311.8" font-family="Times New Roman,serif" font-size="14.00">0.18</text>
</g>
<!-- ECAI44&#45;&gt;ECAI05 -->
<g id="edge41" class="edge">
<title>ECAI44&#45;&gt;ECAI05</title>
<path fill="none" stroke="#bd1c32" d="M1440.22,-1134C1458.59,-1134 1473.23,-1134 1473.23,-1134 1473.23,-1134 1473.23,-1764 1473.23,-1764 1473.23,-1764 1501.97,-1764 1501.97,-1764"/>
<polygon fill="#bd1c32" stroke="#bd1c32" points="1501.97,-1767.5 1511.97,-1764 1501.97,-1760.5 1501.97,-1767.5"/>
<text text-anchor="middle" x="1485.73" y="-1450.67" font-family="Times New Roman,serif" font-size="14.00">0.18</text>
</g>
<!-- ECAI44&#45;&gt;ECAI07 -->
<g id="edge42" class="edge">
<title>ECAI44&#45;&gt;ECAI07</title>
<path fill="none" stroke="#bd1c32" d="M1440.36,-1116C1449.99,-1116 1456.62,-1116 1456.62,-1116 1456.62,-1116 1456.62,-1530 1456.62,-1530 1456.62,-1530 1501.75,-1530 1501.75,-1530"/>
<polygon fill="#bd1c32" stroke="#bd1c32" points="1501.75,-1533.5 1511.75,-1530 1501.75,-1526.5 1501.75,-1533.5"/>
<text text-anchor="middle" x="1469.12" y="-1341.24" font-family="Times New Roman,serif" font-size="14.00">0.18</text>
</g>
<!-- ECAI44&#45;&gt;ECOI07 -->
<g id="edge43" class="edge">
<title>ECAI44&#45;&gt;ECOI07</title>
<path fill="none" stroke="#bd1c32" d="M1440.25,-1098C1469,-1098 1495.38,-1098 1495.38,-1098 1495.38,-1098 1495.38,-1314 1495.38,-1314 1495.38,-1314 1501.64,-1314 1501.64,-1314"/>
<polygon fill="#bd1c32" stroke="#bd1c32" points="1501.64,-1317.5 1511.64,-1314 1501.64,-1310.5 1501.64,-1317.5"/>
<text text-anchor="middle" x="1482.88" y="-1185.36" font-family="Times New Roman,serif" font-size="14.00">0.18</text>
</g>
<!-- ECOI13 -->
<g id="node55" class="node">
<title>ECOI13</title>
<polygon fill="#bdc3c7" stroke="transparent" points="1440,-936 1296,-936 1296,-864 1440,-864 1440,-936"/>
<text text-anchor="middle" x="1368" y="-896.3" font-family="Times New Roman,serif" font-size="14.00">ECOI13</text>
</g>
<!-- ECOI18 -->
<g id="node56" class="node">
<title>ECOI18</title>
<polygon fill="#bdc3c7" stroke="transparent" points="1440,-720 1296,-720 1296,-648 1440,-648 1440,-720"/>
<text text-anchor="middle" x="1368" y="-680.3" font-family="Times New Roman,serif" font-size="14.00">ECOI18</text>
</g>
<!-- ECOI19 -->
<g id="node57" class="node">
<title>ECOI19</title>
<polygon fill="#bdc3c7" stroke="transparent" points="1440,-504 1296,-504 1296,-432 1440,-432 1440,-504"/>
<text text-anchor="middle" x="1368" y="-464.3" font-family="Times New Roman,serif" font-size="14.00">ECOI19</text>
</g>
<!-- ECOI33&#45;&gt;ECAI05 -->
<g id="edge44" class="edge">
<title>ECOI33&#45;&gt;ECAI05</title>
<path fill="none" stroke="#bd1c32" d="M1440.03,-269C1461.18,-269 1478.77,-269 1478.77,-269 1478.77,-269 1478.77,-1755 1478.77,-1755 1478.77,-1755 1501.78,-1755 1501.78,-1755"/>
<polygon fill="#bd1c32" stroke="#bd1c32" points="1501.78,-1758.5 1511.78,-1755 1501.78,-1751.5 1501.78,-1758.5"/>
<text text-anchor="middle" x="1466.27" y="-1007.93" font-family="Times New Roman,serif" font-size="14.00">0.25</text>
</g>
<!-- ECOI33&#45;&gt;ECAI07 -->
<g id="edge45" class="edge">
<title>ECOI33&#45;&gt;ECAI07</title>
<path fill="none" stroke="#bd1c32" d="M1440.01,-251C1463.8,-251 1484.31,-251 1484.31,-251 1484.31,-251 1484.31,-1521 1484.31,-1521 1484.31,-1521 1501.81,-1521 1501.81,-1521"/>
<polygon fill="#bd1c32" stroke="#bd1c32" points="1501.81,-1524.5 1511.81,-1521 1501.81,-1517.5 1501.81,-1524.5"/>
<text text-anchor="middle" x="1471.81" y="-876.4" font-family="Times New Roman,serif" font-size="14.00">0.25</text>
</g>
<!-- ECOI33&#45;&gt;ECOI07 -->
<g id="edge46" class="edge">
<title>ECOI33&#45;&gt;ECOI07</title>
<path fill="none" stroke="#bd1c32" d="M1440.3,-233C1471.47,-233 1500.92,-233 1500.92,-233 1500.92,-233 1500.92,-1305 1500.92,-1305 1500.92,-1305 1502.01,-1305 1502.01,-1305"/>
<polygon fill="#bd1c32" stroke="#bd1c32" points="1501.78,-1308.5 1511.78,-1305 1501.78,-1301.5 1501.78,-1308.5"/>
<text text-anchor="middle" x="1488.42" y="-743.03" font-family="Times New Roman,serif" font-size="14.00">0.25</text>
</g>
<!-- ECOI21 -->
<g id="node62" class="node">
<title>ECOI21</title>
<polygon fill="#bdc3c7" stroke="transparent" points="1656,-1152 1512,-1152 1512,-1080 1656,-1080 1656,-1152"/>
<text text-anchor="middle" x="1584" y="-1112.3" font-family="Times New Roman,serif" font-size="14.00">ECOI21</text>
</g>
<!-- ECOI24 -->
<g id="node63" class="node">
<title>ECOI24</title>
<polygon fill="#bdc3c7" stroke="transparent" points="1656,-936 1512,-936 1512,-864 1656,-864 1656,-936"/>
<text text-anchor="middle" x="1584" y="-896.3" font-family="Times New Roman,serif" font-size="14.00">ECOI24</text>
</g>
<!-- ECOI26 -->
<g id="node64" class="node">
<title>ECOI26</title>
<polygon fill="#bdc3c7" stroke="transparent" points="1656,-720 1512,-720 1512,-648 1656,-648 1656,-720"/>
<text text-anchor="middle" x="1584" y="-680.3" font-family="Times New Roman,serif" font-size="14.00">ECOI26</text>
</g>
<!-- EPRI30 -->
<g id="node65" class="node">
<title>EPRI30</title>
<polygon fill="#bdc3c7" stroke="transparent" points="1656,-504 1512,-504 1512,-432 1656,-432 1656,-504"/>
<text text-anchor="middle" x="1584" y="-464.3" font-family="Times New Roman,serif" font-size="14.00">EPRI30</text>
</g>
<!-- EAMI30 -->
<g id="node66" class="node">
<title>EAMI30</title>
<polygon fill="#bdc3c7" stroke="transparent" points="1872,-1800 1728,-1800 1728,-1728 1872,-1728 1872,-1800"/>
<text text-anchor="middle" x="1800" y="-1760.3" font-family="Times New Roman,serif" font-size="14.00">EAMI30</text>
</g>
<!-- ECOI20 -->
<g id="node67" class="node">
<title>ECOI20</title>
<polygon fill="#bdc3c7" stroke="transparent" points="1872,-1584 1728,-1584 1728,-1512 1872,-1512 1872,-1584"/>
<text text-anchor="middle" x="1800" y="-1544.3" font-family="Times New Roman,serif" font-size="14.00">ECOI20</text>
</g>
<!-- ECOI22 -->
<g id="node68" class="node">
<title>ECOI22</title>
<polygon fill="#bdc3c7" stroke="transparent" points="1872,-1368 1728,-1368 1728,-1296 1872,-1296 1872,-1368"/>
<text text-anchor="middle" x="1800" y="-1328.3" font-family="Times New Roman,serif" font-size="14.00">ECOI22</text>
</g>
<!-- ECOI23 -->
<g id="node69" class="node">
<title>ECOI23</title>
<polygon fill="#bdc3c7" stroke="transparent" points="1872,-1152 1728,-1152 1728,-1080 1872,-1080 1872,-1152"/>
<text text-anchor="middle" x="1800" y="-1112.3" font-family="Times New Roman,serif" font-size="14.00">ECOI23</text>
</g>
<!-- ECOI25 -->
<g id="node70" class="node">
<title>ECOI25</title>
<polygon fill="#bdc3c7" stroke="transparent" points="1872,-936 1728,-936 1728,-864 1872,-864 1872,-936"/>
<text text-anchor="middle" x="1800" y="-896.3" font-family="Times New Roman,serif" font-size="14.00">ECOI25</text>
</g>
<!-- EPRI02 -->
<g id="node71" class="node">
<title>EPRI02</title>
<polygon fill="#bdc3c7" stroke="transparent" points="1872,-720 1728,-720 1728,-648 1872,-648 1872,-720"/>
<text text-anchor="middle" x="1800" y="-680.3" font-family="Times New Roman,serif" font-size="14.00">EPRI02</text>
</g>
<!-- EPRI04 -->
<g id="node72" class="node">
<title>EPRI04</title>
<polygon fill="#bdc3c7" stroke="transparent" points="1872,-504 1728,-504 1728,-432 1872,-432 1872,-504"/>
<text text-anchor="middle" x="1800" y="-464.3" font-family="Times New Roman,serif" font-size="14.00">EPRI04</text>
</g>
<!-- HUMI04 -->
<g id="node73" class="node">
<title>HUMI04</title>
<polygon fill="#bdc3c7" stroke="transparent" points="1872,-288 1728,-288 1728,-216 1872,-216 1872,-288"/>
<text text-anchor="middle" x="1800" y="-248.3" font-family="Times New Roman,serif" font-size="14.00">HUMI04</text>
</g>
</g>
</svg>
