<?xml version="1.0" encoding="UTF-8" standalone="no"?>
<!DOCTYPE svg PUBLIC "-//W3C//DTD SVG 1.1//EN"
 "http://www.w3.org/Graphics/SVG/1.1/DTD/svg11.dtd">
<!-- Generated by graphviz version 2.43.0 (0)
 -->
<!-- Title: SistemasMicroprocessados.dot Pages: 1 -->
<svg width="1880pt" height="1815pt"
 viewBox="0.00 0.00 1880.00 1815.00" xmlns="http://www.w3.org/2000/svg" xmlns:xlink="http://www.w3.org/1999/xlink">
<g id="graph0" class="graph" transform="scale(1 1) rotate(0) translate(4 1811)">
<title>SistemasMicroprocessados.dot</title>
<polygon fill="white" stroke="transparent" points="-4,4 -4,-1811 1876,-1811 1876,4 -4,4"/>
<!-- ECOI01 -->
<g id="node1" class="node">
<title>ECOI01</title>
<polygon fill="#bdc3c7" stroke="transparent" points="144,-1800 0,-1800 0,-1728 144,-1728 144,-1800"/>
<text text-anchor="middle" x="72" y="-1760.3" font-family="Times,serif" font-size="14.00">ECOI01</text>
</g>
<!-- ECOI02 -->
<g id="node2" class="node">
<title>ECOI02</title>
<polygon fill="#bdc3c7" stroke="transparent" points="144,-1584 0,-1584 0,-1512 144,-1512 144,-1584"/>
<text text-anchor="middle" x="72" y="-1544.3" font-family="Times,serif" font-size="14.00">ECOI02</text>
</g>
<!-- ECOI03 -->
<g id="node3" class="node">
<title>ECOI03</title>
<polygon fill="#bdc3c7" stroke="transparent" points="144,-1368 0,-1368 0,-1296 144,-1296 144,-1368"/>
<text text-anchor="middle" x="72" y="-1328.3" font-family="Times,serif" font-size="14.00">ECOI03</text>
</g>
<!-- EMEI02 -->
<g id="node4" class="node">
<title>EMEI02</title>
<polygon fill="#bdc3c7" stroke="transparent" points="144,-1152 0,-1152 0,-1080 144,-1080 144,-1152"/>
<text text-anchor="middle" x="72" y="-1112.3" font-family="Times,serif" font-size="14.00">EMEI02</text>
</g>
<!-- FISI01 -->
<g id="node5" class="node">
<title>FISI01</title>
<polygon fill="#bdc3c7" stroke="transparent" points="144,-936 0,-936 0,-864 144,-864 144,-936"/>
<text text-anchor="middle" x="72" y="-896.3" font-family="Times,serif" font-size="14.00">FISI01</text>
</g>
<!-- HUMI01 -->
<g id="node6" class="node">
<title>HUMI01</title>
<polygon fill="#bdc3c7" stroke="transparent" points="144,-720 0,-720 0,-648 144,-648 144,-720"/>
<text text-anchor="middle" x="72" y="-680.3" font-family="Times,serif" font-size="14.00">HUMI01</text>
</g>
<!-- HUMI02 -->
<g id="node7" class="node">
<title>HUMI02</title>
<polygon fill="#bdc3c7" stroke="transparent" points="144,-504 0,-504 0,-432 144,-432 144,-504"/>
<text text-anchor="middle" x="72" y="-464.3" font-family="Times,serif" font-size="14.00">HUMI02</text>
</g>
<!-- MATI01 -->
<g id="node8" class="node">
<title>MATI01</title>
<polygon fill="#bdc3c7" stroke="transparent" points="144,-288 0,-288 0,-216 144,-216 144,-288"/>
<text text-anchor="middle" x="72" y="-248.3" font-family="Times,serif" font-size="14.00">MATI01</text>
</g>
<!-- MATI02 -->
<g id="node9" class="node">
<title>MATI02</title>
<polygon fill="#bdc3c7" stroke="transparent" points="144,-72 0,-72 0,0 144,0 144,-72"/>
<text text-anchor="middle" x="72" y="-32.3" font-family="Times,serif" font-size="14.00">MATI02</text>
</g>
<!-- ECOI04 -->
<g id="node10" class="node">
<title>ECOI04</title>
<polygon fill="#bdc3c7" stroke="transparent" points="360,-1800 216,-1800 216,-1728 360,-1728 360,-1800"/>
<text text-anchor="middle" x="288" y="-1760.3" font-family="Times,serif" font-size="14.00">ECOI04</text>
</g>
<!-- EELI02 -->
<g id="node11" class="node">
<title>EELI02</title>
<polygon fill="#bdc3c7" stroke="transparent" points="360,-1584 216,-1584 216,-1512 360,-1512 360,-1584"/>
<text text-anchor="middle" x="288" y="-1544.3" font-family="Times,serif" font-size="14.00">EELI02</text>
</g>
<!-- EELI03 -->
<g id="node12" class="node">
<title>EELI03</title>
<polygon fill="#bdc3c7" stroke="transparent" points="360,-1368 216,-1368 216,-1296 360,-1296 360,-1368"/>
<text text-anchor="middle" x="288" y="-1328.3" font-family="Times,serif" font-size="14.00">EELI03</text>
</g>
<!-- EMEI06 -->
<g id="node13" class="node">
<title>EMEI06</title>
<polygon fill="#bdc3c7" stroke="transparent" points="360,-1152 216,-1152 216,-1080 360,-1080 360,-1152"/>
<text text-anchor="middle" x="288" y="-1112.3" font-family="Times,serif" font-size="14.00">EMEI06</text>
</g>
<!-- EMTI02 -->
<g id="node14" class="node">
<title>EMTI02</title>
<polygon fill="#bdc3c7" stroke="transparent" points="360,-936 216,-936 216,-864 360,-864 360,-936"/>
<text text-anchor="middle" x="288" y="-896.3" font-family="Times,serif" font-size="14.00">EMTI02</text>
</g>
<!-- EMTI03 -->
<g id="node15" class="node">
<title>EMTI03</title>
<polygon fill="#bdc3c7" stroke="transparent" points="360,-720 216,-720 216,-648 360,-648 360,-720"/>
<text text-anchor="middle" x="288" y="-680.3" font-family="Times,serif" font-size="14.00">EMTI03</text>
</g>
<!-- FISI02 -->
<g id="node16" class="node">
<title>FISI02</title>
<polygon fill="#bdc3c7" stroke="transparent" points="360,-504 216,-504 216,-432 360,-432 360,-504"/>
<text text-anchor="middle" x="288" y="-464.3" font-family="Times,serif" font-size="14.00">FISI02</text>
</g>
<!-- FISI03 -->
<g id="node17" class="node">
<title>FISI03</title>
<polygon fill="#bdc3c7" stroke="transparent" points="360,-288 216,-288 216,-216 360,-216 360,-288"/>
<text text-anchor="middle" x="288" y="-248.3" font-family="Times,serif" font-size="14.00">FISI03</text>
</g>
<!-- MATI03 -->
<g id="node18" class="node">
<title>MATI03</title>
<polygon fill="#bdc3c7" stroke="transparent" points="360,-72 216,-72 216,0 360,0 360,-72"/>
<text text-anchor="middle" x="288" y="-32.3" font-family="Times,serif" font-size="14.00">MATI03</text>
</g>
<!-- ECOI08 -->
<g id="node19" class="node">
<title>ECOI08</title>
<polygon fill="#bdc3c7" stroke="transparent" points="576,-1800 432,-1800 432,-1728 576,-1728 576,-1800"/>
<text text-anchor="middle" x="504" y="-1760.3" font-family="Times,serif" font-size="14.00">ECOI08</text>
</g>
<!-- ECOI61 -->
<g id="node20" class="node">
<title>ECOI61</title>
<polygon fill="#bdc3c7" stroke="transparent" points="576,-1584 432,-1584 432,-1512 576,-1512 576,-1584"/>
<text text-anchor="middle" x="504" y="-1544.3" font-family="Times,serif" font-size="14.00">ECOI61</text>
</g>
<!-- EMBI02 -->
<g id="node21" class="node">
<title>EMBI02</title>
<polygon fill="#bdc3c7" stroke="transparent" points="576,-1368 432,-1368 432,-1296 576,-1296 576,-1368"/>
<text text-anchor="middle" x="504" y="-1328.3" font-family="Times,serif" font-size="14.00">EMBI02</text>
</g>
<!-- EMEI07 -->
<g id="node22" class="node">
<title>EMEI07</title>
<polygon fill="#bdc3c7" stroke="transparent" points="576,-1152 432,-1152 432,-1080 576,-1080 576,-1152"/>
<text text-anchor="middle" x="504" y="-1112.3" font-family="Times,serif" font-size="14.00">EMEI07</text>
</g>
<!-- EMEI08 -->
<g id="node23" class="node">
<title>EMEI08</title>
<polygon fill="#bdc3c7" stroke="transparent" points="576,-936 432,-936 432,-864 576,-864 576,-936"/>
<text text-anchor="middle" x="504" y="-896.3" font-family="Times,serif" font-size="14.00">EMEI08</text>
</g>
<!-- FISI04 -->
<g id="node24" class="node">
<title>FISI04</title>
<polygon fill="#bdc3c7" stroke="transparent" points="576,-720 432,-720 432,-648 576,-648 576,-720"/>
<text text-anchor="middle" x="504" y="-680.3" font-family="Times,serif" font-size="14.00">FISI04</text>
</g>
<!-- HUMI06 -->
<g id="node25" class="node">
<title>HUMI06</title>
<polygon fill="#bdc3c7" stroke="transparent" points="576,-504 432,-504 432,-432 576,-432 576,-504"/>
<text text-anchor="middle" x="504" y="-464.3" font-family="Times,serif" font-size="14.00">HUMI06</text>
</g>
<!-- MATI06 -->
<g id="node26" class="node">
<title>MATI06</title>
<polygon fill="#bdc3c7" stroke="transparent" points="576,-288 432,-288 432,-216 576,-216 576,-288"/>
<text text-anchor="middle" x="504" y="-248.3" font-family="Times,serif" font-size="14.00">MATI06</text>
</g>
<!-- MATI07 -->
<g id="node27" class="node">
<title>MATI07</title>
<polygon fill="#bdc3c7" stroke="transparent" points="576,-72 432,-72 432,0 576,0 576,-72"/>
<text text-anchor="middle" x="504" y="-32.3" font-family="Times,serif" font-size="14.00">MATI07</text>
</g>
<!-- ECOI09 -->
<g id="node28" class="node">
<title>ECOI09</title>
<polygon fill="#bdc3c7" stroke="transparent" points="792,-1800 648,-1800 648,-1728 792,-1728 792,-1800"/>
<text text-anchor="middle" x="720" y="-1760.3" font-family="Times,serif" font-size="14.00">ECOI09</text>
</g>
<!-- EELI07 -->
<g id="node29" class="node">
<title>EELI07</title>
<polygon fill="#bdc3c7" stroke="transparent" points="792,-1584 648,-1584 648,-1512 792,-1512 792,-1584"/>
<text text-anchor="middle" x="720" y="-1544.3" font-family="Times,serif" font-size="14.00">EELI07</text>
</g>
<!-- ECAI26 -->
<g id="node35" class="node">
<title>ECAI26</title>
<polygon fill="#bdc3c7" stroke="transparent" points="1008,-1800 864,-1800 864,-1728 1008,-1728 1008,-1800"/>
<text text-anchor="middle" x="936" y="-1760.3" font-family="Times,serif" font-size="14.00">ECAI26</text>
</g>
<!-- EELI07&#45;&gt;ECAI26 -->
<g id="edge1" class="edge">
<title>EELI07&#45;&gt;ECAI26</title>
<path fill="none" stroke="#bd1c32" d="M792.2,-1569C820.35,-1569 846,-1569 846,-1569 846,-1569 846,-1764 846,-1764 846,-1764 853.78,-1764 853.78,-1764"/>
<polygon fill="#bd1c32" stroke="#bd1c32" points="853.78,-1767.5 863.78,-1764 853.78,-1760.5 853.78,-1767.5"/>
<text text-anchor="middle" x="834.5" y="-1647.29" font-family="Times,serif" font-size="14.00">1.0</text>
</g>
<!-- ECOI10 -->
<g id="node36" class="node">
<title>ECOI10</title>
<polygon fill="#bdc3c7" stroke="transparent" points="1008,-1584 864,-1584 864,-1512 1008,-1512 1008,-1584"/>
<text text-anchor="middle" x="936" y="-1544.3" font-family="Times,serif" font-size="14.00">ECOI10</text>
</g>
<!-- EELI07&#45;&gt;ECOI10 -->
<g id="edge2" class="edge">
<title>EELI07&#45;&gt;ECOI10</title>
<path fill="none" stroke="#bd1c32" d="M792.23,-1555C792.23,-1555 853.84,-1555 853.84,-1555"/>
<polygon fill="#bd1c32" stroke="#bd1c32" points="853.84,-1558.5 863.84,-1555 853.84,-1551.5 853.84,-1558.5"/>
<text text-anchor="middle" x="811.53" y="-1558.8" font-family="Times,serif" font-size="14.00">1.0</text>
</g>
<!-- EELI10 -->
<g id="node40" class="node">
<title>EELI10</title>
<polygon fill="#bdc3c7" stroke="transparent" points="1008,-720 864,-720 864,-648 1008,-648 1008,-720"/>
<text text-anchor="middle" x="936" y="-680.3" font-family="Times,serif" font-size="14.00">EELI10</text>
</g>
<!-- EELI07&#45;&gt;EELI10 -->
<g id="edge3" class="edge">
<title>EELI07&#45;&gt;EELI10</title>
<path fill="none" stroke="#bd1c32" d="M792.04,-1540C811.85,-1540 828,-1540 828,-1540 828,-1540 828,-684 828,-684 828,-684 853.96,-684 853.96,-684"/>
<polygon fill="#bd1c32" stroke="#bd1c32" points="853.96,-687.5 863.96,-684 853.96,-680.5 853.96,-687.5"/>
<text text-anchor="middle" x="816.5" y="-1120.8" font-family="Times,serif" font-size="14.00">1.0</text>
</g>
<!-- EELI11 -->
<g id="node41" class="node">
<title>EELI11</title>
<polygon fill="#bdc3c7" stroke="transparent" points="1008,-504 864,-504 864,-432 1008,-432 1008,-504"/>
<text text-anchor="middle" x="936" y="-464.3" font-family="Times,serif" font-size="14.00">EELI11</text>
</g>
<!-- EELI07&#45;&gt;EELI11 -->
<g id="edge4" class="edge">
<title>EELI07&#45;&gt;EELI11</title>
<path fill="none" stroke="#bd1c32" d="M792.22,-1526C802.68,-1526 810,-1526 810,-1526 810,-1526 810,-467 810,-467 810,-467 853.8,-467 853.8,-467"/>
<polygon fill="#bd1c32" stroke="#bd1c32" points="853.8,-470.5 863.8,-467 853.8,-463.5 853.8,-470.5"/>
<text text-anchor="middle" x="798.5" y="-987.29" font-family="Times,serif" font-size="14.00">1.0</text>
</g>
<!-- FISI05 -->
<g id="node30" class="node">
<title>FISI05</title>
<polygon fill="#bdc3c7" stroke="transparent" points="792,-1368 648,-1368 648,-1296 792,-1296 792,-1368"/>
<text text-anchor="middle" x="720" y="-1328.3" font-family="Times,serif" font-size="14.00">FISI05</text>
</g>
<!-- FISI07 -->
<g id="node31" class="node">
<title>FISI07</title>
<polygon fill="#bdc3c7" stroke="transparent" points="792,-1152 648,-1152 648,-1080 792,-1080 792,-1152"/>
<text text-anchor="middle" x="720" y="-1112.3" font-family="Times,serif" font-size="14.00">FISI07</text>
</g>
<!-- MATI04 -->
<g id="node32" class="node">
<title>MATI04</title>
<polygon fill="#bdc3c7" stroke="transparent" points="792,-936 648,-936 648,-864 792,-864 792,-936"/>
<text text-anchor="middle" x="720" y="-896.3" font-family="Times,serif" font-size="14.00">MATI04</text>
</g>
<!-- MATI05 -->
<g id="node33" class="node">
<title>MATI05</title>
<polygon fill="#bdc3c7" stroke="transparent" points="792,-720 648,-720 648,-648 792,-648 792,-720"/>
<text text-anchor="middle" x="720" y="-680.3" font-family="Times,serif" font-size="14.00">MATI05</text>
</g>
<!-- MATI08 -->
<g id="node34" class="node">
<title>MATI08</title>
<polygon fill="#bdc3c7" stroke="transparent" points="792,-504 648,-504 648,-432 792,-432 792,-504"/>
<text text-anchor="middle" x="720" y="-464.3" font-family="Times,serif" font-size="14.00">MATI08</text>
</g>
<!-- ECAI29 -->
<g id="node43" class="node">
<title>ECAI29</title>
<polygon fill="#bdc3c7" stroke="transparent" points="1224,-1800 1080,-1800 1080,-1728 1224,-1728 1224,-1800"/>
<text text-anchor="middle" x="1152" y="-1760.3" font-family="Times,serif" font-size="14.00">ECAI29</text>
</g>
<!-- ECAI26&#45;&gt;ECAI29 -->
<g id="edge5" class="edge">
<title>ECAI26&#45;&gt;ECAI29</title>
<path fill="none" stroke="#bd1c32" d="M1008.23,-1792C1008.23,-1792 1069.84,-1792 1069.84,-1792"/>
<polygon fill="#bd1c32" stroke="#bd1c32" points="1069.84,-1795.5 1079.84,-1792 1069.84,-1788.5 1069.84,-1795.5"/>
<text text-anchor="middle" x="1055.03" y="-1795.8" font-family="Times,serif" font-size="14.00">0.29</text>
</g>
<!-- EELI12 -->
<g id="node47" class="node">
<title>EELI12</title>
<polygon fill="#bdc3c7" stroke="transparent" points="1224,-936 1080,-936 1080,-864 1224,-864 1224,-936"/>
<text text-anchor="middle" x="1152" y="-896.3" font-family="Times,serif" font-size="14.00">EELI12</text>
</g>
<!-- ECAI26&#45;&gt;EELI12 -->
<g id="edge6" class="edge">
<title>ECAI26&#45;&gt;EELI12</title>
<path fill="none" stroke="#bd1c32" d="M1008.05,-1784C1042.35,-1784 1076,-1784 1076,-1784 1076,-1784 1076,-921 1076,-921 1076,-921 1076.37,-921 1076.37,-921"/>
<polygon fill="#bd1c32" stroke="#bd1c32" points="1069.67,-924.5 1079.67,-921 1069.67,-917.5 1069.67,-924.5"/>
<text text-anchor="middle" x="1060" y="-1390.09" font-family="Times,serif" font-size="14.00">0.29</text>
</g>
<!-- EELI13 -->
<g id="node48" class="node">
<title>EELI13</title>
<polygon fill="#bdc3c7" stroke="transparent" points="1224,-720 1080,-720 1080,-648 1224,-648 1224,-720"/>
<text text-anchor="middle" x="1152" y="-680.3" font-family="Times,serif" font-size="14.00">EELI13</text>
</g>
<!-- ECAI26&#45;&gt;EELI13 -->
<g id="edge7" class="edge">
<title>ECAI26&#45;&gt;EELI13</title>
<path fill="none" stroke="#bd1c32" d="M1008.32,-1776C1015.39,-1776 1020,-1776 1020,-1776 1020,-1776 1020,-704 1020,-704 1020,-704 1069.82,-704 1069.82,-704"/>
<polygon fill="#bd1c32" stroke="#bd1c32" points="1069.82,-707.5 1079.82,-704 1069.82,-700.5 1069.82,-707.5"/>
<text text-anchor="middle" x="1004" y="-1224.73" font-family="Times,serif" font-size="14.00">0.29</text>
</g>
<!-- EELI14 -->
<g id="node49" class="node">
<title>EELI14</title>
<polygon fill="#bdc3c7" stroke="transparent" points="1224,-504 1080,-504 1080,-432 1224,-432 1224,-504"/>
<text text-anchor="middle" x="1152" y="-464.3" font-family="Times,serif" font-size="14.00">EELI14</text>
</g>
<!-- ECAI26&#45;&gt;EELI14 -->
<g id="edge8" class="edge">
<title>ECAI26&#45;&gt;EELI14</title>
<path fill="none" stroke="#bd1c32" d="M1008.23,-1768C1037.26,-1768 1064,-1768 1064,-1768 1064,-1768 1064,-487 1064,-487 1064,-487 1069.73,-487 1069.73,-487"/>
<polygon fill="#bd1c32" stroke="#bd1c32" points="1069.73,-490.5 1079.73,-487 1069.73,-483.5 1069.73,-490.5"/>
<text text-anchor="middle" x="1048" y="-1156.32" font-family="Times,serif" font-size="14.00">0.29</text>
</g>
<!-- EELI15 -->
<g id="node50" class="node">
<title>EELI15</title>
<polygon fill="#bdc3c7" stroke="transparent" points="1224,-288 1080,-288 1080,-216 1224,-216 1224,-288"/>
<text text-anchor="middle" x="1152" y="-248.3" font-family="Times,serif" font-size="14.00">EELI15</text>
</g>
<!-- ECAI26&#45;&gt;EELI15 -->
<g id="edge9" class="edge">
<title>ECAI26&#45;&gt;EELI15</title>
<path fill="none" stroke="#bd1c32" d="M1008.13,-1760C1035.41,-1760 1060,-1760 1060,-1760 1060,-1760 1060,-273 1060,-273 1060,-273 1069.96,-273 1069.96,-273"/>
<polygon fill="#bd1c32" stroke="#bd1c32" points="1069.96,-276.5 1079.96,-273 1069.96,-269.5 1069.96,-276.5"/>
<text text-anchor="middle" x="1044" y="-1041.25" font-family="Times,serif" font-size="14.00">0.29</text>
</g>
<!-- ECOI10&#45;&gt;ECAI29 -->
<g id="edge10" class="edge">
<title>ECOI10&#45;&gt;ECAI29</title>
<path fill="none" stroke="#bd1c32" d="M1008.04,-1572C1012.95,-1572 1016,-1572 1016,-1572 1016,-1572 1016,-1752 1016,-1752 1016,-1752 1069.62,-1752 1069.62,-1752"/>
<polygon fill="#bd1c32" stroke="#bd1c32" points="1069.62,-1755.5 1079.62,-1752 1069.62,-1748.5 1069.62,-1755.5"/>
<text text-anchor="middle" x="1000" y="-1688.63" font-family="Times,serif" font-size="14.00">0.14</text>
</g>
<!-- ECOI10&#45;&gt;EELI12 -->
<g id="edge11" class="edge">
<title>ECOI10&#45;&gt;EELI12</title>
<path fill="none" stroke="#bd1c32" d="M1008.18,-1560C1039,-1560 1068,-1560 1068,-1560 1068,-1560 1068,-907 1068,-907 1068,-907 1069.68,-907 1069.68,-907"/>
<polygon fill="#bd1c32" stroke="#bd1c32" points="1069.68,-910.5 1079.68,-907 1069.68,-903.5 1069.68,-910.5"/>
<text text-anchor="middle" x="1052" y="-1266.37" font-family="Times,serif" font-size="14.00">0.14</text>
</g>
<!-- ECOI10&#45;&gt;EELI13 -->
<g id="edge12" class="edge">
<title>ECOI10&#45;&gt;EELI13</title>
<path fill="none" stroke="#bd1c32" d="M1008.2,-1548C1029.87,-1548 1048,-1548 1048,-1548 1048,-1548 1048,-696 1048,-696 1048,-696 1069.77,-696 1069.77,-696"/>
<polygon fill="#bd1c32" stroke="#bd1c32" points="1069.77,-699.5 1079.77,-696 1069.77,-692.5 1069.77,-699.5"/>
<text text-anchor="middle" x="1032" y="-1134.82" font-family="Times,serif" font-size="14.00">0.14</text>
</g>
<!-- ECOI10&#45;&gt;EELI14 -->
<g id="edge13" class="edge">
<title>ECOI10&#45;&gt;EELI14</title>
<path fill="none" stroke="#bd1c32" d="M1008.04,-1536C1027.85,-1536 1044,-1536 1044,-1536 1044,-1536 1044,-479 1044,-479 1044,-479 1069.96,-479 1069.96,-479"/>
<polygon fill="#bd1c32" stroke="#bd1c32" points="1069.96,-482.5 1079.96,-479 1069.96,-475.5 1069.96,-482.5"/>
<text text-anchor="middle" x="1028" y="-1016.3" font-family="Times,serif" font-size="14.00">0.14</text>
</g>
<!-- ECOI10&#45;&gt;EELI15 -->
<g id="edge14" class="edge">
<title>ECOI10&#45;&gt;EELI15</title>
<path fill="none" stroke="#bd1c32" d="M1008.14,-1524C1023.91,-1524 1036,-1524 1036,-1524 1036,-1524 1036,-259 1036,-259 1036,-259 1069.85,-259 1069.85,-259"/>
<polygon fill="#bd1c32" stroke="#bd1c32" points="1069.85,-262.5 1079.85,-259 1069.85,-255.5 1069.85,-262.5"/>
<text text-anchor="middle" x="1052" y="-892.3" font-family="Times,serif" font-size="14.00">0.14</text>
</g>
<!-- ECOI11 -->
<g id="node37" class="node">
<title>ECOI11</title>
<polygon fill="#bdc3c7" stroke="transparent" points="1008,-1368 864,-1368 864,-1296 1008,-1296 1008,-1368"/>
<text text-anchor="middle" x="936" y="-1328.3" font-family="Times,serif" font-size="14.00">ECOI11</text>
</g>
<!-- ECOI12 -->
<g id="node38" class="node">
<title>ECOI12</title>
<polygon fill="#bdc3c7" stroke="transparent" points="1008,-1152 864,-1152 864,-1080 1008,-1080 1008,-1152"/>
<text text-anchor="middle" x="936" y="-1112.3" font-family="Times,serif" font-size="14.00">ECOI12</text>
</g>
<!-- ECOI14 -->
<g id="node39" class="node">
<title>ECOI14</title>
<polygon fill="#bdc3c7" stroke="transparent" points="1008,-936 864,-936 864,-864 1008,-864 1008,-936"/>
<text text-anchor="middle" x="936" y="-896.3" font-family="Times,serif" font-size="14.00">ECOI14</text>
</g>
<!-- EELI10&#45;&gt;ECAI29 -->
<g id="edge15" class="edge">
<title>EELI10&#45;&gt;ECAI29</title>
<path fill="none" stroke="#bd1c32" d="M1008.15,-712C1031.74,-712 1052,-712 1052,-712 1052,-712 1052,-1744 1052,-1744 1052,-1744 1069.86,-1744 1069.86,-1744"/>
<polygon fill="#bd1c32" stroke="#bd1c32" points="1069.86,-1747.5 1079.86,-1744 1069.86,-1740.5 1069.86,-1747.5"/>
<text text-anchor="middle" x="1036" y="-1218.8" font-family="Times,serif" font-size="14.00">0.29</text>
</g>
<!-- EELI10&#45;&gt;EELI12 -->
<g id="edge16" class="edge">
<title>EELI10&#45;&gt;EELI12</title>
<path fill="none" stroke="#bd1c32" d="M1008.27,-688C1017.61,-688 1024,-688 1024,-688 1024,-688 1024,-892 1024,-892 1024,-892 1069.77,-892 1069.77,-892"/>
<polygon fill="#bd1c32" stroke="#bd1c32" points="1069.77,-895.5 1079.77,-892 1069.77,-888.5 1069.77,-895.5"/>
<text text-anchor="middle" x="1008" y="-808.82" font-family="Times,serif" font-size="14.00">0.29</text>
</g>
<!-- EELI10&#45;&gt;EELI13 -->
<g id="edge17" class="edge">
<title>EELI10&#45;&gt;EELI13</title>
<path fill="none" stroke="#bd1c32" d="M1008.23,-680C1008.23,-680 1069.84,-680 1069.84,-680"/>
<polygon fill="#bd1c32" stroke="#bd1c32" points="1069.84,-683.5 1079.84,-680 1069.84,-676.5 1069.84,-683.5"/>
<text text-anchor="middle" x="1055.03" y="-683.8" font-family="Times,serif" font-size="14.00">0.29</text>
</g>
<!-- EELI10&#45;&gt;EELI14 -->
<g id="edge18" class="edge">
<title>EELI10&#45;&gt;EELI14</title>
<path fill="none" stroke="#bd1c32" d="M1008.23,-664C1025.98,-664 1040,-664 1040,-664 1040,-664 1040,-455 1040,-455 1040,-455 1069.8,-455 1069.8,-455"/>
<polygon fill="#bd1c32" stroke="#bd1c32" points="1069.8,-458.5 1079.8,-455 1069.8,-451.5 1069.8,-458.5"/>
<text text-anchor="middle" x="1024" y="-564.28" font-family="Times,serif" font-size="14.00">0.29</text>
</g>
<!-- EELI10&#45;&gt;EELI15 -->
<g id="edge19" class="edge">
<title>EELI10&#45;&gt;EELI15</title>
<path fill="none" stroke="#bd1c32" d="M1008.27,-656C1021.91,-656 1032,-656 1032,-656 1032,-656 1032,-244 1032,-244 1032,-244 1069.77,-244 1069.77,-244"/>
<polygon fill="#bd1c32" stroke="#bd1c32" points="1069.77,-247.5 1079.77,-244 1069.77,-240.5 1069.77,-247.5"/>
<text text-anchor="middle" x="1048" y="-431.78" font-family="Times,serif" font-size="14.00">0.29</text>
</g>
<!-- EELI11&#45;&gt;ECAI29 -->
<g id="edge20" class="edge">
<title>EELI11&#45;&gt;ECAI29</title>
<path fill="none" stroke="#bd1c32" d="M1008.23,-495C1033.64,-495 1056,-495 1056,-495 1056,-495 1056,-1736 1056,-1736 1056,-1736 1069.73,-1736 1069.73,-1736"/>
<polygon fill="#bd1c32" stroke="#bd1c32" points="1069.73,-1739.5 1079.73,-1736 1069.73,-1732.5 1069.73,-1739.5"/>
<text text-anchor="middle" x="1040" y="-1102.28" font-family="Times,serif" font-size="14.00">0.29</text>
</g>
<!-- EELI11&#45;&gt;EELI12 -->
<g id="edge21" class="edge">
<title>EELI11&#45;&gt;EELI12</title>
<path fill="none" stroke="#bd1c32" d="M1008.38,-471C1040.86,-471 1072,-471 1072,-471 1072,-471 1072,-878 1072,-878 1072,-878 1072.8,-878 1072.8,-878"/>
<polygon fill="#bd1c32" stroke="#bd1c32" points="1069.96,-881.5 1079.96,-878 1069.96,-874.5 1069.96,-881.5"/>
<text text-anchor="middle" x="1056" y="-646.89" font-family="Times,serif" font-size="14.00">0.29</text>
</g>
<!-- EELI11&#45;&gt;EELI13 -->
<g id="edge22" class="edge">
<title>EELI11&#45;&gt;EELI13</title>
<path fill="none" stroke="#bd1c32" d="M1008.04,-463C1019.68,-463 1028,-463 1028,-463 1028,-463 1028,-672 1028,-672 1028,-672 1069.87,-672 1069.87,-672"/>
<polygon fill="#bd1c32" stroke="#bd1c32" points="1069.87,-675.5 1079.87,-672 1069.87,-668.5 1069.87,-675.5"/>
<text text-anchor="middle" x="1012" y="-582.25" font-family="Times,serif" font-size="14.00">0.29</text>
</g>
<!-- EELI11&#45;&gt;EELI14 -->
<g id="edge23" class="edge">
<title>EELI11&#45;&gt;EELI14</title>
<path fill="none" stroke="#bd1c32" d="M1008.23,-447C1008.23,-447 1069.84,-447 1069.84,-447"/>
<polygon fill="#bd1c32" stroke="#bd1c32" points="1069.84,-450.5 1079.84,-447 1069.84,-443.5 1069.84,-450.5"/>
<text text-anchor="middle" x="1055.03" y="-450.8" font-family="Times,serif" font-size="14.00">0.29</text>
</g>
<!-- EELI11&#45;&gt;EELI15 -->
<g id="edge24" class="edge">
<title>EELI11&#45;&gt;EELI15</title>
<path fill="none" stroke="#bd1c32" d="M1008.33,-439C1010.66,-439 1012,-439 1012,-439 1012,-439 1012,-230 1012,-230 1012,-230 1069.95,-230 1069.95,-230"/>
<polygon fill="#bd1c32" stroke="#bd1c32" points="1069.95,-233.5 1079.95,-230 1069.95,-226.5 1069.95,-233.5"/>
<text text-anchor="middle" x="996" y="-311.16" font-family="Times,serif" font-size="14.00">0.29</text>
</g>
<!-- FISI06 -->
<g id="node42" class="node">
<title>FISI06</title>
<polygon fill="#bdc3c7" stroke="transparent" points="1008,-288 864,-288 864,-216 1008,-216 1008,-288"/>
<text text-anchor="middle" x="936" y="-248.3" font-family="Times,serif" font-size="14.00">FISI06</text>
</g>
<!-- ECAI04 -->
<g id="node51" class="node">
<title>ECAI04</title>
<polygon fill="#bdc3c7" stroke="transparent" points="1440,-1800 1296,-1800 1296,-1728 1440,-1728 1440,-1800"/>
<text text-anchor="middle" x="1368" y="-1760.3" font-family="Times,serif" font-size="14.00">ECAI04</text>
</g>
<!-- ECAI29&#45;&gt;ECAI04 -->
<g id="edge25" class="edge">
<title>ECAI29&#45;&gt;ECAI04</title>
<path fill="none" stroke="#bd1c32" d="M1224.23,-1792C1224.23,-1792 1285.84,-1792 1285.84,-1792"/>
<polygon fill="#bd1c32" stroke="#bd1c32" points="1285.84,-1795.5 1295.84,-1792 1285.84,-1788.5 1285.84,-1795.5"/>
<text text-anchor="middle" x="1271.03" y="-1795.8" font-family="Times,serif" font-size="14.00">0.09</text>
</g>
<!-- ECAI11 -->
<g id="node52" class="node">
<title>ECAI11</title>
<polygon fill="#bdc3c7" stroke="transparent" points="1440,-1584 1296,-1584 1296,-1512 1440,-1512 1440,-1584"/>
<text text-anchor="middle" x="1368" y="-1544.3" font-family="Times,serif" font-size="14.00">ECAI11</text>
</g>
<!-- ECAI29&#45;&gt;ECAI11 -->
<g id="edge26" class="edge">
<title>ECAI29&#45;&gt;ECAI11</title>
<path fill="none" stroke="#bd1c32" d="M1224.26,-1752C1258.66,-1752 1292.4,-1752 1292.4,-1752 1292.4,-1752 1292.4,-1572 1292.4,-1572 1292.4,-1572 1292.72,-1572 1292.72,-1572"/>
<polygon fill="#bd1c32" stroke="#bd1c32" points="1285.65,-1575.5 1295.65,-1572 1285.65,-1568.5 1285.65,-1575.5"/>
<text text-anchor="middle" x="1276.4" y="-1699.71" font-family="Times,serif" font-size="14.00">0.09</text>
</g>
<!-- ECAI13 -->
<g id="node53" class="node">
<title>ECAI13</title>
<polygon fill="#bdc3c7" stroke="transparent" points="1440,-1368 1296,-1368 1296,-1296 1440,-1296 1440,-1368"/>
<text text-anchor="middle" x="1368" y="-1328.3" font-family="Times,serif" font-size="14.00">ECAI13</text>
</g>
<!-- ECAI29&#45;&gt;ECAI13 -->
<g id="edge27" class="edge">
<title>ECAI29&#45;&gt;ECAI13</title>
<path fill="none" stroke="#bd1c32" d="M1224.26,-1744C1250.76,-1744 1274.4,-1744 1274.4,-1744 1274.4,-1744 1274.4,-1356 1274.4,-1356 1274.4,-1356 1285.64,-1356 1285.64,-1356"/>
<polygon fill="#bd1c32" stroke="#bd1c32" points="1285.64,-1359.5 1295.64,-1356 1285.64,-1352.5 1285.64,-1359.5"/>
<text text-anchor="middle" x="1258.4" y="-1573.25" font-family="Times,serif" font-size="14.00">0.09</text>
</g>
<!-- ECAI44 -->
<g id="node54" class="node">
<title>ECAI44</title>
<polygon fill="#bdc3c7" stroke="transparent" points="1440,-1152 1296,-1152 1296,-1080 1440,-1080 1440,-1152"/>
<text text-anchor="middle" x="1368" y="-1112.3" font-family="Times,serif" font-size="14.00">ECAI44</text>
</g>
<!-- ECAI29&#45;&gt;ECAI44 -->
<g id="edge28" class="edge">
<title>ECAI29&#45;&gt;ECAI44</title>
<path fill="none" stroke="#bd1c32" d="M1224.22,-1736C1242.17,-1736 1256.4,-1736 1256.4,-1736 1256.4,-1736 1256.4,-1140 1256.4,-1140 1256.4,-1140 1285.75,-1140 1285.75,-1140"/>
<polygon fill="#bd1c32" stroke="#bd1c32" points="1285.75,-1143.5 1295.75,-1140 1285.75,-1136.5 1285.75,-1143.5"/>
<text text-anchor="middle" x="1240.4" y="-1443.21" font-family="Times,serif" font-size="14.00">0.09</text>
</g>
<!-- ECOI15 -->
<g id="node44" class="node">
<title>ECOI15</title>
<polygon fill="#bdc3c7" stroke="transparent" points="1224,-1584 1080,-1584 1080,-1512 1224,-1512 1224,-1584"/>
<text text-anchor="middle" x="1152" y="-1544.3" font-family="Times,serif" font-size="14.00">ECOI15</text>
</g>
<!-- ECOI16 -->
<g id="node45" class="node">
<title>ECOI16</title>
<polygon fill="#bdc3c7" stroke="transparent" points="1224,-1368 1080,-1368 1080,-1296 1224,-1296 1224,-1368"/>
<text text-anchor="middle" x="1152" y="-1328.3" font-family="Times,serif" font-size="14.00">ECOI16</text>
</g>
<!-- ECOI32 -->
<g id="node46" class="node">
<title>ECOI32</title>
<polygon fill="#bdc3c7" stroke="transparent" points="1224,-1152 1080,-1152 1080,-1080 1224,-1080 1224,-1152"/>
<text text-anchor="middle" x="1152" y="-1112.3" font-family="Times,serif" font-size="14.00">ECOI32</text>
</g>
<!-- EELI12&#45;&gt;ECAI04 -->
<g id="edge29" class="edge">
<title>EELI12&#45;&gt;ECAI04</title>
<path fill="none" stroke="#bd1c32" d="M1224.35,-921C1226.42,-921 1227.6,-921 1227.6,-921 1227.6,-921 1227.6,-1784 1227.6,-1784 1227.6,-1784 1285.74,-1784 1285.74,-1784"/>
<polygon fill="#bd1c32" stroke="#bd1c32" points="1285.74,-1787.5 1295.74,-1784 1285.74,-1780.5 1285.74,-1787.5"/>
<text text-anchor="middle" x="1211.6" y="-1383.75" font-family="Times,serif" font-size="14.00">0.23</text>
</g>
<!-- EELI12&#45;&gt;ECAI11 -->
<g id="edge30" class="edge">
<title>EELI12&#45;&gt;ECAI11</title>
<path fill="none" stroke="#bd1c32" d="M1224.22,-907C1234.68,-907 1242,-907 1242,-907 1242,-907 1242,-1560 1242,-1560 1242,-1560 1285.8,-1560 1285.8,-1560"/>
<polygon fill="#bd1c32" stroke="#bd1c32" points="1285.8,-1563.5 1295.8,-1560 1285.8,-1556.5 1285.8,-1563.5"/>
<text text-anchor="middle" x="1226" y="-1250.31" font-family="Times,serif" font-size="14.00">0.23</text>
</g>
<!-- EELI12&#45;&gt;ECAI13 -->
<g id="edge31" class="edge">
<title>EELI12&#45;&gt;ECAI13</title>
<path fill="none" stroke="#bd1c32" d="M1224.04,-892C1243.85,-892 1260,-892 1260,-892 1260,-892 1260,-1344 1260,-1344 1260,-1344 1285.96,-1344 1285.96,-1344"/>
<polygon fill="#bd1c32" stroke="#bd1c32" points="1285.96,-1347.5 1295.96,-1344 1285.96,-1340.5 1285.96,-1347.5"/>
<text text-anchor="middle" x="1244" y="-1116.8" font-family="Times,serif" font-size="14.00">0.23</text>
</g>
<!-- EELI12&#45;&gt;ECAI44 -->
<g id="edge32" class="edge">
<title>EELI12&#45;&gt;ECAI44</title>
<path fill="none" stroke="#bd1c32" d="M1224.2,-878C1252.35,-878 1278,-878 1278,-878 1278,-878 1278,-1128 1278,-1128 1278,-1128 1285.78,-1128 1285.78,-1128"/>
<polygon fill="#bd1c32" stroke="#bd1c32" points="1285.78,-1131.5 1295.78,-1128 1285.78,-1124.5 1285.78,-1131.5"/>
<text text-anchor="middle" x="1262" y="-983.79" font-family="Times,serif" font-size="14.00">0.23</text>
</g>
<!-- EELI13&#45;&gt;ECAI04 -->
<g id="edge33" class="edge">
<title>EELI13&#45;&gt;ECAI04</title>
<path fill="none" stroke="#bd1c32" d="M1224.17,-705C1228.53,-705 1231.2,-705 1231.2,-705 1231.2,-705 1231.2,-1776 1231.2,-1776 1231.2,-1776 1285.99,-1776 1285.99,-1776"/>
<polygon fill="#bd1c32" stroke="#bd1c32" points="1285.99,-1779.5 1295.99,-1776 1285.99,-1772.5 1285.99,-1779.5"/>
<text text-anchor="middle" x="1215.2" y="-1268.18" font-family="Times,serif" font-size="14.00">0.23</text>
</g>
<!-- EELI13&#45;&gt;ECAI11 -->
<g id="edge34" class="edge">
<title>EELI13&#45;&gt;ECAI11</title>
<path fill="none" stroke="#bd1c32" d="M1224.36,-691C1236.69,-691 1245.6,-691 1245.6,-691 1245.6,-691 1245.6,-1548 1245.6,-1548 1245.6,-1548 1285.74,-1548 1285.74,-1548"/>
<polygon fill="#bd1c32" stroke="#bd1c32" points="1285.74,-1551.5 1295.74,-1548 1285.74,-1544.5 1285.74,-1551.5"/>
<text text-anchor="middle" x="1261.6" y="-1132.75" font-family="Times,serif" font-size="14.00">0.23</text>
</g>
<!-- EELI13&#45;&gt;ECAI13 -->
<g id="edge35" class="edge">
<title>EELI13&#45;&gt;ECAI13</title>
<path fill="none" stroke="#bd1c32" d="M1224.25,-676C1245.71,-676 1263.6,-676 1263.6,-676 1263.6,-676 1263.6,-1332 1263.6,-1332 1263.6,-1332 1285.78,-1332 1285.78,-1332"/>
<polygon fill="#bd1c32" stroke="#bd1c32" points="1285.78,-1335.5 1295.78,-1332 1285.78,-1328.5 1285.78,-1335.5"/>
<text text-anchor="middle" x="1247.6" y="-999.21" font-family="Times,serif" font-size="14.00">0.23</text>
</g>
<!-- EELI13&#45;&gt;ECAI44 -->
<g id="edge36" class="edge">
<title>EELI13&#45;&gt;ECAI44</title>
<path fill="none" stroke="#bd1c32" d="M1224,-662C1253.83,-662 1281.6,-662 1281.6,-662 1281.6,-662 1281.6,-1116 1281.6,-1116 1281.6,-1116 1285.87,-1116 1285.87,-1116"/>
<polygon fill="#bd1c32" stroke="#bd1c32" points="1285.87,-1119.5 1295.87,-1116 1285.87,-1112.5 1285.87,-1119.5"/>
<text text-anchor="middle" x="1265.6" y="-866.13" font-family="Times,serif" font-size="14.00">0.23</text>
</g>
<!-- EELI14&#45;&gt;ECAI04 -->
<g id="edge37" class="edge">
<title>EELI14&#45;&gt;ECAI04</title>
<path fill="none" stroke="#bd1c32" d="M1224.31,-489C1230.7,-489 1234.8,-489 1234.8,-489 1234.8,-489 1234.8,-1768 1234.8,-1768 1234.8,-1768 1285.94,-1768 1285.94,-1768"/>
<polygon fill="#bd1c32" stroke="#bd1c32" points="1285.94,-1771.5 1295.94,-1768 1285.94,-1764.5 1285.94,-1771.5"/>
<text text-anchor="middle" x="1250.8" y="-1152.63" font-family="Times,serif" font-size="14.00">0.23</text>
</g>
<!-- EELI14&#45;&gt;ECAI11 -->
<g id="edge38" class="edge">
<title>EELI14&#45;&gt;ECAI11</title>
<path fill="none" stroke="#bd1c32" d="M1224.17,-475C1238.48,-475 1249.2,-475 1249.2,-475 1249.2,-475 1249.2,-1536 1249.2,-1536 1249.2,-1536 1285.81,-1536 1285.81,-1536"/>
<polygon fill="#bd1c32" stroke="#bd1c32" points="1285.81,-1539.5 1295.81,-1536 1285.81,-1532.5 1285.81,-1539.5"/>
<text text-anchor="middle" x="1233.2" y="-1015.09" font-family="Times,serif" font-size="14.00">0.23</text>
</g>
<!-- EELI14&#45;&gt;ECAI13 -->
<g id="edge39" class="edge">
<title>EELI14&#45;&gt;ECAI13</title>
<path fill="none" stroke="#bd1c32" d="M1224.3,-460C1247.45,-460 1267.2,-460 1267.2,-460 1267.2,-460 1267.2,-1320 1267.2,-1320 1267.2,-1320 1285.82,-1320 1285.82,-1320"/>
<polygon fill="#bd1c32" stroke="#bd1c32" points="1285.82,-1323.5 1295.82,-1320 1285.82,-1316.5 1285.82,-1323.5"/>
<text text-anchor="middle" x="1251.2" y="-881.66" font-family="Times,serif" font-size="14.00">0.23</text>
</g>
<!-- EELI14&#45;&gt;ECAI44 -->
<g id="edge40" class="edge">
<title>EELI14&#45;&gt;ECAI44</title>
<path fill="none" stroke="#bd1c32" d="M1224.06,-446C1255.44,-446 1285.2,-446 1285.2,-446 1285.2,-446 1285.2,-1104 1285.2,-1104 1285.2,-1104 1286.25,-1104 1286.25,-1104"/>
<polygon fill="#bd1c32" stroke="#bd1c32" points="1285.69,-1107.5 1295.69,-1104 1285.69,-1100.5 1285.69,-1107.5"/>
<text text-anchor="middle" x="1269.2" y="-748.75" font-family="Times,serif" font-size="14.00">0.23</text>
</g>
<!-- EELI15&#45;&gt;ECAI04 -->
<g id="edge41" class="edge">
<title>EELI15&#45;&gt;ECAI04</title>
<path fill="none" stroke="#bd1c32" d="M1224.13,-273C1232.66,-273 1238.4,-273 1238.4,-273 1238.4,-273 1238.4,-1760 1238.4,-1760 1238.4,-1760 1286,-1760 1286,-1760"/>
<polygon fill="#bd1c32" stroke="#bd1c32" points="1286,-1763.5 1296,-1760 1286,-1756.5 1286,-1763.5"/>
<text text-anchor="middle" x="1222.4" y="-1036.97" font-family="Times,serif" font-size="14.00">0.23</text>
</g>
<!-- EELI15&#45;&gt;ECAI11 -->
<g id="edge42" class="edge">
<title>EELI15&#45;&gt;ECAI11</title>
<path fill="none" stroke="#bd1c32" d="M1224.18,-259C1240.34,-259 1252.8,-259 1252.8,-259 1252.8,-259 1252.8,-1524 1252.8,-1524 1252.8,-1524 1285.7,-1524 1285.7,-1524"/>
<polygon fill="#bd1c32" stroke="#bd1c32" points="1285.7,-1527.5 1295.7,-1524 1285.7,-1520.5 1285.7,-1527.5"/>
<text text-anchor="middle" x="1268.8" y="-897.44" font-family="Times,serif" font-size="14.00">0.23</text>
</g>
<!-- EELI15&#45;&gt;ECAI13 -->
<g id="edge43" class="edge">
<title>EELI15&#45;&gt;ECAI13</title>
<path fill="none" stroke="#bd1c32" d="M1224.19,-244C1249.06,-244 1270.8,-244 1270.8,-244 1270.8,-244 1270.8,-1308 1270.8,-1308 1270.8,-1308 1285.83,-1308 1285.83,-1308"/>
<polygon fill="#bd1c32" stroke="#bd1c32" points="1285.83,-1311.5 1295.83,-1308 1285.83,-1304.5 1285.83,-1311.5"/>
<text text-anchor="middle" x="1254.8" y="-764.01" font-family="Times,serif" font-size="14.00">0.23</text>
</g>
<!-- EELI15&#45;&gt;ECAI44 -->
<g id="edge44" class="edge">
<title>EELI15&#45;&gt;ECAI44</title>
<path fill="none" stroke="#bd1c32" d="M1224.01,-230C1256.96,-230 1288.8,-230 1288.8,-230 1288.8,-230 1288.8,-1092 1288.8,-1092 1288.8,-1092 1289.5,-1092 1289.5,-1092"/>
<polygon fill="#bd1c32" stroke="#bd1c32" points="1285.83,-1095.5 1295.83,-1092 1285.83,-1088.5 1285.83,-1095.5"/>
<text text-anchor="middle" x="1272.8" y="-632.75" font-family="Times,serif" font-size="14.00">0.23</text>
</g>
<!-- ECAI05 -->
<g id="node59" class="node">
<title>ECAI05</title>
<polygon fill="#bdc3c7" stroke="transparent" points="1656,-1800 1512,-1800 1512,-1728 1656,-1728 1656,-1800"/>
<text text-anchor="middle" x="1584" y="-1760.3" font-family="Times,serif" font-size="14.00">ECAI05</text>
</g>
<!-- ECAI04&#45;&gt;ECAI05 -->
<g id="edge45" class="edge">
<title>ECAI04&#45;&gt;ECAI05</title>
<path fill="none" stroke="#bd1c32" d="M1440.23,-1789C1440.23,-1789 1501.84,-1789 1501.84,-1789"/>
<polygon fill="#bd1c32" stroke="#bd1c32" points="1501.84,-1792.5 1511.84,-1789 1501.84,-1785.5 1501.84,-1792.5"/>
<text text-anchor="middle" x="1487.03" y="-1792.8" font-family="Times,serif" font-size="14.00">0.22</text>
</g>
<!-- ECAI07 -->
<g id="node60" class="node">
<title>ECAI07</title>
<polygon fill="#bdc3c7" stroke="transparent" points="1656,-1584 1512,-1584 1512,-1512 1656,-1512 1656,-1584"/>
<text text-anchor="middle" x="1584" y="-1544.3" font-family="Times,serif" font-size="14.00">ECAI07</text>
</g>
<!-- ECAI04&#45;&gt;ECAI07 -->
<g id="edge46" class="edge">
<title>ECAI04&#45;&gt;ECAI07</title>
<path fill="none" stroke="#bd1c32" d="M1440.01,-1748C1472.96,-1748 1504.8,-1748 1504.8,-1748 1504.8,-1748 1504.8,-1563 1504.8,-1563 1504.8,-1563 1505.5,-1563 1505.5,-1563"/>
<polygon fill="#bd1c32" stroke="#bd1c32" points="1501.83,-1566.5 1511.83,-1563 1501.83,-1559.5 1501.83,-1566.5"/>
<text text-anchor="middle" x="1488.8" y="-1691.35" font-family="Times,serif" font-size="14.00">0.22</text>
</g>
<!-- ECOI07 -->
<g id="node61" class="node">
<title>ECOI07</title>
<polygon fill="#bdc3c7" stroke="transparent" points="1656,-1368 1512,-1368 1512,-1296 1656,-1296 1656,-1368"/>
<text text-anchor="middle" x="1584" y="-1328.3" font-family="Times,serif" font-size="14.00">ECOI07</text>
</g>
<!-- ECAI04&#45;&gt;ECOI07 -->
<g id="edge47" class="edge">
<title>ECAI04&#45;&gt;ECOI07</title>
<path fill="none" stroke="#bd1c32" d="M1440.26,-1738C1466.76,-1738 1490.4,-1738 1490.4,-1738 1490.4,-1738 1490.4,-1347 1490.4,-1347 1490.4,-1347 1501.64,-1347 1501.64,-1347"/>
<polygon fill="#bd1c32" stroke="#bd1c32" points="1501.64,-1350.5 1511.64,-1347 1501.64,-1343.5 1501.64,-1350.5"/>
<text text-anchor="middle" x="1474.4" y="-1565.75" font-family="Times,serif" font-size="14.00">0.22</text>
</g>
<!-- ECAI11&#45;&gt;ECAI05 -->
<g id="edge48" class="edge">
<title>ECAI11&#45;&gt;ECAI05</title>
<path fill="none" stroke="#bd1c32" d="M1440.17,-1573C1444.53,-1573 1447.2,-1573 1447.2,-1573 1447.2,-1573 1447.2,-1779 1447.2,-1779 1447.2,-1779 1501.99,-1779 1501.99,-1779"/>
<polygon fill="#bd1c32" stroke="#bd1c32" points="1501.99,-1782.5 1511.99,-1779 1501.99,-1775.5 1501.99,-1782.5"/>
<text text-anchor="middle" x="1435.7" y="-1703.68" font-family="Times,serif" font-size="14.00">0.3</text>
</g>
<!-- ECAI11&#45;&gt;ECAI07 -->
<g id="edge49" class="edge">
<title>ECAI11&#45;&gt;ECAI07</title>
<path fill="none" stroke="#bd1c32" d="M1440.23,-1553C1440.23,-1553 1501.84,-1553 1501.84,-1553"/>
<polygon fill="#bd1c32" stroke="#bd1c32" points="1501.84,-1556.5 1511.84,-1553 1501.84,-1549.5 1501.84,-1556.5"/>
<text text-anchor="middle" x="1459.53" y="-1541.8" font-family="Times,serif" font-size="14.00">0.3</text>
</g>
<!-- ECAI11&#45;&gt;ECOI07 -->
<g id="edge50" class="edge">
<title>ECAI11&#45;&gt;ECOI07</title>
<path fill="none" stroke="#bd1c32" d="M1440.18,-1522C1456.34,-1522 1468.8,-1522 1468.8,-1522 1468.8,-1522 1468.8,-1326 1468.8,-1326 1468.8,-1326 1501.7,-1326 1501.7,-1326"/>
<polygon fill="#bd1c32" stroke="#bd1c32" points="1501.7,-1329.5 1511.7,-1326 1501.7,-1322.5 1501.7,-1329.5"/>
<text text-anchor="middle" x="1457.3" y="-1425.66" font-family="Times,serif" font-size="14.00">0.3</text>
</g>
<!-- ECAI13&#45;&gt;ECAI05 -->
<g id="edge51" class="edge">
<title>ECAI13&#45;&gt;ECAI05</title>
<path fill="none" stroke="#bd1c32" d="M1440.04,-1357C1459.85,-1357 1476,-1357 1476,-1357 1476,-1357 1476,-1769 1476,-1769 1476,-1769 1501.96,-1769 1501.96,-1769"/>
<polygon fill="#bd1c32" stroke="#bd1c32" points="1501.96,-1772.5 1511.96,-1769 1501.96,-1765.5 1501.96,-1772.5"/>
<text text-anchor="middle" x="1492" y="-1546.8" font-family="Times,serif" font-size="14.00">0.26</text>
</g>
<!-- ECAI13&#45;&gt;ECAI07 -->
<g id="edge52" class="edge">
<title>ECAI13&#45;&gt;ECAI07</title>
<path fill="none" stroke="#bd1c32" d="M1440.13,-1337C1448.66,-1337 1454.4,-1337 1454.4,-1337 1454.4,-1337 1454.4,-1542 1454.4,-1542 1454.4,-1542 1502,-1542 1502,-1542"/>
<polygon fill="#bd1c32" stroke="#bd1c32" points="1502,-1545.5 1512,-1542 1502,-1538.5 1502,-1545.5"/>
<text text-anchor="middle" x="1438.4" y="-1459.97" font-family="Times,serif" font-size="14.00">0.26</text>
</g>
<!-- ECAI13&#45;&gt;ECOI07 -->
<g id="edge53" class="edge">
<title>ECAI13&#45;&gt;ECOI07</title>
<path fill="none" stroke="#bd1c32" d="M1440.23,-1316C1440.23,-1316 1501.84,-1316 1501.84,-1316"/>
<polygon fill="#bd1c32" stroke="#bd1c32" points="1501.84,-1319.5 1511.84,-1316 1501.84,-1312.5 1501.84,-1319.5"/>
<text text-anchor="middle" x="1487.03" y="-1319.8" font-family="Times,serif" font-size="14.00">0.26</text>
</g>
<!-- ECAI44&#45;&gt;ECAI05 -->
<g id="edge54" class="edge">
<title>ECAI44&#45;&gt;ECAI05</title>
<path fill="none" stroke="#bd1c32" d="M1440.3,-1134C1463.45,-1134 1483.2,-1134 1483.2,-1134 1483.2,-1134 1483.2,-1758 1483.2,-1758 1483.2,-1758 1501.82,-1758 1501.82,-1758"/>
<polygon fill="#bd1c32" stroke="#bd1c32" points="1501.82,-1761.5 1511.82,-1758 1501.82,-1754.5 1501.82,-1761.5"/>
<text text-anchor="middle" x="1499.2" y="-1437.66" font-family="Times,serif" font-size="14.00">0.22</text>
</g>
<!-- ECAI44&#45;&gt;ECAI07 -->
<g id="edge55" class="edge">
<title>ECAI44&#45;&gt;ECAI07</title>
<path fill="none" stroke="#bd1c32" d="M1440.36,-1116C1452.69,-1116 1461.6,-1116 1461.6,-1116 1461.6,-1116 1461.6,-1532 1461.6,-1532 1461.6,-1532 1501.74,-1532 1501.74,-1532"/>
<polygon fill="#bd1c32" stroke="#bd1c32" points="1501.74,-1535.5 1511.74,-1532 1501.74,-1528.5 1501.74,-1535.5"/>
<text text-anchor="middle" x="1477.6" y="-1337.25" font-family="Times,serif" font-size="14.00">0.22</text>
</g>
<!-- ECAI44&#45;&gt;ECOI07 -->
<g id="edge56" class="edge">
<title>ECAI44&#45;&gt;ECOI07</title>
<path fill="none" stroke="#bd1c32" d="M1440,-1098C1469.83,-1098 1497.6,-1098 1497.6,-1098 1497.6,-1098 1497.6,-1306 1497.6,-1306 1497.6,-1306 1501.87,-1306 1501.87,-1306"/>
<polygon fill="#bd1c32" stroke="#bd1c32" points="1501.87,-1309.5 1511.87,-1306 1501.87,-1302.5 1501.87,-1309.5"/>
<text text-anchor="middle" x="1481.6" y="-1179.13" font-family="Times,serif" font-size="14.00">0.22</text>
</g>
<!-- ECOI13 -->
<g id="node55" class="node">
<title>ECOI13</title>
<polygon fill="#bdc3c7" stroke="transparent" points="1440,-936 1296,-936 1296,-864 1440,-864 1440,-936"/>
<text text-anchor="middle" x="1368" y="-896.3" font-family="Times,serif" font-size="14.00">ECOI13</text>
</g>
<!-- ECOI18 -->
<g id="node56" class="node">
<title>ECOI18</title>
<polygon fill="#bdc3c7" stroke="transparent" points="1440,-720 1296,-720 1296,-648 1440,-648 1440,-720"/>
<text text-anchor="middle" x="1368" y="-680.3" font-family="Times,serif" font-size="14.00">ECOI18</text>
</g>
<!-- ECOI19 -->
<g id="node57" class="node">
<title>ECOI19</title>
<polygon fill="#bdc3c7" stroke="transparent" points="1440,-504 1296,-504 1296,-432 1440,-432 1440,-504"/>
<text text-anchor="middle" x="1368" y="-464.3" font-family="Times,serif" font-size="14.00">ECOI19</text>
</g>
<!-- ECOI33 -->
<g id="node58" class="node">
<title>ECOI33</title>
<polygon fill="#bdc3c7" stroke="transparent" points="1440,-288 1296,-288 1296,-216 1440,-216 1440,-288"/>
<text text-anchor="middle" x="1368" y="-248.3" font-family="Times,serif" font-size="14.00">ECOI33</text>
</g>
<!-- ECOI21 -->
<g id="node62" class="node">
<title>ECOI21</title>
<polygon fill="#bdc3c7" stroke="transparent" points="1656,-1152 1512,-1152 1512,-1080 1656,-1080 1656,-1152"/>
<text text-anchor="middle" x="1584" y="-1112.3" font-family="Times,serif" font-size="14.00">ECOI21</text>
</g>
<!-- ECOI24 -->
<g id="node63" class="node">
<title>ECOI24</title>
<polygon fill="#bdc3c7" stroke="transparent" points="1656,-936 1512,-936 1512,-864 1656,-864 1656,-936"/>
<text text-anchor="middle" x="1584" y="-896.3" font-family="Times,serif" font-size="14.00">ECOI24</text>
</g>
<!-- ECOI26 -->
<g id="node64" class="node">
<title>ECOI26</title>
<polygon fill="#bdc3c7" stroke="transparent" points="1656,-720 1512,-720 1512,-648 1656,-648 1656,-720"/>
<text text-anchor="middle" x="1584" y="-680.3" font-family="Times,serif" font-size="14.00">ECOI26</text>
</g>
<!-- EPRI30 -->
<g id="node65" class="node">
<title>EPRI30</title>
<polygon fill="#bdc3c7" stroke="transparent" points="1656,-504 1512,-504 1512,-432 1656,-432 1656,-504"/>
<text text-anchor="middle" x="1584" y="-464.3" font-family="Times,serif" font-size="14.00">EPRI30</text>
</g>
<!-- EAMI30 -->
<g id="node66" class="node">
<title>EAMI30</title>
<polygon fill="#bdc3c7" stroke="transparent" points="1872,-1800 1728,-1800 1728,-1728 1872,-1728 1872,-1800"/>
<text text-anchor="middle" x="1800" y="-1760.3" font-family="Times,serif" font-size="14.00">EAMI30</text>
</g>
<!-- ECOI20 -->
<g id="node67" class="node">
<title>ECOI20</title>
<polygon fill="#bdc3c7" stroke="transparent" points="1872,-1584 1728,-1584 1728,-1512 1872,-1512 1872,-1584"/>
<text text-anchor="middle" x="1800" y="-1544.3" font-family="Times,serif" font-size="14.00">ECOI20</text>
</g>
<!-- ECOI22 -->
<g id="node68" class="node">
<title>ECOI22</title>
<polygon fill="#bdc3c7" stroke="transparent" points="1872,-1368 1728,-1368 1728,-1296 1872,-1296 1872,-1368"/>
<text text-anchor="middle" x="1800" y="-1328.3" font-family="Times,serif" font-size="14.00">ECOI22</text>
</g>
<!-- ECOI23 -->
<g id="node69" class="node">
<title>ECOI23</title>
<polygon fill="#bdc3c7" stroke="transparent" points="1872,-1152 1728,-1152 1728,-1080 1872,-1080 1872,-1152"/>
<text text-anchor="middle" x="1800" y="-1112.3" font-family="Times,serif" font-size="14.00">ECOI23</text>
</g>
<!-- ECOI25 -->
<g id="node70" class="node">
<title>ECOI25</title>
<polygon fill="#bdc3c7" stroke="transparent" points="1872,-936 1728,-936 1728,-864 1872,-864 1872,-936"/>
<text text-anchor="middle" x="1800" y="-896.3" font-family="Times,serif" font-size="14.00">ECOI25</text>
</g>
<!-- EPRI02 -->
<g id="node71" class="node">
<title>EPRI02</title>
<polygon fill="#bdc3c7" stroke="transparent" points="1872,-720 1728,-720 1728,-648 1872,-648 1872,-720"/>
<text text-anchor="middle" x="1800" y="-680.3" font-family="Times,serif" font-size="14.00">EPRI02</text>
</g>
<!-- EPRI04 -->
<g id="node72" class="node">
<title>EPRI04</title>
<polygon fill="#bdc3c7" stroke="transparent" points="1872,-504 1728,-504 1728,-432 1872,-432 1872,-504"/>
<text text-anchor="middle" x="1800" y="-464.3" font-family="Times,serif" font-size="14.00">EPRI04</text>
</g>
<!-- HUMI04 -->
<g id="node73" class="node">
<title>HUMI04</title>
<polygon fill="#bdc3c7" stroke="transparent" points="1872,-288 1728,-288 1728,-216 1872,-216 1872,-288"/>
<text text-anchor="middle" x="1800" y="-248.3" font-family="Times,serif" font-size="14.00">HUMI04</text>
</g>
</g>
</svg>
